<svg xmlns="http://www.w3.org/2000/svg" version="1.1" xmlns:xlink="http://www.w3.org/1999/xlink" xmlns:svgjs="http://svgjs.dev/svgjs" width="640" height="200" preserveAspectRatio="none" viewBox="0 0 640 200"><g mask="url(&quot;#SvgjsMask2565&quot;)" fill="none"><rect width="640" height="200" x="0" y="0" fill="url(&quot;#SvgjsLinearGradient2566&quot;)"></rect><g mask="url(&quot;#SvgjsMask2567&quot;)"><path d="M35 105L45 115M175 95L185 105L195 105M135 85L145 95L155 105L165 115L175 115L185 115L195 115L205 115M145 85L155 85L165 85L175 85L185 85M125 85L135 95L145 105L155 115M-5 105L5 105L15 105L25 105L35 105L45 105L55 105L65 105L75 95L85 95L95 95L105 95L115 85L125 85L135 85L145 85L155 95L165 95L175 95L185 95" stroke="rgba(0, 184, 171, 1)" stroke-width="1.67"></path><path d="M182.5 95 a2.5 2.5 0 1 0 5 0 a2.5 2.5 0 1 0 -5 0zM42.5 115 a2.5 2.5 0 1 0 5 0 a2.5 2.5 0 1 0 -5 0zM192.5 105 a2.5 2.5 0 1 0 5 0 a2.5 2.5 0 1 0 -5 0zM202.5 115 a2.5 2.5 0 1 0 5 0 a2.5 2.5 0 1 0 -5 0zM182.5 85 a2.5 2.5 0 1 0 5 0 a2.5 2.5 0 1 0 -5 0zM152.5 115 a2.5 2.5 0 1 0 5 0 a2.5 2.5 0 1 0 -5 0z" fill="rgba(0, 184, 171, 1)"></path><path d="M185 75L195 65L205 65L215 65M165 65L175 75M195 75L205 85L215 85L225 85M175 65L185 65M145 65L155 75M-5 95L5 95L15 95L25 95L35 95L45 95L55 95L65 95L75 85L85 85L95 85L105 85L115 75L125 75L135 75L145 65L155 65L165 65L175 65L185 75L195 75L205 75L215 75" stroke="rgba(2, 161, 182, 1)" stroke-width="1.67"></path><path d="M212.5 75 a2.5 2.5 0 1 0 5 0 a2.5 2.5 0 1 0 -5 0zM212.5 65 a2.5 2.5 0 1 0 5 0 a2.5 2.5 0 1 0 -5 0zM172.5 75 a2.5 2.5 0 1 0 5 0 a2.5 2.5 0 1 0 -5 0zM222.5 85 a2.5 2.5 0 1 0 5 0 a2.5 2.5 0 1 0 -5 0zM182.5 65 a2.5 2.5 0 1 0 5 0 a2.5 2.5 0 1 0 -5 0zM152.5 75 a2.5 2.5 0 1 0 5 0 a2.5 2.5 0 1 0 -5 0z" fill="rgba(2, 161, 182, 1)"></path><path d="M315 35L325 45L335 45L345 45L355 45M345 25L355 35L365 35M95 75L105 75M335 25L345 35M265 45L275 55L285 55L295 55L305 55L315 55L325 65M225 55L235 55L245 55L255 55L265 55L275 65L285 65L295 65L305 65L315 65L325 75L335 75M305 35L315 45M285 45L295 45L305 45M325 35L335 35M-5 85L5 85L15 85L25 85L35 85L45 85L55 85L65 85L75 75L85 75L95 75L105 65L115 65L125 65L135 65L145 55L155 55L165 55L175 55L185 55L195 55L205 55L215 55L225 55L235 45L245 45L255 45L265 45L275 45L285 45L295 35L305 35L315 35L325 35L335 25L345 25L355 25L365 25L375 25" stroke="rgba(0, 184, 171, 1)" stroke-width="1.67"></path><path d="M372.5 25 a2.5 2.5 0 1 0 5 0 a2.5 2.5 0 1 0 -5 0zM352.5 45 a2.5 2.5 0 1 0 5 0 a2.5 2.5 0 1 0 -5 0zM362.5 35 a2.5 2.5 0 1 0 5 0 a2.5 2.5 0 1 0 -5 0zM102.5 75 a2.5 2.5 0 1 0 5 0 a2.5 2.5 0 1 0 -5 0zM342.5 35 a2.5 2.5 0 1 0 5 0 a2.5 2.5 0 1 0 -5 0zM322.5 65 a2.5 2.5 0 1 0 5 0 a2.5 2.5 0 1 0 -5 0zM332.5 75 a2.5 2.5 0 1 0 5 0 a2.5 2.5 0 1 0 -5 0zM312.5 45 a2.5 2.5 0 1 0 5 0 a2.5 2.5 0 1 0 -5 0zM302.5 45 a2.5 2.5 0 1 0 5 0 a2.5 2.5 0 1 0 -5 0zM332.5 35 a2.5 2.5 0 1 0 5 0 a2.5 2.5 0 1 0 -5 0z" fill="rgba(0, 184, 171, 1)"></path><path d="M315 145L325 135L335 135L345 135L355 135L365 135M505 145L515 145L525 145L535 145M185 145L195 135L205 135L215 135L225 135M395 145L405 155L415 155L425 145L435 145L445 155L455 155L465 165M255 135L265 145M535 135L545 135L555 135L565 135L575 135L585 135L595 135L605 135L615 135L625 135M65 135L75 125L85 125L95 125L105 125L115 125L125 115L135 115L145 115L155 125L165 125L175 125L185 125L195 125L205 125L215 125L225 125L235 125M555 145L565 155M285 135L295 135L305 135L315 135L325 125M385 145L395 155L405 165L415 165L425 165L435 165L445 165L455 165M55 135L65 125L75 115L85 115L95 105L105 105L115 105M525 135L535 125L545 125L555 125L565 125M515 135L525 125L535 115L545 115L555 115L565 115L575 115L585 105L595 105L605 105L615 105L625 105M465 145L475 135L485 135M-5 125L5 125L15 125L25 135L35 135L45 135L55 135L65 135L75 135L85 135L95 135L105 135L115 135L125 135L135 145L145 145L155 145L165 145L175 145L185 145L195 145L205 145L215 145L225 145L235 145L245 145L255 135L265 135L275 135L285 135L295 145L305 145L315 145L325 145L335 145L345 145L355 145L365 145L375 145L385 145L395 145L405 145L415 145L425 135L435 135L445 145L455 145L465 145L475 145L485 145L495 145L505 145L515 135L525 135L535 135L545 145L555 145L565 145" stroke="rgba(0, 184, 171, 1)" stroke-width="1.67"></path><path d="M562.5 145 a2.5 2.5 0 1 0 5 0 a2.5 2.5 0 1 0 -5 0zM362.5 135 a2.5 2.5 0 1 0 5 0 a2.5 2.5 0 1 0 -5 0zM532.5 145 a2.5 2.5 0 1 0 5 0 a2.5 2.5 0 1 0 -5 0zM222.5 135 a2.5 2.5 0 1 0 5 0 a2.5 2.5 0 1 0 -5 0zM462.5 165 a2.5 2.5 0 1 0 5 0 a2.5 2.5 0 1 0 -5 0zM262.5 145 a2.5 2.5 0 1 0 5 0 a2.5 2.5 0 1 0 -5 0zM622.5 135 a2.5 2.5 0 1 0 5 0 a2.5 2.5 0 1 0 -5 0zM232.5 125 a2.5 2.5 0 1 0 5 0 a2.5 2.5 0 1 0 -5 0zM562.5 155 a2.5 2.5 0 1 0 5 0 a2.5 2.5 0 1 0 -5 0zM322.5 125 a2.5 2.5 0 1 0 5 0 a2.5 2.5 0 1 0 -5 0zM452.5 165 a2.5 2.5 0 1 0 5 0 a2.5 2.5 0 1 0 -5 0zM112.5 105 a2.5 2.5 0 1 0 5 0 a2.5 2.5 0 1 0 -5 0zM562.5 125 a2.5 2.5 0 1 0 5 0 a2.5 2.5 0 1 0 -5 0zM622.5 105 a2.5 2.5 0 1 0 5 0 a2.5 2.5 0 1 0 -5 0zM482.5 135 a2.5 2.5 0 1 0 5 0 a2.5 2.5 0 1 0 -5 0z" fill="rgba(0, 184, 171, 1)"></path><path d="M35 75L45 65M-5 75L5 75L15 75L25 75L35 75L45 75L55 75L65 75L75 65L85 65L95 65L105 55L115 55L125 55L135 55L145 45L155 45L165 45L175 45L185 45L195 45L205 45L215 45L225 45L235 35L245 35L255 35L265 35L275 35L285 35L295 25L305 25L315 25L325 25" stroke="rgba(2, 161, 182, 1)" stroke-width="1.67"></path><path d="M322.5 25 a2.5 2.5 0 1 0 5 0 a2.5 2.5 0 1 0 -5 0zM42.5 65 a2.5 2.5 0 1 0 5 0 a2.5 2.5 0 1 0 -5 0z" fill="rgba(2, 161, 182, 1)"></path><path d="M5 135L15 145M305 155L315 165L325 165L335 165L345 165L355 175L365 175L375 175L385 175L395 185L405 185M365 165L375 155L385 155M465 175L475 185L485 185M165 155L175 165L185 165L195 165L205 165L215 165L225 165M295 155L305 165L315 175L325 175L335 175M135 155L145 165L155 165L165 165M355 165L365 155M95 145L105 155M455 175L465 185M245 155L255 165L265 165L275 165L285 165L295 165L305 175L315 185L325 185L335 185L345 185L355 185M415 175L425 185L435 185L445 185L455 185M-5 135L5 135L15 135L25 145L35 145L45 145L55 145L65 145L75 145L85 145L95 145L105 145L115 145L125 145L135 155L145 155L155 155L165 155L175 155L185 155L195 155L205 155L215 155L225 155L235 155L245 155L255 155L265 155L275 145L285 145L295 155L305 155L315 155L325 155L335 155L345 155L355 165L365 165L375 165L385 165L395 175L405 175L415 175L425 175L435 175L445 175L455 175L465 175L475 175L485 175L495 185" stroke="rgba(2, 161, 182, 1)" stroke-width="1.67"></path><path d="M492.5 185 a2.5 2.5 0 1 0 5 0 a2.5 2.5 0 1 0 -5 0zM12.5 145 a2.5 2.5 0 1 0 5 0 a2.5 2.5 0 1 0 -5 0zM402.5 185 a2.5 2.5 0 1 0 5 0 a2.5 2.5 0 1 0 -5 0zM382.5 155 a2.5 2.5 0 1 0 5 0 a2.5 2.5 0 1 0 -5 0zM482.5 185 a2.5 2.5 0 1 0 5 0 a2.5 2.5 0 1 0 -5 0zM222.5 165 a2.5 2.5 0 1 0 5 0 a2.5 2.5 0 1 0 -5 0zM332.5 175 a2.5 2.5 0 1 0 5 0 a2.5 2.5 0 1 0 -5 0zM162.5 165 a2.5 2.5 0 1 0 5 0 a2.5 2.5 0 1 0 -5 0zM362.5 155 a2.5 2.5 0 1 0 5 0 a2.5 2.5 0 1 0 -5 0zM102.5 155 a2.5 2.5 0 1 0 5 0 a2.5 2.5 0 1 0 -5 0zM462.5 185 a2.5 2.5 0 1 0 5 0 a2.5 2.5 0 1 0 -5 0zM352.5 185 a2.5 2.5 0 1 0 5 0 a2.5 2.5 0 1 0 -5 0zM452.5 185 a2.5 2.5 0 1 0 5 0 a2.5 2.5 0 1 0 -5 0z" fill="rgba(2, 161, 182, 1)"></path><path d="M175 35L185 25L195 25L205 25L215 25M105 45L115 35M45 55L55 55L65 55M165 35L175 25M125 45L135 35M25 65L35 65M145 35L155 25L165 25M-5 65L5 65L15 65L25 65L35 55L45 55L55 65L65 65L75 55L85 55L95 55L105 45L115 45L125 45L135 45L145 35L155 35L165 35L175 35L185 35L195 35L205 35L215 35L225 35L235 25L245 25L255 25L265 25L275 25L285 25" stroke="rgba(0, 184, 171, 1)" stroke-width="1.67"></path><path d="M282.5 25 a2.5 2.5 0 1 0 5 0 a2.5 2.5 0 1 0 -5 0zM212.5 25 a2.5 2.5 0 1 0 5 0 a2.5 2.5 0 1 0 -5 0zM112.5 35 a2.5 2.5 0 1 0 5 0 a2.5 2.5 0 1 0 -5 0zM62.5 55 a2.5 2.5 0 1 0 5 0 a2.5 2.5 0 1 0 -5 0zM172.5 25 a2.5 2.5 0 1 0 5 0 a2.5 2.5 0 1 0 -5 0zM132.5 35 a2.5 2.5 0 1 0 5 0 a2.5 2.5 0 1 0 -5 0zM32.5 65 a2.5 2.5 0 1 0 5 0 a2.5 2.5 0 1 0 -5 0zM162.5 25 a2.5 2.5 0 1 0 5 0 a2.5 2.5 0 1 0 -5 0z" fill="rgba(0, 184, 171, 1)"></path><path d="M5 155L15 165L25 165M45 155L55 165L65 165L75 165L85 165M35 155L45 165M-5 145L5 155L15 155L25 155L35 155L45 155L55 155L65 155" stroke="rgba(2, 161, 182, 1)" stroke-width="1.67"></path><path d="M62.5 155 a2.5 2.5 0 1 0 5 0 a2.5 2.5 0 1 0 -5 0zM22.5 165 a2.5 2.5 0 1 0 5 0 a2.5 2.5 0 1 0 -5 0zM82.5 165 a2.5 2.5 0 1 0 5 0 a2.5 2.5 0 1 0 -5 0zM42.5 165 a2.5 2.5 0 1 0 5 0 a2.5 2.5 0 1 0 -5 0z" fill="rgba(2, 161, 182, 1)"></path><path d="M15 55L25 45L35 35M55 45L65 35L75 25L85 25L95 35M5 55L15 45L25 35L35 25L45 25M-5 55L5 55L15 55L25 55L35 45L45 45L55 45L65 45L75 45L85 45L95 45" stroke="rgba(0, 184, 171, 1)" stroke-width="1.67"></path><path d="M92.5 45 a2.5 2.5 0 1 0 5 0 a2.5 2.5 0 1 0 -5 0zM32.5 35 a2.5 2.5 0 1 0 5 0 a2.5 2.5 0 1 0 -5 0zM92.5 35 a2.5 2.5 0 1 0 5 0 a2.5 2.5 0 1 0 -5 0zM42.5 25 a2.5 2.5 0 1 0 5 0 a2.5 2.5 0 1 0 -5 0z" fill="rgba(0, 184, 171, 1)"></path></g></g><defs><mask id="SvgjsMask2565"><rect width="640" height="200" fill="#ffffff"></rect></mask><linearGradient x1="100%" y1="50%" x2="0%" y2="50%" gradientUnits="userSpaceOnUse" id="SvgjsLinearGradient2566"><stop stop-color="rgba(6, 12, 15, 1)" offset="0.51"></stop><stop stop-color="rgba(2, 161, 182, 0.6509803921568628)" offset="1"></stop></linearGradient><mask id="SvgjsMask2567"><rect width="640" height="200" fill="white"></rect><path d="M183.75 95 a1.25 1.25 0 1 0 2.5 0 a1.25 1.25 0 1 0 -2.5 0zM43.75 115 a1.25 1.25 0 1 0 2.5 0 a1.25 1.25 0 1 0 -2.5 0zM193.75 105 a1.25 1.25 0 1 0 2.5 0 a1.25 1.25 0 1 0 -2.5 0zM203.75 115 a1.25 1.25 0 1 0 2.5 0 a1.25 1.25 0 1 0 -2.5 0zM183.75 85 a1.25 1.25 0 1 0 2.5 0 a1.25 1.25 0 1 0 -2.5 0zM153.75 115 a1.25 1.25 0 1 0 2.5 0 a1.25 1.25 0 1 0 -2.5 0z" fill="black"></path><path d="M213.75 75 a1.25 1.25 0 1 0 2.5 0 a1.25 1.25 0 1 0 -2.5 0zM213.75 65 a1.25 1.25 0 1 0 2.5 0 a1.25 1.25 0 1 0 -2.5 0zM173.75 75 a1.25 1.25 0 1 0 2.5 0 a1.25 1.25 0 1 0 -2.5 0zM223.75 85 a1.25 1.25 0 1 0 2.5 0 a1.25 1.25 0 1 0 -2.5 0zM183.75 65 a1.25 1.25 0 1 0 2.5 0 a1.25 1.25 0 1 0 -2.5 0zM153.75 75 a1.25 1.25 0 1 0 2.5 0 a1.25 1.25 0 1 0 -2.5 0z" fill="black"></path><path d="M373.75 25 a1.25 1.25 0 1 0 2.5 0 a1.25 1.25 0 1 0 -2.5 0zM353.75 45 a1.25 1.25 0 1 0 2.5 0 a1.25 1.25 0 1 0 -2.5 0zM363.75 35 a1.25 1.25 0 1 0 2.5 0 a1.25 1.25 0 1 0 -2.5 0zM103.75 75 a1.25 1.25 0 1 0 2.5 0 a1.25 1.25 0 1 0 -2.5 0zM343.75 35 a1.25 1.25 0 1 0 2.5 0 a1.25 1.25 0 1 0 -2.5 0zM323.75 65 a1.25 1.25 0 1 0 2.5 0 a1.25 1.25 0 1 0 -2.5 0zM333.75 75 a1.25 1.25 0 1 0 2.5 0 a1.25 1.25 0 1 0 -2.5 0zM313.75 45 a1.25 1.25 0 1 0 2.5 0 a1.25 1.25 0 1 0 -2.5 0zM303.75 45 a1.25 1.25 0 1 0 2.5 0 a1.25 1.25 0 1 0 -2.5 0zM333.75 35 a1.25 1.25 0 1 0 2.5 0 a1.25 1.25 0 1 0 -2.5 0z" fill="black"></path><path d="M563.75 145 a1.25 1.25 0 1 0 2.5 0 a1.25 1.25 0 1 0 -2.5 0zM363.75 135 a1.25 1.25 0 1 0 2.5 0 a1.25 1.25 0 1 0 -2.5 0zM533.75 145 a1.25 1.25 0 1 0 2.5 0 a1.25 1.25 0 1 0 -2.5 0zM223.75 135 a1.25 1.25 0 1 0 2.5 0 a1.25 1.25 0 1 0 -2.5 0zM463.75 165 a1.25 1.25 0 1 0 2.5 0 a1.25 1.25 0 1 0 -2.5 0zM263.75 145 a1.25 1.25 0 1 0 2.5 0 a1.25 1.25 0 1 0 -2.5 0zM623.75 135 a1.25 1.25 0 1 0 2.5 0 a1.25 1.25 0 1 0 -2.5 0zM233.75 125 a1.25 1.25 0 1 0 2.5 0 a1.25 1.25 0 1 0 -2.5 0zM563.75 155 a1.25 1.25 0 1 0 2.5 0 a1.25 1.25 0 1 0 -2.5 0zM323.75 125 a1.25 1.25 0 1 0 2.5 0 a1.25 1.25 0 1 0 -2.5 0zM453.75 165 a1.25 1.25 0 1 0 2.5 0 a1.25 1.25 0 1 0 -2.5 0zM113.75 105 a1.25 1.25 0 1 0 2.5 0 a1.25 1.25 0 1 0 -2.5 0zM563.75 125 a1.25 1.25 0 1 0 2.5 0 a1.25 1.25 0 1 0 -2.5 0zM623.75 105 a1.25 1.25 0 1 0 2.5 0 a1.25 1.25 0 1 0 -2.5 0zM483.75 135 a1.25 1.25 0 1 0 2.5 0 a1.25 1.25 0 1 0 -2.5 0z" fill="black"></path><path d="M323.75 25 a1.25 1.25 0 1 0 2.5 0 a1.25 1.25 0 1 0 -2.5 0zM43.75 65 a1.25 1.25 0 1 0 2.5 0 a1.25 1.25 0 1 0 -2.5 0z" fill="black"></path><path d="M493.75 185 a1.25 1.25 0 1 0 2.5 0 a1.25 1.25 0 1 0 -2.5 0zM13.75 145 a1.25 1.25 0 1 0 2.5 0 a1.25 1.25 0 1 0 -2.5 0zM403.75 185 a1.25 1.25 0 1 0 2.5 0 a1.25 1.25 0 1 0 -2.5 0zM383.75 155 a1.25 1.25 0 1 0 2.5 0 a1.25 1.25 0 1 0 -2.5 0zM483.75 185 a1.25 1.25 0 1 0 2.5 0 a1.25 1.25 0 1 0 -2.5 0zM223.75 165 a1.25 1.25 0 1 0 2.5 0 a1.25 1.25 0 1 0 -2.5 0zM333.75 175 a1.25 1.25 0 1 0 2.5 0 a1.25 1.25 0 1 0 -2.5 0zM163.75 165 a1.25 1.25 0 1 0 2.5 0 a1.25 1.25 0 1 0 -2.5 0zM363.75 155 a1.25 1.25 0 1 0 2.5 0 a1.25 1.25 0 1 0 -2.5 0zM103.75 155 a1.25 1.25 0 1 0 2.5 0 a1.25 1.25 0 1 0 -2.5 0zM463.75 185 a1.25 1.25 0 1 0 2.5 0 a1.25 1.25 0 1 0 -2.5 0zM353.75 185 a1.25 1.25 0 1 0 2.5 0 a1.25 1.25 0 1 0 -2.5 0zM453.75 185 a1.25 1.25 0 1 0 2.5 0 a1.25 1.25 0 1 0 -2.5 0z" fill="black"></path><path d="M283.75 25 a1.25 1.25 0 1 0 2.5 0 a1.25 1.25 0 1 0 -2.5 0zM213.75 25 a1.25 1.25 0 1 0 2.5 0 a1.25 1.25 0 1 0 -2.5 0zM113.75 35 a1.25 1.25 0 1 0 2.5 0 a1.25 1.25 0 1 0 -2.5 0zM63.75 55 a1.25 1.25 0 1 0 2.5 0 a1.25 1.25 0 1 0 -2.5 0zM173.75 25 a1.25 1.25 0 1 0 2.5 0 a1.25 1.25 0 1 0 -2.5 0zM133.75 35 a1.25 1.25 0 1 0 2.5 0 a1.25 1.25 0 1 0 -2.5 0zM33.75 65 a1.25 1.25 0 1 0 2.5 0 a1.25 1.25 0 1 0 -2.5 0zM163.75 25 a1.25 1.25 0 1 0 2.5 0 a1.25 1.25 0 1 0 -2.5 0z" fill="black"></path><path d="M63.75 155 a1.25 1.25 0 1 0 2.5 0 a1.25 1.25 0 1 0 -2.5 0zM23.75 165 a1.25 1.25 0 1 0 2.5 0 a1.25 1.25 0 1 0 -2.5 0zM83.75 165 a1.25 1.25 0 1 0 2.5 0 a1.25 1.25 0 1 0 -2.5 0zM43.75 165 a1.25 1.25 0 1 0 2.5 0 a1.25 1.25 0 1 0 -2.5 0z" fill="black"></path><path d="M93.75 45 a1.25 1.25 0 1 0 2.5 0 a1.25 1.25 0 1 0 -2.5 0zM33.75 35 a1.25 1.25 0 1 0 2.5 0 a1.25 1.25 0 1 0 -2.5 0zM93.75 35 a1.25 1.25 0 1 0 2.5 0 a1.25 1.25 0 1 0 -2.5 0zM43.75 25 a1.25 1.25 0 1 0 2.5 0 a1.25 1.25 0 1 0 -2.5 0z" fill="black"></path></mask></defs></svg>