<svg xmlns="http://www.w3.org/2000/svg" version="1.1" xmlns:xlink="http://www.w3.org/1999/xlink" xmlns:svgjs="http://svgjs.dev/svgjs" width="800" height="500" preserveAspectRatio="none" viewBox="0 0 800 500"><g mask="url(&quot;#SvgjsMask1388&quot;)" fill="none"><rect width="800" height="500" x="0" y="0" fill="rgba(6, 12, 15, 1)"></rect><path d="M41.87 145.9L76.51 165.9L76.51 205.9L41.87 225.9L7.23 205.9L7.23 165.9zM7.23 205.9L41.87 225.9L41.87 265.9L7.23 285.9L-27.41 265.9L-27.41 225.9zM7.23 445.9L41.87 465.9L41.87 505.9L7.23 525.9L-27.41 505.9L-27.41 465.9zM145.8 205.9L180.44 225.9L180.44 265.9L145.8 285.9L111.16 265.9L111.16 225.9zM180.44 265.9L215.08 285.9L215.08 325.9L180.44 345.9L145.8 325.9L145.8 285.9zM249.72 265.9L284.37 285.9L284.37 325.9L249.72 345.9L215.08 325.9L215.08 285.9zM215.08 325.9L249.72 345.9L249.72 385.9L215.08 405.9L180.44 385.9L180.44 345.9zM353.65 205.9L388.29 225.9L388.29 265.9L353.65 285.9L319.01 265.9L319.01 225.9zM388.29 265.9L422.93 285.9L422.93 325.9L388.29 345.9L353.65 325.9L353.65 285.9zM388.29 385.9L422.93 405.9L422.93 445.9L388.29 465.9L353.65 445.9L353.65 405.9zM422.93 325.9L457.58 345.9L457.58 385.9L422.93 405.9L388.29 385.9L388.29 345.9zM596.14 265.9L630.79 285.9L630.79 325.9L596.14 345.9L561.5 325.9L561.5 285.9zM596.14 385.9L630.79 405.9L630.79 445.9L596.14 465.9L561.5 445.9L561.5 405.9zM665.43 25.9L700.07 45.9L700.07 85.9L665.43 105.9L630.79 85.9L630.79 45.9zM630.79 85.9L665.43 105.9L665.43 145.9L630.79 165.9L596.14 145.9L596.14 105.9zM630.79 205.9L665.43 225.9L665.43 265.9L630.79 285.9L596.14 265.9L596.14 225.9zM630.79 445.9L665.43 465.9L665.43 505.9L630.79 525.9L596.14 505.9L596.14 465.9zM734.71 265.9L769.35 285.9L769.35 325.9L734.71 345.9L700.07 325.9L700.07 285.9zM700.07 325.9L734.71 345.9L734.71 385.9L700.07 405.9L665.43 385.9L665.43 345.9zM734.71 385.9L769.35 405.9L769.35 445.9L734.71 465.9L700.07 445.9L700.07 405.9zM769.35 445.9L804 465.9L804 505.9L769.35 525.9L734.71 505.9L734.71 465.9z" stroke="rgba(0, 184, 171, 0.61)" stroke-width="2"></path><path d="M37.87 145.9 a4 4 0 1 0 8 0 a4 4 0 1 0 -8 0zM72.51 165.9 a4 4 0 1 0 8 0 a4 4 0 1 0 -8 0zM72.51 205.9 a4 4 0 1 0 8 0 a4 4 0 1 0 -8 0zM37.87 225.9 a4 4 0 1 0 8 0 a4 4 0 1 0 -8 0zM3.23 205.9 a4 4 0 1 0 8 0 a4 4 0 1 0 -8 0zM3.23 165.9 a4 4 0 1 0 8 0 a4 4 0 1 0 -8 0zM37.87 265.9 a4 4 0 1 0 8 0 a4 4 0 1 0 -8 0zM3.23 285.9 a4 4 0 1 0 8 0 a4 4 0 1 0 -8 0zM-31.41 265.9 a4 4 0 1 0 8 0 a4 4 0 1 0 -8 0zM-31.41 225.9 a4 4 0 1 0 8 0 a4 4 0 1 0 -8 0zM3.23 445.9 a4 4 0 1 0 8 0 a4 4 0 1 0 -8 0zM37.87 465.9 a4 4 0 1 0 8 0 a4 4 0 1 0 -8 0zM37.87 505.9 a4 4 0 1 0 8 0 a4 4 0 1 0 -8 0zM3.23 525.9 a4 4 0 1 0 8 0 a4 4 0 1 0 -8 0zM-31.41 505.9 a4 4 0 1 0 8 0 a4 4 0 1 0 -8 0zM-31.41 465.9 a4 4 0 1 0 8 0 a4 4 0 1 0 -8 0zM141.8 205.9 a4 4 0 1 0 8 0 a4 4 0 1 0 -8 0zM176.44 225.9 a4 4 0 1 0 8 0 a4 4 0 1 0 -8 0zM176.44 265.9 a4 4 0 1 0 8 0 a4 4 0 1 0 -8 0zM141.8 285.9 a4 4 0 1 0 8 0 a4 4 0 1 0 -8 0zM107.16 265.9 a4 4 0 1 0 8 0 a4 4 0 1 0 -8 0zM107.16 225.9 a4 4 0 1 0 8 0 a4 4 0 1 0 -8 0zM211.08 285.9 a4 4 0 1 0 8 0 a4 4 0 1 0 -8 0zM211.08 325.9 a4 4 0 1 0 8 0 a4 4 0 1 0 -8 0zM176.44 345.9 a4 4 0 1 0 8 0 a4 4 0 1 0 -8 0zM141.8 325.9 a4 4 0 1 0 8 0 a4 4 0 1 0 -8 0zM245.72 265.9 a4 4 0 1 0 8 0 a4 4 0 1 0 -8 0zM280.37 285.9 a4 4 0 1 0 8 0 a4 4 0 1 0 -8 0zM280.37 325.9 a4 4 0 1 0 8 0 a4 4 0 1 0 -8 0zM245.72 345.9 a4 4 0 1 0 8 0 a4 4 0 1 0 -8 0zM245.72 385.9 a4 4 0 1 0 8 0 a4 4 0 1 0 -8 0zM211.08 405.9 a4 4 0 1 0 8 0 a4 4 0 1 0 -8 0zM176.44 385.9 a4 4 0 1 0 8 0 a4 4 0 1 0 -8 0zM349.65 205.9 a4 4 0 1 0 8 0 a4 4 0 1 0 -8 0zM384.29 225.9 a4 4 0 1 0 8 0 a4 4 0 1 0 -8 0zM384.29 265.9 a4 4 0 1 0 8 0 a4 4 0 1 0 -8 0zM349.65 285.9 a4 4 0 1 0 8 0 a4 4 0 1 0 -8 0zM315.01 265.9 a4 4 0 1 0 8 0 a4 4 0 1 0 -8 0zM315.01 225.9 a4 4 0 1 0 8 0 a4 4 0 1 0 -8 0zM418.93 285.9 a4 4 0 1 0 8 0 a4 4 0 1 0 -8 0zM418.93 325.9 a4 4 0 1 0 8 0 a4 4 0 1 0 -8 0zM384.29 345.9 a4 4 0 1 0 8 0 a4 4 0 1 0 -8 0zM349.65 325.9 a4 4 0 1 0 8 0 a4 4 0 1 0 -8 0zM384.29 385.9 a4 4 0 1 0 8 0 a4 4 0 1 0 -8 0zM418.93 405.9 a4 4 0 1 0 8 0 a4 4 0 1 0 -8 0zM418.93 445.9 a4 4 0 1 0 8 0 a4 4 0 1 0 -8 0zM384.29 465.9 a4 4 0 1 0 8 0 a4 4 0 1 0 -8 0zM349.65 445.9 a4 4 0 1 0 8 0 a4 4 0 1 0 -8 0zM349.65 405.9 a4 4 0 1 0 8 0 a4 4 0 1 0 -8 0zM453.58 345.9 a4 4 0 1 0 8 0 a4 4 0 1 0 -8 0zM453.58 385.9 a4 4 0 1 0 8 0 a4 4 0 1 0 -8 0zM592.14 265.9 a4 4 0 1 0 8 0 a4 4 0 1 0 -8 0zM626.79 285.9 a4 4 0 1 0 8 0 a4 4 0 1 0 -8 0zM626.79 325.9 a4 4 0 1 0 8 0 a4 4 0 1 0 -8 0zM592.14 345.9 a4 4 0 1 0 8 0 a4 4 0 1 0 -8 0zM557.5 325.9 a4 4 0 1 0 8 0 a4 4 0 1 0 -8 0zM557.5 285.9 a4 4 0 1 0 8 0 a4 4 0 1 0 -8 0zM592.14 385.9 a4 4 0 1 0 8 0 a4 4 0 1 0 -8 0zM626.79 405.9 a4 4 0 1 0 8 0 a4 4 0 1 0 -8 0zM626.79 445.9 a4 4 0 1 0 8 0 a4 4 0 1 0 -8 0zM592.14 465.9 a4 4 0 1 0 8 0 a4 4 0 1 0 -8 0zM557.5 445.9 a4 4 0 1 0 8 0 a4 4 0 1 0 -8 0zM557.5 405.9 a4 4 0 1 0 8 0 a4 4 0 1 0 -8 0zM661.43 25.9 a4 4 0 1 0 8 0 a4 4 0 1 0 -8 0zM696.07 45.9 a4 4 0 1 0 8 0 a4 4 0 1 0 -8 0zM696.07 85.9 a4 4 0 1 0 8 0 a4 4 0 1 0 -8 0zM661.43 105.9 a4 4 0 1 0 8 0 a4 4 0 1 0 -8 0zM626.79 85.9 a4 4 0 1 0 8 0 a4 4 0 1 0 -8 0zM626.79 45.9 a4 4 0 1 0 8 0 a4 4 0 1 0 -8 0zM661.43 145.9 a4 4 0 1 0 8 0 a4 4 0 1 0 -8 0zM626.79 165.9 a4 4 0 1 0 8 0 a4 4 0 1 0 -8 0zM592.14 145.9 a4 4 0 1 0 8 0 a4 4 0 1 0 -8 0zM592.14 105.9 a4 4 0 1 0 8 0 a4 4 0 1 0 -8 0zM626.79 205.9 a4 4 0 1 0 8 0 a4 4 0 1 0 -8 0zM661.43 225.9 a4 4 0 1 0 8 0 a4 4 0 1 0 -8 0zM661.43 265.9 a4 4 0 1 0 8 0 a4 4 0 1 0 -8 0zM592.14 225.9 a4 4 0 1 0 8 0 a4 4 0 1 0 -8 0zM661.43 465.9 a4 4 0 1 0 8 0 a4 4 0 1 0 -8 0zM661.43 505.9 a4 4 0 1 0 8 0 a4 4 0 1 0 -8 0zM626.79 525.9 a4 4 0 1 0 8 0 a4 4 0 1 0 -8 0zM592.14 505.9 a4 4 0 1 0 8 0 a4 4 0 1 0 -8 0zM730.71 265.9 a4 4 0 1 0 8 0 a4 4 0 1 0 -8 0zM765.35 285.9 a4 4 0 1 0 8 0 a4 4 0 1 0 -8 0zM765.35 325.9 a4 4 0 1 0 8 0 a4 4 0 1 0 -8 0zM730.71 345.9 a4 4 0 1 0 8 0 a4 4 0 1 0 -8 0zM696.07 325.9 a4 4 0 1 0 8 0 a4 4 0 1 0 -8 0zM696.07 285.9 a4 4 0 1 0 8 0 a4 4 0 1 0 -8 0zM730.71 385.9 a4 4 0 1 0 8 0 a4 4 0 1 0 -8 0zM696.07 405.9 a4 4 0 1 0 8 0 a4 4 0 1 0 -8 0zM661.43 385.9 a4 4 0 1 0 8 0 a4 4 0 1 0 -8 0zM661.43 345.9 a4 4 0 1 0 8 0 a4 4 0 1 0 -8 0zM765.35 405.9 a4 4 0 1 0 8 0 a4 4 0 1 0 -8 0zM765.35 445.9 a4 4 0 1 0 8 0 a4 4 0 1 0 -8 0zM730.71 465.9 a4 4 0 1 0 8 0 a4 4 0 1 0 -8 0zM696.07 445.9 a4 4 0 1 0 8 0 a4 4 0 1 0 -8 0zM800 465.9 a4 4 0 1 0 8 0 a4 4 0 1 0 -8 0zM800 505.9 a4 4 0 1 0 8 0 a4 4 0 1 0 -8 0zM765.35 525.9 a4 4 0 1 0 8 0 a4 4 0 1 0 -8 0zM730.71 505.9 a4 4 0 1 0 8 0 a4 4 0 1 0 -8 0z" fill="rgba(0, 184, 171, 0.61)"></path><path d="M38.42 -5.31L73.06 14.69L73.06 54.69L38.42 74.69L3.78 54.69L3.78 14.69zM38.42 354.69L73.06 374.69L73.06 414.69L38.42 434.69L3.78 414.69L3.78 374.69zM73.06 414.69L107.7 434.69L107.7 474.69L73.06 494.69L38.42 474.69L38.42 434.69zM38.42 474.69L73.06 494.69L73.06 534.69L38.42 554.69L3.78 534.69L3.78 494.69zM142.35 294.69L176.99 314.69L176.99 354.69L142.35 374.69L107.7 354.69L107.7 314.69zM176.99 234.69L211.63 254.69L211.63 294.69L176.99 314.69L142.35 294.69L142.35 254.69zM211.63 414.69L246.27 434.69L246.27 474.69L211.63 494.69L176.99 474.69L176.99 434.69zM280.91 294.69L315.56 314.69L315.56 354.69L280.91 374.69L246.27 354.69L246.27 314.69zM419.48 294.69L454.12 314.69L454.12 354.69L419.48 374.69L384.84 354.69L384.84 314.69zM523.41 -5.31L558.05 14.69L558.05 54.69L523.41 74.69L488.77 54.69L488.77 14.69zM558.05 174.69L592.69 194.69L592.69 234.69L558.05 254.69L523.41 234.69L523.41 194.69zM696.62 294.69L731.26 314.69L731.26 354.69L696.62 374.69L661.98 354.69L661.98 314.69zM661.98 354.69L696.62 374.69L696.62 414.69L661.98 434.69L627.33 414.69L627.33 374.69zM731.26 234.69L765.9 254.69L765.9 294.69L731.26 314.69L696.62 294.69L696.62 254.69zM835.19 174.69L869.83 194.69L869.83 234.69L835.19 254.69L800.54 234.69L800.54 194.69z" stroke="rgba(2, 161, 182, 0.63)" stroke-width="2"></path></g><defs><mask id="SvgjsMask1388"><rect width="800" height="500" fill="#ffffff"></rect></mask></defs></svg>