<svg xmlns="http://www.w3.org/2000/svg" version="1.1" xmlns:xlink="http://www.w3.org/1999/xlink" xmlns:svgjs="http://svgjs.dev/svgjs" width="700" height="600" preserveAspectRatio="none" viewBox="0 0 700 600"><g mask="url(&quot;#SvgjsMask1128&quot;)" fill="none"><rect width="700" height="600" x="0" y="0" fill="url(&quot;#SvgjsRadialGradient1129&quot;)"></rect><path d="M-37.88 394.57L-37.88 394.57" stroke="rgba(0, 184, 171, 0.71)" stroke-width="1.5"></path><path d="M-37.88 394.57L45.79 394.74" stroke="rgba(0, 184, 171, 0.71)" stroke-width="1.5"></path><path d="M-36.57 489.13L-36.57 489.13" stroke="rgba(0, 184, 171, 0.71)" stroke-width="1.5"></path><path d="M-36.57 489.13L27.59 494.51" stroke="rgba(0, 184, 171, 0.71)" stroke-width="1.5"></path><path d="M-36.57 489.13L-37.88 394.57" stroke="rgba(0, 184, 171, 0.71)" stroke-width="1.5"></path><path d="M-36.57 489.13L-60.33 584.62" stroke="rgba(0, 184, 171, 0.71)" stroke-width="1.5"></path><path d="M-36.57 489.13L52.08 575.86" stroke="rgba(0, 184, 171, 0.71)" stroke-width="1.5"></path><path d="M-36.57 489.13L45.79 394.74" stroke="rgba(0, 184, 171, 0.71)" stroke-width="1.5"></path><path d="M-60.33 584.62L-60.33 584.62" stroke="rgba(0, 184, 171, 0.71)" stroke-width="1.5"></path><path d="M-60.33 584.62L-45.71 652.66" stroke="rgba(0, 184, 171, 0.71)" stroke-width="1.5"></path><path d="M-60.33 584.62L52.08 575.86" stroke="rgba(0, 184, 171, 0.71)" stroke-width="1.5"></path><path d="M-60.33 584.62L44.17 645.66" stroke="rgba(0, 184, 171, 0.71)" stroke-width="1.5"></path><path d="M-60.33 584.62L27.59 494.51" stroke="rgba(0, 184, 171, 0.71)" stroke-width="1.5"></path><path d="M-45.71 652.66L-45.71 652.66" stroke="rgba(0, 184, 171, 0.71)" stroke-width="1.5"></path><path d="M-45.71 652.66L44.17 645.66" stroke="rgba(0, 184, 171, 0.71)" stroke-width="1.5"></path><path d="M-45.71 652.66L52.08 575.86" stroke="rgba(0, 184, 171, 0.71)" stroke-width="1.5"></path><path d="M-45.71 652.66L-36.57 489.13" stroke="rgba(0, 184, 171, 0.71)" stroke-width="1.5"></path><path d="M45.79 394.74L45.79 394.74" stroke="rgba(0, 184, 171, 0.71)" stroke-width="1.5"></path><path d="M45.79 394.74L130.48 373.64" stroke="rgba(0, 184, 171, 0.71)" stroke-width="1.5"></path><path d="M27.59 494.51L27.59 494.51" stroke="rgba(0, 184, 171, 0.71)" stroke-width="1.5"></path><path d="M27.59 494.51L52.08 575.86" stroke="rgba(0, 184, 171, 0.71)" stroke-width="1.5"></path><path d="M27.59 494.51L113.65 460.7" stroke="rgba(0, 184, 171, 0.71)" stroke-width="1.5"></path><path d="M52.08 575.86L52.08 575.86" stroke="rgba(0, 184, 171, 0.71)" stroke-width="1.5"></path><path d="M52.08 575.86L44.17 645.66" stroke="rgba(0, 184, 171, 0.71)" stroke-width="1.5"></path><path d="M52.08 575.86L113.65 460.7" stroke="rgba(0, 184, 171, 0.71)" stroke-width="1.5"></path><path d="M44.17 645.66L44.17 645.66" stroke="rgba(0, 184, 171, 0.71)" stroke-width="1.5"></path><path d="M44.17 645.66L27.59 494.51" stroke="rgba(0, 184, 171, 0.71)" stroke-width="1.5"></path><path d="M44.17 645.66L201.66 661.58" stroke="rgba(0, 184, 171, 0.71)" stroke-width="1.5"></path><path d="M130.48 373.64L130.48 373.64" stroke="rgba(0, 184, 171, 0.71)" stroke-width="1.5"></path><path d="M130.48 373.64L113.65 460.7" stroke="rgba(0, 184, 171, 0.71)" stroke-width="1.5"></path><path d="M113.65 460.7L113.65 460.7" stroke="rgba(0, 184, 171, 0.71)" stroke-width="1.5"></path><path d="M113.65 460.7L45.79 394.74" stroke="rgba(0, 184, 171, 0.71)" stroke-width="1.5"></path><path d="M207.4 319.81L207.4 319.81" stroke="rgba(0, 184, 171, 0.71)" stroke-width="1.5"></path><path d="M207.4 319.81L214.86 403.94" stroke="rgba(0, 184, 171, 0.71)" stroke-width="1.5"></path><path d="M207.4 319.81L130.48 373.64" stroke="rgba(0, 184, 171, 0.71)" stroke-width="1.5"></path><path d="M207.4 319.81L113.65 460.7" stroke="rgba(0, 184, 171, 0.71)" stroke-width="1.5"></path><path d="M207.4 319.81L203.88 492.93" stroke="rgba(0, 184, 171, 0.71)" stroke-width="1.5"></path><path d="M207.4 319.81L45.79 394.74" stroke="rgba(0, 184, 171, 0.71)" stroke-width="1.5"></path><path d="M214.86 403.94L214.86 403.94" stroke="rgba(0, 184, 171, 0.71)" stroke-width="1.5"></path><path d="M214.86 403.94L130.48 373.64" stroke="rgba(0, 184, 171, 0.71)" stroke-width="1.5"></path><path d="M214.86 403.94L203.88 492.93" stroke="rgba(0, 184, 171, 0.71)" stroke-width="1.5"></path><path d="M203.88 492.93L203.88 492.93" stroke="rgba(0, 184, 171, 0.71)" stroke-width="1.5"></path><path d="M203.88 492.93L238.41 562.35" stroke="rgba(0, 184, 171, 0.71)" stroke-width="1.5"></path><path d="M238.41 562.35L238.41 562.35" stroke="rgba(0, 184, 171, 0.71)" stroke-width="1.5"></path><path d="M238.41 562.35L305.46 587.01" stroke="rgba(0, 184, 171, 0.71)" stroke-width="1.5"></path><path d="M238.41 562.35L305.59 487.42" stroke="rgba(0, 184, 171, 0.71)" stroke-width="1.5"></path><path d="M201.66 661.58L201.66 661.58" stroke="rgba(0, 184, 171, 0.71)" stroke-width="1.5"></path><path d="M201.66 661.58L238.41 562.35" stroke="rgba(0, 184, 171, 0.71)" stroke-width="1.5"></path><path d="M201.66 661.58L319.23 666.07" stroke="rgba(0, 184, 171, 0.71)" stroke-width="1.5"></path><path d="M201.66 661.58L305.46 587.01" stroke="rgba(0, 184, 171, 0.71)" stroke-width="1.5"></path><path d="M305.59 487.42L305.59 487.42" stroke="rgba(0, 184, 171, 0.71)" stroke-width="1.5"></path><path d="M305.59 487.42L378.19 470.87" stroke="rgba(0, 184, 171, 0.71)" stroke-width="1.5"></path><path d="M305.59 487.42L305.46 587.01" stroke="rgba(0, 184, 171, 0.71)" stroke-width="1.5"></path><path d="M305.59 487.42L203.88 492.93" stroke="rgba(0, 184, 171, 0.71)" stroke-width="1.5"></path><path d="M305.59 487.42L214.86 403.94" stroke="rgba(0, 184, 171, 0.71)" stroke-width="1.5"></path><path d="M305.59 487.42L393.13 392.76" stroke="rgba(0, 184, 171, 0.71)" stroke-width="1.5"></path><path d="M305.46 587.01L305.46 587.01" stroke="rgba(0, 184, 171, 0.71)" stroke-width="1.5"></path><path d="M305.46 587.01L319.23 666.07" stroke="rgba(0, 184, 171, 0.71)" stroke-width="1.5"></path><path d="M305.46 587.01L376.83 653.59" stroke="rgba(0, 184, 171, 0.71)" stroke-width="1.5"></path><path d="M305.46 587.01L411.03 583.02" stroke="rgba(0, 184, 171, 0.71)" stroke-width="1.5"></path><path d="M319.23 666.07L319.23 666.07" stroke="rgba(0, 184, 171, 0.71)" stroke-width="1.5"></path><path d="M319.23 666.07L376.83 653.59" stroke="rgba(0, 184, 171, 0.71)" stroke-width="1.5"></path><path d="M319.23 666.07L411.03 583.02" stroke="rgba(0, 184, 171, 0.71)" stroke-width="1.5"></path><path d="M398.69 144.34L398.69 144.34" stroke="rgba(0, 184, 171, 0.71)" stroke-width="1.5"></path><path d="M398.69 144.34L389.66 209.94" stroke="rgba(0, 184, 171, 0.71)" stroke-width="1.5"></path><path d="M398.69 144.34L481.09 126.69" stroke="rgba(0, 184, 171, 0.71)" stroke-width="1.5"></path><path d="M389.66 209.94L389.66 209.94" stroke="rgba(0, 184, 171, 0.71)" stroke-width="1.5"></path><path d="M389.66 209.94L397.73 295.74" stroke="rgba(0, 184, 171, 0.71)" stroke-width="1.5"></path><path d="M389.66 209.94L483.26 236.05" stroke="rgba(0, 184, 171, 0.71)" stroke-width="1.5"></path><path d="M389.66 209.94L481.09 126.69" stroke="rgba(0, 184, 171, 0.71)" stroke-width="1.5"></path><path d="M397.73 295.74L397.73 295.74" stroke="rgba(0, 184, 171, 0.71)" stroke-width="1.5"></path><path d="M397.73 295.74L487.47 292.78" stroke="rgba(0, 184, 171, 0.71)" stroke-width="1.5"></path><path d="M397.73 295.74L393.13 392.76" stroke="rgba(0, 184, 171, 0.71)" stroke-width="1.5"></path><path d="M397.73 295.74L483.26 236.05" stroke="rgba(0, 184, 171, 0.71)" stroke-width="1.5"></path><path d="M397.73 295.74L476.09 411.21" stroke="rgba(0, 184, 171, 0.71)" stroke-width="1.5"></path><path d="M393.13 392.76L393.13 392.76" stroke="rgba(0, 184, 171, 0.71)" stroke-width="1.5"></path><path d="M393.13 392.76L378.19 470.87" stroke="rgba(0, 184, 171, 0.71)" stroke-width="1.5"></path><path d="M393.13 392.76L476.09 411.21" stroke="rgba(0, 184, 171, 0.71)" stroke-width="1.5"></path><path d="M393.13 392.76L467.65 472.34" stroke="rgba(0, 184, 171, 0.71)" stroke-width="1.5"></path><path d="M378.19 470.87L378.19 470.87" stroke="rgba(0, 184, 171, 0.71)" stroke-width="1.5"></path><path d="M378.19 470.87L467.65 472.34" stroke="rgba(0, 184, 171, 0.71)" stroke-width="1.5"></path><path d="M378.19 470.87L476.09 411.21" stroke="rgba(0, 184, 171, 0.71)" stroke-width="1.5"></path><path d="M411.03 583.02L411.03 583.02" stroke="rgba(0, 184, 171, 0.71)" stroke-width="1.5"></path><path d="M411.03 583.02L376.83 653.59" stroke="rgba(0, 184, 171, 0.71)" stroke-width="1.5"></path><path d="M411.03 583.02L495.45 573.12" stroke="rgba(0, 184, 171, 0.71)" stroke-width="1.5"></path><path d="M376.83 653.59L376.83 653.59" stroke="rgba(0, 184, 171, 0.71)" stroke-width="1.5"></path><path d="M495.24 -29.37L495.24 -29.37" stroke="rgba(0, 184, 171, 0.71)" stroke-width="1.5"></path><path d="M495.24 -29.37L493.16 43.25" stroke="rgba(0, 184, 171, 0.71)" stroke-width="1.5"></path><path d="M495.24 -29.37L572.32 -30.21" stroke="rgba(0, 184, 171, 0.71)" stroke-width="1.5"></path><path d="M493.16 43.25L493.16 43.25" stroke="rgba(0, 184, 171, 0.71)" stroke-width="1.5"></path><path d="M493.16 43.25L481.09 126.69" stroke="rgba(0, 184, 171, 0.71)" stroke-width="1.5"></path><path d="M493.16 43.25L587.31 33.33" stroke="rgba(0, 184, 171, 0.71)" stroke-width="1.5"></path><path d="M493.16 43.25L572.32 -30.21" stroke="rgba(0, 184, 171, 0.71)" stroke-width="1.5"></path><path d="M481.09 126.69L481.09 126.69" stroke="rgba(0, 184, 171, 0.71)" stroke-width="1.5"></path><path d="M483.26 236.05L483.26 236.05" stroke="rgba(0, 184, 171, 0.71)" stroke-width="1.5"></path><path d="M483.26 236.05L487.47 292.78" stroke="rgba(0, 184, 171, 0.71)" stroke-width="1.5"></path><path d="M483.26 236.05L584.65 211.17" stroke="rgba(0, 184, 171, 0.71)" stroke-width="1.5"></path><path d="M483.26 236.05L481.09 126.69" stroke="rgba(0, 184, 171, 0.71)" stroke-width="1.5"></path><path d="M487.47 292.78L487.47 292.78" stroke="rgba(0, 184, 171, 0.71)" stroke-width="1.5"></path><path d="M487.47 292.78L584.69 286.29" stroke="rgba(0, 184, 171, 0.71)" stroke-width="1.5"></path><path d="M487.47 292.78L476.09 411.21" stroke="rgba(0, 184, 171, 0.71)" stroke-width="1.5"></path><path d="M476.09 411.21L476.09 411.21" stroke="rgba(0, 184, 171, 0.71)" stroke-width="1.5"></path><path d="M476.09 411.21L467.65 472.34" stroke="rgba(0, 184, 171, 0.71)" stroke-width="1.5"></path><path d="M476.09 411.21L554.2 473.94" stroke="rgba(0, 184, 171, 0.71)" stroke-width="1.5"></path><path d="M476.09 411.21L581.66 394.42" stroke="rgba(0, 184, 171, 0.71)" stroke-width="1.5"></path><path d="M467.65 472.34L467.65 472.34" stroke="rgba(0, 184, 171, 0.71)" stroke-width="1.5"></path><path d="M467.65 472.34L554.2 473.94" stroke="rgba(0, 184, 171, 0.71)" stroke-width="1.5"></path><path d="M467.65 472.34L495.45 573.12" stroke="rgba(0, 184, 171, 0.71)" stroke-width="1.5"></path><path d="M495.45 573.12L495.45 573.12" stroke="rgba(0, 184, 171, 0.71)" stroke-width="1.5"></path><path d="M495.45 573.12L481.3 637.49" stroke="rgba(0, 184, 171, 0.71)" stroke-width="1.5"></path><path d="M495.45 573.12L584.21 564.92" stroke="rgba(0, 184, 171, 0.71)" stroke-width="1.5"></path><path d="M481.3 637.49L481.3 637.49" stroke="rgba(0, 184, 171, 0.71)" stroke-width="1.5"></path><path d="M481.3 637.49L550.13 651.97" stroke="rgba(0, 184, 171, 0.71)" stroke-width="1.5"></path><path d="M481.3 637.49L411.03 583.02" stroke="rgba(0, 184, 171, 0.71)" stroke-width="1.5"></path><path d="M481.3 637.49L376.83 653.59" stroke="rgba(0, 184, 171, 0.71)" stroke-width="1.5"></path><path d="M572.32 -30.21L572.32 -30.21" stroke="rgba(0, 184, 171, 0.71)" stroke-width="1.5"></path><path d="M572.32 -30.21L587.31 33.33" stroke="rgba(0, 184, 171, 0.71)" stroke-width="1.5"></path><path d="M572.32 -30.21L646.83 -44.95" stroke="rgba(0, 184, 171, 0.71)" stroke-width="1.5"></path><path d="M587.31 33.33L587.31 33.33" stroke="rgba(0, 184, 171, 0.71)" stroke-width="1.5"></path><path d="M587.31 33.33L647.57 46.32" stroke="rgba(0, 184, 171, 0.71)" stroke-width="1.5"></path><path d="M571.66 149.76L571.66 149.76" stroke="rgba(0, 184, 171, 0.71)" stroke-width="1.5"></path><path d="M571.66 149.76L584.65 211.17" stroke="rgba(0, 184, 171, 0.71)" stroke-width="1.5"></path><path d="M571.66 149.76L656.21 118.55" stroke="rgba(0, 184, 171, 0.71)" stroke-width="1.5"></path><path d="M584.65 211.17L584.65 211.17" stroke="rgba(0, 184, 171, 0.71)" stroke-width="1.5"></path><path d="M584.65 211.17L642.96 236.08" stroke="rgba(0, 184, 171, 0.71)" stroke-width="1.5"></path><path d="M584.65 211.17L584.69 286.29" stroke="rgba(0, 184, 171, 0.71)" stroke-width="1.5"></path><path d="M584.69 286.29L584.69 286.29" stroke="rgba(0, 184, 171, 0.71)" stroke-width="1.5"></path><path d="M584.69 286.29L642.96 236.08" stroke="rgba(0, 184, 171, 0.71)" stroke-width="1.5"></path><path d="M584.69 286.29L673.75 326.36" stroke="rgba(0, 184, 171, 0.71)" stroke-width="1.5"></path><path d="M581.66 394.42L581.66 394.42" stroke="rgba(0, 184, 171, 0.71)" stroke-width="1.5"></path><path d="M581.66 394.42L653 375.64" stroke="rgba(0, 184, 171, 0.71)" stroke-width="1.5"></path><path d="M581.66 394.42L554.2 473.94" stroke="rgba(0, 184, 171, 0.71)" stroke-width="1.5"></path><path d="M554.2 473.94L554.2 473.94" stroke="rgba(0, 184, 171, 0.71)" stroke-width="1.5"></path><path d="M554.2 473.94L642.97 468.44" stroke="rgba(0, 184, 171, 0.71)" stroke-width="1.5"></path><path d="M584.21 564.92L584.21 564.92" stroke="rgba(0, 184, 171, 0.71)" stroke-width="1.5"></path><path d="M584.21 564.92L670.57 551.3" stroke="rgba(0, 184, 171, 0.71)" stroke-width="1.5"></path><path d="M584.21 564.92L550.13 651.97" stroke="rgba(0, 184, 171, 0.71)" stroke-width="1.5"></path><path d="M584.21 564.92L554.2 473.94" stroke="rgba(0, 184, 171, 0.71)" stroke-width="1.5"></path><path d="M550.13 651.97L550.13 651.97" stroke="rgba(0, 184, 171, 0.71)" stroke-width="1.5"></path><path d="M550.13 651.97L495.45 573.12" stroke="rgba(0, 184, 171, 0.71)" stroke-width="1.5"></path><path d="M550.13 651.97L672.09 670.73" stroke="rgba(0, 184, 171, 0.71)" stroke-width="1.5"></path><path d="M550.13 651.97L411.03 583.02" stroke="rgba(0, 184, 171, 0.71)" stroke-width="1.5"></path><path d="M550.13 651.97L670.57 551.3" stroke="rgba(0, 184, 171, 0.71)" stroke-width="1.5"></path><path d="M646.83 -44.95L646.83 -44.95" stroke="rgba(0, 184, 171, 0.71)" stroke-width="1.5"></path><path d="M646.83 -44.95L647.57 46.32" stroke="rgba(0, 184, 171, 0.71)" stroke-width="1.5"></path><path d="M646.83 -44.95L587.31 33.33" stroke="rgba(0, 184, 171, 0.71)" stroke-width="1.5"></path><path d="M646.83 -44.95L760.57 -52.05" stroke="rgba(0, 184, 171, 0.71)" stroke-width="1.5"></path><path d="M647.57 46.32L647.57 46.32" stroke="rgba(0, 184, 171, 0.71)" stroke-width="1.5"></path><path d="M647.57 46.32L656.21 118.55" stroke="rgba(0, 184, 171, 0.71)" stroke-width="1.5"></path><path d="M647.57 46.32L722.95 55.3" stroke="rgba(0, 184, 171, 0.71)" stroke-width="1.5"></path><path d="M656.21 118.55L656.21 118.55" stroke="rgba(0, 184, 171, 0.71)" stroke-width="1.5"></path><path d="M656.21 118.55L743.01 116.01" stroke="rgba(0, 184, 171, 0.71)" stroke-width="1.5"></path><path d="M656.21 118.55L722.95 55.3" stroke="rgba(0, 184, 171, 0.71)" stroke-width="1.5"></path><path d="M642.96 236.08L642.96 236.08" stroke="rgba(0, 184, 171, 0.71)" stroke-width="1.5"></path><path d="M642.96 236.08L673.75 326.36" stroke="rgba(0, 184, 171, 0.71)" stroke-width="1.5"></path><path d="M642.96 236.08L739.68 212.23" stroke="rgba(0, 184, 171, 0.71)" stroke-width="1.5"></path><path d="M642.96 236.08L571.66 149.76" stroke="rgba(0, 184, 171, 0.71)" stroke-width="1.5"></path><path d="M673.75 326.36L673.75 326.36" stroke="rgba(0, 184, 171, 0.71)" stroke-width="1.5"></path><path d="M673.75 326.36L653 375.64" stroke="rgba(0, 184, 171, 0.71)" stroke-width="1.5"></path><path d="M673.75 326.36L760.65 285.76" stroke="rgba(0, 184, 171, 0.71)" stroke-width="1.5"></path><path d="M673.75 326.36L581.66 394.42" stroke="rgba(0, 184, 171, 0.71)" stroke-width="1.5"></path><path d="M673.75 326.36L739.68 212.23" stroke="rgba(0, 184, 171, 0.71)" stroke-width="1.5"></path><path d="M653 375.64L653 375.64" stroke="rgba(0, 184, 171, 0.71)" stroke-width="1.5"></path><path d="M653 375.64L642.97 468.44" stroke="rgba(0, 184, 171, 0.71)" stroke-width="1.5"></path><path d="M653 375.64L584.69 286.29" stroke="rgba(0, 184, 171, 0.71)" stroke-width="1.5"></path><path d="M653 375.64L735.23 471.06" stroke="rgba(0, 184, 171, 0.71)" stroke-width="1.5"></path><path d="M653 375.64L554.2 473.94" stroke="rgba(0, 184, 171, 0.71)" stroke-width="1.5"></path><path d="M642.97 468.44L642.97 468.44" stroke="rgba(0, 184, 171, 0.71)" stroke-width="1.5"></path><path d="M642.97 468.44L670.57 551.3" stroke="rgba(0, 184, 171, 0.71)" stroke-width="1.5"></path><path d="M670.57 551.3L670.57 551.3" stroke="rgba(0, 184, 171, 0.71)" stroke-width="1.5"></path><path d="M670.57 551.3L749.23 582.02" stroke="rgba(0, 184, 171, 0.71)" stroke-width="1.5"></path><path d="M672.09 670.73L672.09 670.73" stroke="rgba(0, 184, 171, 0.71)" stroke-width="1.5"></path><path d="M672.09 670.73L737.65 649.36" stroke="rgba(0, 184, 171, 0.71)" stroke-width="1.5"></path><path d="M672.09 670.73L749.23 582.02" stroke="rgba(0, 184, 171, 0.71)" stroke-width="1.5"></path><path d="M672.09 670.73L670.57 551.3" stroke="rgba(0, 184, 171, 0.71)" stroke-width="1.5"></path><path d="M672.09 670.73L584.21 564.92" stroke="rgba(0, 184, 171, 0.71)" stroke-width="1.5"></path><path d="M760.57 -52.05L760.57 -52.05" stroke="rgba(0, 184, 171, 0.71)" stroke-width="1.5"></path><path d="M760.57 -52.05L722.95 55.3" stroke="rgba(0, 184, 171, 0.71)" stroke-width="1.5"></path><path d="M760.57 -52.05L647.57 46.32" stroke="rgba(0, 184, 171, 0.71)" stroke-width="1.5"></path><path d="M722.95 55.3L722.95 55.3" stroke="rgba(0, 184, 171, 0.71)" stroke-width="1.5"></path><path d="M722.95 55.3L743.01 116.01" stroke="rgba(0, 184, 171, 0.71)" stroke-width="1.5"></path><path d="M743.01 116.01L743.01 116.01" stroke="rgba(0, 184, 171, 0.71)" stroke-width="1.5"></path><path d="M743.01 116.01L739.68 212.23" stroke="rgba(0, 184, 171, 0.71)" stroke-width="1.5"></path><path d="M743.01 116.01L647.57 46.32" stroke="rgba(0, 184, 171, 0.71)" stroke-width="1.5"></path><path d="M739.68 212.23L739.68 212.23" stroke="rgba(0, 184, 171, 0.71)" stroke-width="1.5"></path><path d="M739.68 212.23L760.65 285.76" stroke="rgba(0, 184, 171, 0.71)" stroke-width="1.5"></path><path d="M760.65 285.76L760.65 285.76" stroke="rgba(0, 184, 171, 0.71)" stroke-width="1.5"></path><path d="M760.65 285.76L642.96 236.08" stroke="rgba(0, 184, 171, 0.71)" stroke-width="1.5"></path><path d="M735.23 471.06L735.23 471.06" stroke="rgba(0, 184, 171, 0.71)" stroke-width="1.5"></path><path d="M735.23 471.06L642.97 468.44" stroke="rgba(0, 184, 171, 0.71)" stroke-width="1.5"></path><path d="M735.23 471.06L670.57 551.3" stroke="rgba(0, 184, 171, 0.71)" stroke-width="1.5"></path><path d="M735.23 471.06L749.23 582.02" stroke="rgba(0, 184, 171, 0.71)" stroke-width="1.5"></path><path d="M749.23 582.02L749.23 582.02" stroke="rgba(0, 184, 171, 0.71)" stroke-width="1.5"></path><path d="M749.23 582.02L737.65 649.36" stroke="rgba(0, 184, 171, 0.71)" stroke-width="1.5"></path><path d="M749.23 582.02L642.97 468.44" stroke="rgba(0, 184, 171, 0.71)" stroke-width="1.5"></path><path d="M749.23 582.02L584.21 564.92" stroke="rgba(0, 184, 171, 0.71)" stroke-width="1.5"></path><path d="M737.65 649.36L737.65 649.36" stroke="rgba(0, 184, 171, 0.71)" stroke-width="1.5"></path><path d="M737.65 649.36L670.57 551.3" stroke="rgba(0, 184, 171, 0.71)" stroke-width="1.5"></path><path d="M737.65 649.36L584.21 564.92" stroke="rgba(0, 184, 171, 0.71)" stroke-width="1.5"></path><path d="M737.65 649.36L735.23 471.06" stroke="rgba(0, 184, 171, 0.71)" stroke-width="1.5"></path><path d="M737.65 649.36L550.13 651.97" stroke="rgba(0, 184, 171, 0.71)" stroke-width="1.5"></path><circle r="5" cx="-37.88" cy="394.57" fill="rgba(0, 184, 171, 0.71)"></circle><circle r="5" cx="-36.57" cy="489.13" fill="rgba(0, 184, 171, 0.71)"></circle><circle r="5" cx="-60.33" cy="584.62" fill="rgba(0, 184, 171, 0.71)"></circle><circle r="5" cx="-45.71" cy="652.66" fill="rgba(0, 184, 171, 0.71)"></circle><circle r="5" cx="45.79" cy="394.74" fill="rgba(0, 184, 171, 0.71)"></circle><circle r="5" cx="27.59" cy="494.51" fill="rgba(0, 184, 171, 0.71)"></circle><circle r="5" cx="52.08" cy="575.86" fill="rgba(0, 184, 171, 0.71)"></circle><circle r="5" cx="44.17" cy="645.66" fill="rgba(0, 184, 171, 0.71)"></circle><circle r="5" cx="130.48" cy="373.64" fill="rgba(0, 184, 171, 0.71)"></circle><circle r="5" cx="113.65" cy="460.7" fill="rgba(0, 184, 171, 0.71)"></circle><circle r="5" cx="207.4" cy="319.81" fill="rgba(0, 184, 171, 0.71)"></circle><circle r="5" cx="214.86" cy="403.94" fill="rgba(0, 184, 171, 0.71)"></circle><circle r="5" cx="203.88" cy="492.93" fill="rgba(0, 184, 171, 0.71)"></circle><circle r="5" cx="238.41" cy="562.35" fill="rgba(0, 184, 171, 0.71)"></circle><circle r="5" cx="201.66" cy="661.58" fill="rgba(0, 184, 171, 0.71)"></circle><circle r="5" cx="305.59" cy="487.42" fill="rgba(0, 184, 171, 0.71)"></circle><circle r="5" cx="305.46" cy="587.01" fill="rgba(0, 184, 171, 0.71)"></circle><circle r="5" cx="319.23" cy="666.07" fill="rgba(0, 184, 171, 0.71)"></circle><circle r="5" cx="398.69" cy="144.34" fill="rgba(0, 184, 171, 0.71)"></circle><circle r="5" cx="389.66" cy="209.94" fill="rgba(0, 184, 171, 0.71)"></circle><circle r="5" cx="397.73" cy="295.74" fill="rgba(0, 184, 171, 0.71)"></circle><circle r="5" cx="393.13" cy="392.76" fill="rgba(0, 184, 171, 0.71)"></circle><circle r="5" cx="378.19" cy="470.87" fill="rgba(0, 184, 171, 0.71)"></circle><circle r="5" cx="411.03" cy="583.02" fill="rgba(0, 184, 171, 0.71)"></circle><circle r="5" cx="376.83" cy="653.59" fill="rgba(0, 184, 171, 0.71)"></circle><circle r="5" cx="495.24" cy="-29.37" fill="rgba(0, 184, 171, 0.71)"></circle><circle r="5" cx="493.16" cy="43.25" fill="rgba(0, 184, 171, 0.71)"></circle><circle r="5" cx="481.09" cy="126.69" fill="rgba(0, 184, 171, 0.71)"></circle><circle r="5" cx="483.26" cy="236.05" fill="rgba(0, 184, 171, 0.71)"></circle><circle r="5" cx="487.47" cy="292.78" fill="rgba(0, 184, 171, 0.71)"></circle><circle r="5" cx="476.09" cy="411.21" fill="rgba(0, 184, 171, 0.71)"></circle><circle r="5" cx="467.65" cy="472.34" fill="rgba(0, 184, 171, 0.71)"></circle><circle r="5" cx="495.45" cy="573.12" fill="rgba(0, 184, 171, 0.71)"></circle><circle r="5" cx="481.3" cy="637.49" fill="rgba(0, 184, 171, 0.71)"></circle><circle r="5" cx="572.32" cy="-30.21" fill="rgba(0, 184, 171, 0.71)"></circle><circle r="5" cx="587.31" cy="33.33" fill="rgba(0, 184, 171, 0.71)"></circle><circle r="5" cx="571.66" cy="149.76" fill="rgba(0, 184, 171, 0.71)"></circle><circle r="5" cx="584.65" cy="211.17" fill="rgba(0, 184, 171, 0.71)"></circle><circle r="5" cx="584.69" cy="286.29" fill="rgba(0, 184, 171, 0.71)"></circle><circle r="5" cx="581.66" cy="394.42" fill="rgba(0, 184, 171, 0.71)"></circle><circle r="5" cx="554.2" cy="473.94" fill="rgba(0, 184, 171, 0.71)"></circle><circle r="5" cx="584.21" cy="564.92" fill="rgba(0, 184, 171, 0.71)"></circle><circle r="5" cx="550.13" cy="651.97" fill="rgba(0, 184, 171, 0.71)"></circle><circle r="5" cx="646.83" cy="-44.95" fill="rgba(0, 184, 171, 0.71)"></circle><circle r="5" cx="647.57" cy="46.32" fill="rgba(0, 184, 171, 0.71)"></circle><circle r="5" cx="656.21" cy="118.55" fill="rgba(0, 184, 171, 0.71)"></circle><circle r="5" cx="642.96" cy="236.08" fill="rgba(0, 184, 171, 0.71)"></circle><circle r="5" cx="673.75" cy="326.36" fill="rgba(0, 184, 171, 0.71)"></circle><circle r="5" cx="653" cy="375.64" fill="rgba(0, 184, 171, 0.71)"></circle><circle r="5" cx="642.97" cy="468.44" fill="rgba(0, 184, 171, 0.71)"></circle><circle r="5" cx="670.57" cy="551.3" fill="rgba(0, 184, 171, 0.71)"></circle><circle r="5" cx="672.09" cy="670.73" fill="rgba(0, 184, 171, 0.71)"></circle><circle r="5" cx="760.57" cy="-52.05" fill="rgba(0, 184, 171, 0.71)"></circle><circle r="5" cx="722.95" cy="55.3" fill="rgba(0, 184, 171, 0.71)"></circle><circle r="5" cx="743.01" cy="116.01" fill="rgba(0, 184, 171, 0.71)"></circle><circle r="5" cx="739.68" cy="212.23" fill="rgba(0, 184, 171, 0.71)"></circle><circle r="5" cx="760.65" cy="285.76" fill="rgba(0, 184, 171, 0.71)"></circle><circle r="5" cx="735.23" cy="471.06" fill="rgba(0, 184, 171, 0.71)"></circle><circle r="5" cx="749.23" cy="582.02" fill="rgba(0, 184, 171, 0.71)"></circle><circle r="5" cx="737.65" cy="649.36" fill="rgba(0, 184, 171, 0.71)"></circle><path d="M-39.96 649.62L-39.96 649.62" stroke="hsla(187, 97.8%, 46.9%, 0.7)" stroke-width="1.5"></path><path d="M-39.96 649.62L23.58 643.55" stroke="hsla(187, 97.8%, 46.9%, 0.7)" stroke-width="1.5"></path><path d="M-39.96 649.62L-63.93 574" stroke="hsla(187, 97.8%, 46.9%, 0.7)" stroke-width="1.5"></path><path d="M-39.96 649.62L56.44 563.29" stroke="hsla(187, 97.8%, 46.9%, 0.7)" stroke-width="1.5"></path><path d="M56.44 563.29L56.44 563.29" stroke="hsla(187, 97.8%, 46.9%, 0.7)" stroke-width="1.5"></path><path d="M56.44 563.29L138.92 557.03" stroke="hsla(187, 97.8%, 46.9%, 0.7)" stroke-width="1.5"></path><path d="M56.44 563.29L23.58 643.55" stroke="hsla(187, 97.8%, 46.9%, 0.7)" stroke-width="1.5"></path><path d="M56.44 563.29L126.08 490.56" stroke="hsla(187, 97.8%, 46.9%, 0.7)" stroke-width="1.5"></path><path d="M217.49 561.35L217.49 561.35" stroke="hsla(187, 97.8%, 46.9%, 0.7)" stroke-width="1.5"></path><path d="M217.49 561.35L138.92 557.03" stroke="hsla(187, 97.8%, 46.9%, 0.7)" stroke-width="1.5"></path><path d="M217.49 561.35L224.15 643.8" stroke="hsla(187, 97.8%, 46.9%, 0.7)" stroke-width="1.5"></path><path d="M217.49 561.35L293.14 500.03" stroke="hsla(187, 97.8%, 46.9%, 0.7)" stroke-width="1.5"></path><path d="M217.49 561.35L126.08 490.56" stroke="hsla(187, 97.8%, 46.9%, 0.7)" stroke-width="1.5"></path><path d="M217.49 561.35L297.37 662.23" stroke="hsla(187, 97.8%, 46.9%, 0.7)" stroke-width="1.5"></path><path d="M324.33 397.33L324.33 397.33" stroke="hsla(187, 97.8%, 46.9%, 0.7)" stroke-width="1.5"></path><path d="M324.33 397.33L408.66 398.25" stroke="hsla(187, 97.8%, 46.9%, 0.7)" stroke-width="1.5"></path><path d="M324.33 397.33L293.14 500.03" stroke="hsla(187, 97.8%, 46.9%, 0.7)" stroke-width="1.5"></path><path d="M297.37 662.23L297.37 662.23" stroke="hsla(187, 97.8%, 46.9%, 0.7)" stroke-width="1.5"></path><path d="M297.37 662.23L224.15 643.8" stroke="hsla(187, 97.8%, 46.9%, 0.7)" stroke-width="1.5"></path><path d="M297.37 662.23L377.77 642.18" stroke="hsla(187, 97.8%, 46.9%, 0.7)" stroke-width="1.5"></path><path d="M297.37 662.23L401.5 588.6" stroke="hsla(187, 97.8%, 46.9%, 0.7)" stroke-width="1.5"></path><path d="M297.37 662.23L293.14 500.03" stroke="hsla(187, 97.8%, 46.9%, 0.7)" stroke-width="1.5"></path><path d="M297.37 662.23L118.15 652.81" stroke="hsla(187, 97.8%, 46.9%, 0.7)" stroke-width="1.5"></path><path d="M408.66 398.25L408.66 398.25" stroke="hsla(187, 97.8%, 46.9%, 0.7)" stroke-width="1.5"></path><path d="M408.66 398.25L468.3 415.41" stroke="hsla(187, 97.8%, 46.9%, 0.7)" stroke-width="1.5"></path><path d="M408.66 398.25L413.65 463.13" stroke="hsla(187, 97.8%, 46.9%, 0.7)" stroke-width="1.5"></path><path d="M377.77 642.18L377.77 642.18" stroke="hsla(187, 97.8%, 46.9%, 0.7)" stroke-width="1.5"></path><path d="M377.77 642.18L401.5 588.6" stroke="hsla(187, 97.8%, 46.9%, 0.7)" stroke-width="1.5"></path><path d="M377.77 642.18L465.66 574.67" stroke="hsla(187, 97.8%, 46.9%, 0.7)" stroke-width="1.5"></path><path d="M377.77 642.18L497.34 646.49" stroke="hsla(187, 97.8%, 46.9%, 0.7)" stroke-width="1.5"></path><path d="M377.77 642.18L224.15 643.8" stroke="hsla(187, 97.8%, 46.9%, 0.7)" stroke-width="1.5"></path><path d="M377.77 642.18L293.14 500.03" stroke="hsla(187, 97.8%, 46.9%, 0.7)" stroke-width="1.5"></path><path d="M549.84 219.26L549.84 219.26" stroke="hsla(187, 97.8%, 46.9%, 0.7)" stroke-width="1.5"></path><path d="M549.84 219.26L555.36 295.28" stroke="hsla(187, 97.8%, 46.9%, 0.7)" stroke-width="1.5"></path><path d="M549.84 219.26L569.59 143.15" stroke="hsla(187, 97.8%, 46.9%, 0.7)" stroke-width="1.5"></path><path d="M549.84 219.26L648.73 197.29" stroke="hsla(187, 97.8%, 46.9%, 0.7)" stroke-width="1.5"></path><path d="M549.84 219.26L480.99 308.16" stroke="hsla(187, 97.8%, 46.9%, 0.7)" stroke-width="1.5"></path><path d="M581.9 571.15L581.9 571.15" stroke="hsla(187, 97.8%, 46.9%, 0.7)" stroke-width="1.5"></path><path d="M581.9 571.15L653.62 563.97" stroke="hsla(187, 97.8%, 46.9%, 0.7)" stroke-width="1.5"></path><path d="M581.9 571.15L572.3 489.54" stroke="hsla(187, 97.8%, 46.9%, 0.7)" stroke-width="1.5"></path><path d="M581.9 571.15L547.85 655.86" stroke="hsla(187, 97.8%, 46.9%, 0.7)" stroke-width="1.5"></path><path d="M581.9 571.15L638.1 660.4" stroke="hsla(187, 97.8%, 46.9%, 0.7)" stroke-width="1.5"></path><path d="M581.9 571.15L497.34 646.49" stroke="hsla(187, 97.8%, 46.9%, 0.7)" stroke-width="1.5"></path><path d="M648.73 197.29L648.73 197.29" stroke="hsla(187, 97.8%, 46.9%, 0.7)" stroke-width="1.5"></path><path d="M648.73 197.29L671.1 135.59" stroke="hsla(187, 97.8%, 46.9%, 0.7)" stroke-width="1.5"></path><path d="M648.73 197.29L729.65 204.52" stroke="hsla(187, 97.8%, 46.9%, 0.7)" stroke-width="1.5"></path><path d="M664.08 312L664.08 312" stroke="hsla(187, 97.8%, 46.9%, 0.7)" stroke-width="1.5"></path><path d="M664.08 312L746.5 287.35" stroke="hsla(187, 97.8%, 46.9%, 0.7)" stroke-width="1.5"></path><path d="M741.62 63.46L741.62 63.46" stroke="hsla(187, 97.8%, 46.9%, 0.7)" stroke-width="1.5"></path><path d="M741.62 63.46L738.04 112.03" stroke="hsla(187, 97.8%, 46.9%, 0.7)" stroke-width="1.5"></path><path d="M741.62 63.46L663.22 38.84" stroke="hsla(187, 97.8%, 46.9%, 0.7)" stroke-width="1.5"></path><path d="M729.65 204.52L729.65 204.52" stroke="hsla(187, 97.8%, 46.9%, 0.7)" stroke-width="1.5"></path><path d="M729.65 204.52L746.5 287.35" stroke="hsla(187, 97.8%, 46.9%, 0.7)" stroke-width="1.5"></path><path d="M729.65 204.52L671.1 135.59" stroke="hsla(187, 97.8%, 46.9%, 0.7)" stroke-width="1.5"></path><path d="M-63.93 574L-63.93 574" stroke="hsla(187, 97.8%, 46.9%, 0.7)" stroke-width="1.5"></path><path d="M-63.93 574L23.58 643.55" stroke="hsla(187, 97.8%, 46.9%, 0.7)" stroke-width="1.5"></path><path d="M-63.93 574L56.44 563.29" stroke="hsla(187, 97.8%, 46.9%, 0.7)" stroke-width="1.5"></path><path d="M-63.93 574L118.15 652.81" stroke="hsla(187, 97.8%, 46.9%, 0.7)" stroke-width="1.5"></path><path d="M-63.93 574L138.92 557.03" stroke="hsla(187, 97.8%, 46.9%, 0.7)" stroke-width="1.5"></path><path d="M23.58 643.55L23.58 643.55" stroke="hsla(187, 97.8%, 46.9%, 0.7)" stroke-width="1.5"></path><path d="M23.58 643.55L118.15 652.81" stroke="hsla(187, 97.8%, 46.9%, 0.7)" stroke-width="1.5"></path><path d="M126.08 490.56L126.08 490.56" stroke="hsla(187, 97.8%, 46.9%, 0.7)" stroke-width="1.5"></path><path d="M126.08 490.56L138.92 557.03" stroke="hsla(187, 97.8%, 46.9%, 0.7)" stroke-width="1.5"></path><path d="M138.92 557.03L138.92 557.03" stroke="hsla(187, 97.8%, 46.9%, 0.7)" stroke-width="1.5"></path><path d="M118.15 652.81L118.15 652.81" stroke="hsla(187, 97.8%, 46.9%, 0.7)" stroke-width="1.5"></path><path d="M118.15 652.81L138.92 557.03" stroke="hsla(187, 97.8%, 46.9%, 0.7)" stroke-width="1.5"></path><path d="M224.15 643.8L224.15 643.8" stroke="hsla(187, 97.8%, 46.9%, 0.7)" stroke-width="1.5"></path><path d="M224.15 643.8L118.15 652.81" stroke="hsla(187, 97.8%, 46.9%, 0.7)" stroke-width="1.5"></path><path d="M293.14 500.03L293.14 500.03" stroke="hsla(187, 97.8%, 46.9%, 0.7)" stroke-width="1.5"></path><path d="M293.14 500.03L413.65 463.13" stroke="hsla(187, 97.8%, 46.9%, 0.7)" stroke-width="1.5"></path><path d="M293.14 500.03L401.5 588.6" stroke="hsla(187, 97.8%, 46.9%, 0.7)" stroke-width="1.5"></path><path d="M293.14 500.03L408.66 398.25" stroke="hsla(187, 97.8%, 46.9%, 0.7)" stroke-width="1.5"></path><path d="M413.65 463.13L413.65 463.13" stroke="hsla(187, 97.8%, 46.9%, 0.7)" stroke-width="1.5"></path><path d="M413.65 463.13L467.09 488.96" stroke="hsla(187, 97.8%, 46.9%, 0.7)" stroke-width="1.5"></path><path d="M413.65 463.13L468.3 415.41" stroke="hsla(187, 97.8%, 46.9%, 0.7)" stroke-width="1.5"></path><path d="M413.65 463.13L324.33 397.33" stroke="hsla(187, 97.8%, 46.9%, 0.7)" stroke-width="1.5"></path><path d="M413.65 463.13L465.66 574.67" stroke="hsla(187, 97.8%, 46.9%, 0.7)" stroke-width="1.5"></path><path d="M401.5 588.6L401.5 588.6" stroke="hsla(187, 97.8%, 46.9%, 0.7)" stroke-width="1.5"></path><path d="M480.99 308.16L480.99 308.16" stroke="hsla(187, 97.8%, 46.9%, 0.7)" stroke-width="1.5"></path><path d="M480.99 308.16L555.36 295.28" stroke="hsla(187, 97.8%, 46.9%, 0.7)" stroke-width="1.5"></path><path d="M480.99 308.16L468.3 415.41" stroke="hsla(187, 97.8%, 46.9%, 0.7)" stroke-width="1.5"></path><path d="M468.3 415.41L468.3 415.41" stroke="hsla(187, 97.8%, 46.9%, 0.7)" stroke-width="1.5"></path><path d="M468.3 415.41L467.09 488.96" stroke="hsla(187, 97.8%, 46.9%, 0.7)" stroke-width="1.5"></path><path d="M467.09 488.96L467.09 488.96" stroke="hsla(187, 97.8%, 46.9%, 0.7)" stroke-width="1.5"></path><path d="M467.09 488.96L465.66 574.67" stroke="hsla(187, 97.8%, 46.9%, 0.7)" stroke-width="1.5"></path><path d="M465.66 574.67L465.66 574.67" stroke="hsla(187, 97.8%, 46.9%, 0.7)" stroke-width="1.5"></path><path d="M465.66 574.67L401.5 588.6" stroke="hsla(187, 97.8%, 46.9%, 0.7)" stroke-width="1.5"></path><path d="M465.66 574.67L497.34 646.49" stroke="hsla(187, 97.8%, 46.9%, 0.7)" stroke-width="1.5"></path><path d="M465.66 574.67L547.85 655.86" stroke="hsla(187, 97.8%, 46.9%, 0.7)" stroke-width="1.5"></path><path d="M465.66 574.67L581.9 571.15" stroke="hsla(187, 97.8%, 46.9%, 0.7)" stroke-width="1.5"></path><path d="M497.34 646.49L497.34 646.49" stroke="hsla(187, 97.8%, 46.9%, 0.7)" stroke-width="1.5"></path><path d="M497.34 646.49L547.85 655.86" stroke="hsla(187, 97.8%, 46.9%, 0.7)" stroke-width="1.5"></path><path d="M497.34 646.49L401.5 588.6" stroke="hsla(187, 97.8%, 46.9%, 0.7)" stroke-width="1.5"></path><path d="M561.08 -27.21L561.08 -27.21" stroke="hsla(187, 97.8%, 46.9%, 0.7)" stroke-width="1.5"></path><path d="M561.08 -27.21L643.65 -25.92" stroke="hsla(187, 97.8%, 46.9%, 0.7)" stroke-width="1.5"></path><path d="M561.08 -27.21L663.22 38.84" stroke="hsla(187, 97.8%, 46.9%, 0.7)" stroke-width="1.5"></path><path d="M561.08 -27.21L724.98 -35.9" stroke="hsla(187, 97.8%, 46.9%, 0.7)" stroke-width="1.5"></path><path d="M561.08 -27.21L569.59 143.15" stroke="hsla(187, 97.8%, 46.9%, 0.7)" stroke-width="1.5"></path><path d="M569.59 143.15L569.59 143.15" stroke="hsla(187, 97.8%, 46.9%, 0.7)" stroke-width="1.5"></path><path d="M569.59 143.15L648.73 197.29" stroke="hsla(187, 97.8%, 46.9%, 0.7)" stroke-width="1.5"></path><path d="M569.59 143.15L671.1 135.59" stroke="hsla(187, 97.8%, 46.9%, 0.7)" stroke-width="1.5"></path><path d="M569.59 143.15L663.22 38.84" stroke="hsla(187, 97.8%, 46.9%, 0.7)" stroke-width="1.5"></path><path d="M569.59 143.15L555.36 295.28" stroke="hsla(187, 97.8%, 46.9%, 0.7)" stroke-width="1.5"></path><path d="M555.36 295.28L555.36 295.28" stroke="hsla(187, 97.8%, 46.9%, 0.7)" stroke-width="1.5"></path><path d="M555.36 295.28L564.3 388.49" stroke="hsla(187, 97.8%, 46.9%, 0.7)" stroke-width="1.5"></path><path d="M555.36 295.28L664.08 312" stroke="hsla(187, 97.8%, 46.9%, 0.7)" stroke-width="1.5"></path><path d="M555.36 295.28L648.73 197.29" stroke="hsla(187, 97.8%, 46.9%, 0.7)" stroke-width="1.5"></path><path d="M564.3 388.49L564.3 388.49" stroke="hsla(187, 97.8%, 46.9%, 0.7)" stroke-width="1.5"></path><path d="M564.3 388.49L652.39 400" stroke="hsla(187, 97.8%, 46.9%, 0.7)" stroke-width="1.5"></path><path d="M564.3 388.49L468.3 415.41" stroke="hsla(187, 97.8%, 46.9%, 0.7)" stroke-width="1.5"></path><path d="M564.3 388.49L572.3 489.54" stroke="hsla(187, 97.8%, 46.9%, 0.7)" stroke-width="1.5"></path><path d="M572.3 489.54L572.3 489.54" stroke="hsla(187, 97.8%, 46.9%, 0.7)" stroke-width="1.5"></path><path d="M572.3 489.54L670.35 486.63" stroke="hsla(187, 97.8%, 46.9%, 0.7)" stroke-width="1.5"></path><path d="M547.85 655.86L547.85 655.86" stroke="hsla(187, 97.8%, 46.9%, 0.7)" stroke-width="1.5"></path><path d="M547.85 655.86L638.1 660.4" stroke="hsla(187, 97.8%, 46.9%, 0.7)" stroke-width="1.5"></path><path d="M643.65 -25.92L643.65 -25.92" stroke="hsla(187, 97.8%, 46.9%, 0.7)" stroke-width="1.5"></path><path d="M643.65 -25.92L663.22 38.84" stroke="hsla(187, 97.8%, 46.9%, 0.7)" stroke-width="1.5"></path><path d="M643.65 -25.92L724.98 -35.9" stroke="hsla(187, 97.8%, 46.9%, 0.7)" stroke-width="1.5"></path><path d="M643.65 -25.92L741.62 63.46" stroke="hsla(187, 97.8%, 46.9%, 0.7)" stroke-width="1.5"></path><path d="M643.65 -25.92L671.1 135.59" stroke="hsla(187, 97.8%, 46.9%, 0.7)" stroke-width="1.5"></path><path d="M643.65 -25.92L738.04 112.03" stroke="hsla(187, 97.8%, 46.9%, 0.7)" stroke-width="1.5"></path><path d="M663.22 38.84L663.22 38.84" stroke="hsla(187, 97.8%, 46.9%, 0.7)" stroke-width="1.5"></path><path d="M663.22 38.84L724.98 -35.9" stroke="hsla(187, 97.8%, 46.9%, 0.7)" stroke-width="1.5"></path><path d="M671.1 135.59L671.1 135.59" stroke="hsla(187, 97.8%, 46.9%, 0.7)" stroke-width="1.5"></path><path d="M671.1 135.59L738.04 112.03" stroke="hsla(187, 97.8%, 46.9%, 0.7)" stroke-width="1.5"></path><path d="M671.1 135.59L663.22 38.84" stroke="hsla(187, 97.8%, 46.9%, 0.7)" stroke-width="1.5"></path><path d="M652.39 400L652.39 400" stroke="hsla(187, 97.8%, 46.9%, 0.7)" stroke-width="1.5"></path><path d="M652.39 400L670.35 486.63" stroke="hsla(187, 97.8%, 46.9%, 0.7)" stroke-width="1.5"></path><path d="M652.39 400L664.08 312" stroke="hsla(187, 97.8%, 46.9%, 0.7)" stroke-width="1.5"></path><path d="M670.35 486.63L670.35 486.63" stroke="hsla(187, 97.8%, 46.9%, 0.7)" stroke-width="1.5"></path><path d="M670.35 486.63L653.62 563.97" stroke="hsla(187, 97.8%, 46.9%, 0.7)" stroke-width="1.5"></path><path d="M670.35 486.63L755.81 476.08" stroke="hsla(187, 97.8%, 46.9%, 0.7)" stroke-width="1.5"></path><path d="M653.62 563.97L653.62 563.97" stroke="hsla(187, 97.8%, 46.9%, 0.7)" stroke-width="1.5"></path><path d="M653.62 563.97L749.73 548.15" stroke="hsla(187, 97.8%, 46.9%, 0.7)" stroke-width="1.5"></path><path d="M638.1 660.4L638.1 660.4" stroke="hsla(187, 97.8%, 46.9%, 0.7)" stroke-width="1.5"></path><path d="M638.1 660.4L653.62 563.97" stroke="hsla(187, 97.8%, 46.9%, 0.7)" stroke-width="1.5"></path><path d="M724.98 -35.9L724.98 -35.9" stroke="hsla(187, 97.8%, 46.9%, 0.7)" stroke-width="1.5"></path><path d="M724.98 -35.9L741.62 63.46" stroke="hsla(187, 97.8%, 46.9%, 0.7)" stroke-width="1.5"></path><path d="M724.98 -35.9L738.04 112.03" stroke="hsla(187, 97.8%, 46.9%, 0.7)" stroke-width="1.5"></path><path d="M724.98 -35.9L671.1 135.59" stroke="hsla(187, 97.8%, 46.9%, 0.7)" stroke-width="1.5"></path><path d="M738.04 112.03L738.04 112.03" stroke="hsla(187, 97.8%, 46.9%, 0.7)" stroke-width="1.5"></path><path d="M738.04 112.03L729.65 204.52" stroke="hsla(187, 97.8%, 46.9%, 0.7)" stroke-width="1.5"></path><path d="M738.04 112.03L663.22 38.84" stroke="hsla(187, 97.8%, 46.9%, 0.7)" stroke-width="1.5"></path><path d="M738.04 112.03L648.73 197.29" stroke="hsla(187, 97.8%, 46.9%, 0.7)" stroke-width="1.5"></path><path d="M746.5 287.35L746.5 287.35" stroke="hsla(187, 97.8%, 46.9%, 0.7)" stroke-width="1.5"></path><path d="M746.5 287.35L746.86 395.59" stroke="hsla(187, 97.8%, 46.9%, 0.7)" stroke-width="1.5"></path><path d="M746.5 287.35L648.73 197.29" stroke="hsla(187, 97.8%, 46.9%, 0.7)" stroke-width="1.5"></path><path d="M746.86 395.59L746.86 395.59" stroke="hsla(187, 97.8%, 46.9%, 0.7)" stroke-width="1.5"></path><path d="M746.86 395.59L755.81 476.08" stroke="hsla(187, 97.8%, 46.9%, 0.7)" stroke-width="1.5"></path><path d="M746.86 395.59L652.39 400" stroke="hsla(187, 97.8%, 46.9%, 0.7)" stroke-width="1.5"></path><path d="M755.81 476.08L755.81 476.08" stroke="hsla(187, 97.8%, 46.9%, 0.7)" stroke-width="1.5"></path><path d="M755.81 476.08L749.73 548.15" stroke="hsla(187, 97.8%, 46.9%, 0.7)" stroke-width="1.5"></path><path d="M755.81 476.08L652.39 400" stroke="hsla(187, 97.8%, 46.9%, 0.7)" stroke-width="1.5"></path><path d="M755.81 476.08L653.62 563.97" stroke="hsla(187, 97.8%, 46.9%, 0.7)" stroke-width="1.5"></path><path d="M755.81 476.08L572.3 489.54" stroke="hsla(187, 97.8%, 46.9%, 0.7)" stroke-width="1.5"></path><path d="M749.73 548.15L749.73 548.15" stroke="hsla(187, 97.8%, 46.9%, 0.7)" stroke-width="1.5"></path><path d="M749.73 548.15L670.35 486.63" stroke="hsla(187, 97.8%, 46.9%, 0.7)" stroke-width="1.5"></path><path d="M751.21 676.42L751.21 676.42" stroke="hsla(187, 97.8%, 46.9%, 0.7)" stroke-width="1.5"></path><path d="M751.21 676.42L638.1 660.4" stroke="hsla(187, 97.8%, 46.9%, 0.7)" stroke-width="1.5"></path><path d="M751.21 676.42L749.73 548.15" stroke="hsla(187, 97.8%, 46.9%, 0.7)" stroke-width="1.5"></path><circle r="25" cx="-39.96" cy="649.62" fill="url(&quot;#SvgjsRadialGradient1130&quot;)"></circle><circle r="25" cx="56.44" cy="563.29" fill="url(&quot;#SvgjsRadialGradient1130&quot;)"></circle><circle r="25" cx="217.49" cy="561.35" fill="url(&quot;#SvgjsRadialGradient1130&quot;)"></circle><circle r="25" cx="324.33" cy="397.33" fill="url(&quot;#SvgjsRadialGradient1130&quot;)"></circle><circle r="25" cx="297.37" cy="662.23" fill="url(&quot;#SvgjsRadialGradient1130&quot;)"></circle><circle r="25" cx="408.66" cy="398.25" fill="url(&quot;#SvgjsRadialGradient1130&quot;)"></circle><circle r="25" cx="377.77" cy="642.18" fill="url(&quot;#SvgjsRadialGradient1130&quot;)"></circle><circle r="25" cx="549.84" cy="219.26" fill="url(&quot;#SvgjsRadialGradient1130&quot;)"></circle><circle r="25" cx="581.9" cy="571.15" fill="url(&quot;#SvgjsRadialGradient1130&quot;)"></circle><circle r="25" cx="648.73" cy="197.29" fill="url(&quot;#SvgjsRadialGradient1130&quot;)"></circle><circle r="25" cx="664.08" cy="312" fill="url(&quot;#SvgjsRadialGradient1130&quot;)"></circle><circle r="25" cx="741.62" cy="63.46" fill="url(&quot;#SvgjsRadialGradient1130&quot;)"></circle><circle r="25" cx="729.65" cy="204.52" fill="url(&quot;#SvgjsRadialGradient1130&quot;)"></circle><circle r="5" cx="-63.93" cy="574" fill="rgba(166, 222, 229, 0.85)"></circle><circle r="5" cx="23.58" cy="643.55" fill="rgba(166, 222, 229, 0.85)"></circle><circle r="5" cx="126.08" cy="490.56" fill="rgba(166, 222, 229, 0.85)"></circle><circle r="5" cx="138.92" cy="557.03" fill="rgba(166, 222, 229, 0.85)"></circle><circle r="5" cx="118.15" cy="652.81" fill="rgba(166, 222, 229, 0.85)"></circle><circle r="5" cx="224.15" cy="643.8" fill="rgba(166, 222, 229, 0.85)"></circle><circle r="5" cx="293.14" cy="500.03" fill="rgba(166, 222, 229, 0.85)"></circle><circle r="5" cx="413.65" cy="463.13" fill="rgba(166, 222, 229, 0.85)"></circle><circle r="5" cx="401.5" cy="588.6" fill="rgba(166, 222, 229, 0.85)"></circle><circle r="5" cx="480.99" cy="308.16" fill="rgba(166, 222, 229, 0.85)"></circle><circle r="5" cx="468.3" cy="415.41" fill="rgba(166, 222, 229, 0.85)"></circle><circle r="5" cx="467.09" cy="488.96" fill="rgba(166, 222, 229, 0.85)"></circle><circle r="5" cx="465.66" cy="574.67" fill="rgba(166, 222, 229, 0.85)"></circle><circle r="5" cx="497.34" cy="646.49" fill="rgba(166, 222, 229, 0.85)"></circle><circle r="5" cx="561.08" cy="-27.21" fill="rgba(166, 222, 229, 0.85)"></circle><circle r="5" cx="569.59" cy="143.15" fill="rgba(166, 222, 229, 0.85)"></circle><circle r="5" cx="555.36" cy="295.28" fill="rgba(166, 222, 229, 0.85)"></circle><circle r="5" cx="564.3" cy="388.49" fill="rgba(166, 222, 229, 0.85)"></circle><circle r="5" cx="572.3" cy="489.54" fill="rgba(166, 222, 229, 0.85)"></circle><circle r="5" cx="547.85" cy="655.86" fill="rgba(166, 222, 229, 0.85)"></circle><circle r="5" cx="643.65" cy="-25.92" fill="rgba(166, 222, 229, 0.85)"></circle><circle r="5" cx="663.22" cy="38.84" fill="rgba(166, 222, 229, 0.85)"></circle><circle r="5" cx="671.1" cy="135.59" fill="rgba(166, 222, 229, 0.85)"></circle><circle r="5" cx="652.39" cy="400" fill="rgba(166, 222, 229, 0.85)"></circle><circle r="5" cx="670.35" cy="486.63" fill="rgba(166, 222, 229, 0.85)"></circle><circle r="5" cx="653.62" cy="563.97" fill="rgba(166, 222, 229, 0.85)"></circle><circle r="5" cx="638.1" cy="660.4" fill="rgba(166, 222, 229, 0.85)"></circle><circle r="5" cx="724.98" cy="-35.9" fill="rgba(166, 222, 229, 0.85)"></circle><circle r="5" cx="738.04" cy="112.03" fill="rgba(166, 222, 229, 0.85)"></circle><circle r="5" cx="746.5" cy="287.35" fill="rgba(166, 222, 229, 0.85)"></circle><circle r="5" cx="746.86" cy="395.59" fill="rgba(166, 222, 229, 0.85)"></circle><circle r="5" cx="755.81" cy="476.08" fill="rgba(166, 222, 229, 0.85)"></circle><circle r="5" cx="749.73" cy="548.15" fill="rgba(166, 222, 229, 0.85)"></circle><circle r="5" cx="751.21" cy="676.42" fill="rgba(166, 222, 229, 0.85)"></circle></g><defs><mask id="SvgjsMask1128"><rect width="700" height="600" fill="#ffffff"></rect></mask><radialGradient cx="100%" cy="100%" r="921.95" gradientUnits="userSpaceOnUse" id="SvgjsRadialGradient1129"><stop stop-color="rgba(0, 69, 158, 1)" offset="0"></stop><stop stop-color="rgba(30, 54, 66, 1)" offset="0"></stop><stop stop-color="rgba(6, 12, 15, 1)" offset="0.72"></stop></radialGradient><radialGradient id="SvgjsRadialGradient1130"><stop stop-color="#ffffff" offset="0.1"></stop><stop stop-color="rgba(2, 161, 182, 0.7)" offset="0.2"></stop><stop stop-color="rgba(2, 161, 182, 0)" offset="1"></stop></radialGradient></defs></svg>