<svg xmlns="http://www.w3.org/2000/svg" version="1.1" xmlns:xlink="http://www.w3.org/1999/xlink" xmlns:svgjs="http://svgjs.dev/svgjs" width="1300" height="250" preserveAspectRatio="none" viewBox="0 0 1300 250"><g mask="url(&quot;#SvgjsMask1977&quot;)" fill="none"><rect width="1300" height="250" x="0" y="0" fill="url(&quot;#SvgjsLinearGradient1978&quot;)"></rect><path d="M29 250L279 0L378 0L128 250z" fill="url(&quot;#SvgjsLinearGradient1979&quot;)"></path><path d="M247.5 250L497.5 0L799 0L549 250z" fill="url(&quot;#SvgjsLinearGradient1979&quot;)"></path><path d="M440 250L690 0L754.5 0L504.5 250z" fill="url(&quot;#SvgjsLinearGradient1979&quot;)"></path><path d="M686.5 250L936.5 0L996.5 0L746.5 250z" fill="url(&quot;#SvgjsLinearGradient1979&quot;)"></path><path d="M1267 250L1017 0L907.5 0L1157.5 250z" fill="url(&quot;#SvgjsLinearGradient1980&quot;)"></path><path d="M1069.5 250L819.5 0L659 0L909 250z" fill="url(&quot;#SvgjsLinearGradient1980&quot;)"></path><path d="M860 250L610 0L515.5 0L765.5 250z" fill="url(&quot;#SvgjsLinearGradient1980&quot;)"></path><path d="M644.5 250L394.5 0L174 0L424 250z" fill="url(&quot;#SvgjsLinearGradient1980&quot;)"></path><path d="M1080.144823359907 250L1300 30.144823359906894L1300 250z" fill="url(&quot;#SvgjsLinearGradient1979&quot;)"></path><path d="M0 250L219.8551766400931 250L 0 30.144823359906894z" fill="url(&quot;#SvgjsLinearGradient1980&quot;)"></path></g><defs><mask id="SvgjsMask1977"><rect width="1300" height="250" fill="#ffffff"></rect></mask><linearGradient x1="50%" y1="100%" x2="50%" y2="0%" gradientUnits="userSpaceOnUse" id="SvgjsLinearGradient1978"><stop stop-color="rgba(0, 22, 21, 0.93)" offset="0"></stop><stop stop-color="rgba(6, 12, 15, 1)" offset="1"></stop></linearGradient><linearGradient x1="0%" y1="100%" x2="100%" y2="0%" id="SvgjsLinearGradient1979"><stop stop-color="rgba(2, 161, 182, 0.42)" offset="0"></stop><stop stop-opacity="0" stop-color="rgba(2, 161, 182, 0.42)" offset="0.66"></stop></linearGradient><linearGradient x1="100%" y1="100%" x2="0%" y2="0%" id="SvgjsLinearGradient1980"><stop stop-color="rgba(2, 161, 182, 0.42)" offset="0"></stop><stop stop-opacity="0" stop-color="rgba(2, 161, 182, 0.42)" offset="0.66"></stop></linearGradient></defs></svg>