<svg xmlns="http://www.w3.org/2000/svg" version="1.1" xmlns:xlink="http://www.w3.org/1999/xlink" xmlns:svgjs="http://svgjs.dev/svgjs" width="1340" height="360" preserveAspectRatio="none" viewBox="0 0 1340 360"><g mask="url(&quot;#SvgjsMask1559&quot;)" fill="none"><rect width="1340" height="360" x="0" y="0" fill="rgba(6, 12, 15, 1)"></rect><g transform="translate(0, -97.2)" stroke-linecap="round"><path d="M8.5 39.005 L8.5 174.005" stroke-width="6.75" stroke="rgba(0, 184, 171, 1)"></path><path d="M8.5 184.13 L8.5 197.63" stroke-width="6.75" stroke="rgba(0, 184, 171, 1)"></path><path d="M8.5 207.755 L8.5 320.995" stroke-width="6.75" stroke="rgba(6, 12, 15, 1)"></path><path d="M17.5 62.485 L17.5 231.235" stroke-width="6.75" stroke="rgba(0, 184, 171, 1)"></path><path d="M17.5 241.36 L17.5 297.505" stroke-width="6.75" stroke="rgba(0, 184, 171, 1)"></path><path d="M26.5 152.955 L26.5 207.045" stroke-width="6.75" stroke="rgba(2, 161, 182, 1)"></path><path d="M35.5 41.845 L35.5 163.345" stroke-width="6.75" stroke="rgba(6, 12, 15, 1)"></path><path d="M35.5 173.47 L35.5 318.145" stroke-width="6.75" stroke="rgba(2, 161, 182, 1)"></path><path d="M44.5 130.095 L44.5 157.095" stroke-width="6.75" stroke="rgba(6, 12, 15, 1)"></path><path d="M44.5 167.22 L44.5 229.905" stroke-width="6.75" stroke="rgba(6, 12, 15, 1)"></path><path d="M53.5 34.504999999999995 L53.5 237.005" stroke-width="6.75" stroke="rgba(6, 12, 15, 1)"></path><path d="M53.5 247.13 L53.5 274.13" stroke-width="6.75" stroke="rgba(6, 12, 15, 1)"></path><path d="M53.5 284.255 L53.5 325.495" stroke-width="6.75" stroke="rgba(0, 184, 171, 1)"></path><path d="M62.5 82.845 L62.5 116.595" stroke-width="6.75" stroke="rgba(2, 161, 182, 1)"></path><path d="M62.5 126.72 L62.5 214.47" stroke-width="6.75" stroke="rgba(6, 12, 15, 1)"></path><path d="M62.5 224.595 L62.5 277.155" stroke-width="6.75" stroke="rgba(2, 161, 182, 1)"></path><path d="M71.5 14.695 L71.5 237.445" stroke-width="6.75" stroke="rgba(0, 184, 171, 1)"></path><path d="M71.5 247.57 L71.5 345.305" stroke-width="6.75" stroke="rgba(6, 12, 15, 1)"></path><path d="M80.5 45.455 L80.5 112.955" stroke-width="6.75" stroke="rgba(6, 12, 15, 1)"></path><path d="M80.5 123.08 L80.5 170.32999999999998" stroke-width="6.75" stroke="rgba(2, 161, 182, 1)"></path><path d="M80.5 180.45499999999998 L80.5 314.545" stroke-width="6.75" stroke="rgba(2, 161, 182, 1)"></path><path d="M89.5 18.814999999999998 L89.5 93.065" stroke-width="6.75" stroke="rgba(6, 12, 15, 1)"></path><path d="M89.5 103.19 L89.5 197.69" stroke-width="6.75" stroke="rgba(6, 12, 15, 1)"></path><path d="M89.5 207.815 L89.5 341.185" stroke-width="6.75" stroke="rgba(0, 184, 171, 1)"></path><path d="M98.5 120.595 L98.5 154.345" stroke-width="6.75" stroke="rgba(6, 12, 15, 1)"></path><path d="M98.5 164.47 L98.5 239.405" stroke-width="6.75" stroke="rgba(0, 184, 171, 1)"></path><path d="M107.5 26.285 L107.5 134.285" stroke-width="6.75" stroke="rgba(6, 12, 15, 1)"></path><path d="M107.5 144.41 L107.5 245.66" stroke-width="6.75" stroke="rgba(6, 12, 15, 1)"></path><path d="M107.5 255.785 L107.5 333.725" stroke-width="6.75" stroke="rgba(6, 12, 15, 1)"></path><path d="M116.5 65.905 L116.5 294.095" stroke-width="6.75" stroke="rgba(0, 184, 171, 1)"></path><path d="M125.5 9.355 L125.5 171.355" stroke-width="6.75" stroke="rgba(6, 12, 15, 1)"></path><path d="M125.5 181.48 L125.5 228.73" stroke-width="6.75" stroke="rgba(2, 161, 182, 1)"></path><path d="M125.5 238.855 L125.5 350.645" stroke-width="6.75" stroke="rgba(6, 12, 15, 1)"></path><path d="M134.5 66.465 L134.5 160.965" stroke-width="6.75" stroke="rgba(6, 12, 15, 1)"></path><path d="M134.5 171.09 L134.5 191.34" stroke-width="6.75" stroke="rgba(6, 12, 15, 1)"></path><path d="M134.5 201.465 L134.5 293.535" stroke-width="6.75" stroke="rgba(0, 184, 171, 1)"></path><path d="M143.5 27.015 L143.5 332.985" stroke-width="6.75" stroke="rgba(6, 12, 15, 1)"></path><path d="M152.5 52.265 L152.5 307.735" stroke-width="6.75" stroke="rgba(2, 161, 182, 1)"></path><path d="M161.5 110.765 L161.5 151.265" stroke-width="6.75" stroke="rgba(0, 184, 171, 1)"></path><path d="M161.5 161.39 L161.5 195.14" stroke-width="6.75" stroke="rgba(0, 184, 171, 1)"></path><path d="M161.5 205.265 L161.5 249.245" stroke-width="6.75" stroke="rgba(2, 161, 182, 1)"></path><path d="M170.5 64.925 L170.5 193.175" stroke-width="6.75" stroke="rgba(2, 161, 182, 1)"></path><path d="M170.5 203.3 L170.5 243.8" stroke-width="6.75" stroke="rgba(6, 12, 15, 1)"></path><path d="M170.5 253.925 L170.5 295.075" stroke-width="6.75" stroke="rgba(0, 184, 171, 1)"></path><path d="M179.5 61.345 L179.5 298.645" stroke-width="6.75" stroke="rgba(6, 12, 15, 1)"></path><path d="M188.5 75.015 L188.5 250.515" stroke-width="6.75" stroke="rgba(2, 161, 182, 1)"></path><path d="M188.5 260.64 L188.5 267.39" stroke-width="6.75" stroke="rgba(0, 184, 171, 1)"></path><path d="M188.5 277.515 L188.5 284.985" stroke-width="6.75" stroke="rgba(6, 12, 15, 1)"></path><path d="M197.5 67.405 L197.5 242.905" stroke-width="6.75" stroke="rgba(0, 184, 171, 1)"></path><path d="M197.5 253.03 L197.5 292.605" stroke-width="6.75" stroke="rgba(6, 12, 15, 1)"></path><path d="M206.5 14.385 L206.5 345.615" stroke-width="6.75" stroke="rgba(6, 12, 15, 1)"></path><path d="M215.5 89.855 L215.5 157.35500000000002" stroke-width="6.75" stroke="rgba(2, 161, 182, 1)"></path><path d="M215.5 167.48000000000002 L215.5 214.73000000000002" stroke-width="6.75" stroke="rgba(6, 12, 15, 1)"></path><path d="M215.5 224.85500000000002 L215.5 270.135" stroke-width="6.75" stroke="rgba(6, 12, 15, 1)"></path><path d="M224.5 150.375 L224.5 157.125" stroke-width="6.75" stroke="rgba(6, 12, 15, 1)"></path><path d="M224.5 167.25 L224.5 180.75" stroke-width="6.75" stroke="rgba(0, 184, 171, 1)"></path><path d="M224.5 190.875 L224.5 209.625" stroke-width="6.75" stroke="rgba(6, 12, 15, 1)"></path><path d="M233.5 90.925 L233.5 205.675" stroke-width="6.75" stroke="rgba(6, 12, 15, 1)"></path><path d="M233.5 215.8 L233.5 269.075" stroke-width="6.75" stroke="rgba(6, 12, 15, 1)"></path><path d="M242.5 43.715 L242.5 198.965" stroke-width="6.75" stroke="rgba(2, 161, 182, 1)"></path><path d="M242.5 209.09 L242.5 316.275" stroke-width="6.75" stroke="rgba(2, 161, 182, 1)"></path><path d="M251.5 125.285 L251.5 145.535" stroke-width="6.75" stroke="rgba(6, 12, 15, 1)"></path><path d="M251.5 155.66 L251.5 234.715" stroke-width="6.75" stroke="rgba(6, 12, 15, 1)"></path><path d="M260.5 121.545 L260.5 135.04500000000002" stroke-width="6.75" stroke="rgba(6, 12, 15, 1)"></path><path d="M260.5 145.17000000000002 L260.5 151.92000000000002" stroke-width="6.75" stroke="rgba(6, 12, 15, 1)"></path><path d="M260.5 162.04500000000002 L260.5 238.445" stroke-width="6.75" stroke="rgba(2, 161, 182, 1)"></path><path d="M269.5 98.075 L269.5 138.575" stroke-width="6.75" stroke="rgba(0, 184, 171, 1)"></path><path d="M269.5 148.7 L269.5 261.925" stroke-width="6.75" stroke="rgba(6, 12, 15, 1)"></path><path d="M278.5 154.095 L278.5 167.595" stroke-width="6.75" stroke="rgba(6, 12, 15, 1)"></path><path d="M278.5 177.72 L278.5 184.47" stroke-width="6.75" stroke="rgba(2, 161, 182, 1)"></path><path d="M278.5 194.595 L278.5 205.905" stroke-width="6.75" stroke="rgba(2, 161, 182, 1)"></path><path d="M287.5 84.735 L287.5 179.235" stroke-width="6.75" stroke="rgba(6, 12, 15, 1)"></path><path d="M287.5 189.36 L287.5 275.255" stroke-width="6.75" stroke="rgba(6, 12, 15, 1)"></path><path d="M296.5 64.435 L296.5 118.435" stroke-width="6.75" stroke="rgba(2, 161, 182, 1)"></path><path d="M296.5 128.56 L296.5 142.06" stroke-width="6.75" stroke="rgba(6, 12, 15, 1)"></path><path d="M296.5 152.185 L296.5 295.565" stroke-width="6.75" stroke="rgba(2, 161, 182, 1)"></path><path d="M305.5 160.325 L305.5 199.675" stroke-width="6.75" stroke="rgba(2, 161, 182, 1)"></path><path d="M314.5 22.535 L314.5 204.785" stroke-width="6.75" stroke="rgba(0, 184, 171, 1)"></path><path d="M314.5 214.91 L314.5 241.91" stroke-width="6.75" stroke="rgba(0, 184, 171, 1)"></path><path d="M314.5 252.035 L314.5 337.465" stroke-width="6.75" stroke="rgba(6, 12, 15, 1)"></path><path d="M323.5 109.235 L323.5 169.985" stroke-width="6.75" stroke="rgba(2, 161, 182, 1)"></path><path d="M323.5 180.11 L323.5 207.11" stroke-width="6.75" stroke="rgba(0, 184, 171, 1)"></path><path d="M323.5 217.235 L323.5 250.755" stroke-width="6.75" stroke="rgba(0, 184, 171, 1)"></path><path d="M332.5 124.625 L332.5 235.375" stroke-width="6.75" stroke="rgba(6, 12, 15, 1)"></path><path d="M341.5 116.485 L341.5 197.485" stroke-width="6.75" stroke="rgba(6, 12, 15, 1)"></path><path d="M341.5 207.61 L341.5 214.36" stroke-width="6.75" stroke="rgba(6, 12, 15, 1)"></path><path d="M341.5 224.485 L341.5 243.505" stroke-width="6.75" stroke="rgba(2, 161, 182, 1)"></path><path d="M350.5 60.385 L350.5 215.635" stroke-width="6.75" stroke="rgba(2, 161, 182, 1)"></path><path d="M350.5 225.76 L350.5 299.615" stroke-width="6.75" stroke="rgba(6, 12, 15, 1)"></path><path d="M359.5 72.685 L359.5 92.935" stroke-width="6.75" stroke="rgba(6, 12, 15, 1)"></path><path d="M359.5 103.06 L359.5 136.81" stroke-width="6.75" stroke="rgba(0, 184, 171, 1)"></path><path d="M359.5 146.935 L359.5 287.315" stroke-width="6.75" stroke="rgba(0, 184, 171, 1)"></path><path d="M368.5 157.065 L368.5 163.815" stroke-width="6.75" stroke="rgba(6, 12, 15, 1)"></path><path d="M368.5 173.94 L368.5 202.935" stroke-width="6.75" stroke="rgba(6, 12, 15, 1)"></path><path d="M377.5 126.315 L377.5 233.685" stroke-width="6.75" stroke="rgba(6, 12, 15, 1)"></path><path d="M386.5 47.785 L386.5 230.035" stroke-width="6.75" stroke="rgba(6, 12, 15, 1)"></path><path d="M386.5 240.16 L386.5 246.91" stroke-width="6.75" stroke="rgba(0, 184, 171, 1)"></path><path d="M386.5 257.03499999999997 L386.5 312.215" stroke-width="6.75" stroke="rgba(0, 184, 171, 1)"></path><path d="M395.5 56.455 L395.5 96.955" stroke-width="6.75" stroke="rgba(6, 12, 15, 1)"></path><path d="M395.5 107.08 L395.5 140.82999999999998" stroke-width="6.75" stroke="rgba(0, 184, 171, 1)"></path><path d="M395.5 150.95499999999998 L395.5 303.545" stroke-width="6.75" stroke="rgba(6, 12, 15, 1)"></path><path d="M404.5 125.255 L404.5 192.755" stroke-width="6.75" stroke="rgba(6, 12, 15, 1)"></path><path d="M404.5 202.88 L404.5 234.745" stroke-width="6.75" stroke="rgba(2, 161, 182, 1)"></path><path d="M413.5 133.965 L413.5 226.035" stroke-width="6.75" stroke="rgba(6, 12, 15, 1)"></path><path d="M422.5 131.725 L422.5 178.975" stroke-width="6.75" stroke="rgba(2, 161, 182, 1)"></path><path d="M422.5 189.1 L422.5 195.85" stroke-width="6.75" stroke="rgba(6, 12, 15, 1)"></path><path d="M422.5 205.975 L422.5 228.275" stroke-width="6.75" stroke="rgba(0, 184, 171, 1)"></path><path d="M431.5 104.275 L431.5 131.275" stroke-width="6.75" stroke="rgba(0, 184, 171, 1)"></path><path d="M431.5 141.4 L431.5 175.15" stroke-width="6.75" stroke="rgba(2, 161, 182, 1)"></path><path d="M431.5 185.275 L431.5 255.72500000000002" stroke-width="6.75" stroke="rgba(0, 184, 171, 1)"></path><path d="M440.5 157.885 L440.5 178.135" stroke-width="6.75" stroke="rgba(2, 161, 182, 1)"></path><path d="M440.5 188.26 L440.5 202.115" stroke-width="6.75" stroke="rgba(6, 12, 15, 1)"></path><path d="M449.5 16.865000000000002 L449.5 266.615" stroke-width="6.75" stroke="rgba(2, 161, 182, 1)"></path><path d="M449.5 276.74 L449.5 343.135" stroke-width="6.75" stroke="rgba(6, 12, 15, 1)"></path><path d="M458.5 59.235 L458.5 200.985" stroke-width="6.75" stroke="rgba(6, 12, 15, 1)"></path><path d="M458.5 211.11 L458.5 224.61" stroke-width="6.75" stroke="rgba(6, 12, 15, 1)"></path><path d="M458.5 234.735 L458.5 300.765" stroke-width="6.75" stroke="rgba(6, 12, 15, 1)"></path><path d="M467.5 93.675 L467.5 194.925" stroke-width="6.75" stroke="rgba(0, 184, 171, 1)"></path><path d="M467.5 205.05 L467.5 266.325" stroke-width="6.75" stroke="rgba(6, 12, 15, 1)"></path><path d="M476.5 118.225 L476.5 241.775" stroke-width="6.75" stroke="rgba(0, 184, 171, 1)"></path><path d="M485.5 39.475 L485.5 320.525" stroke-width="6.75" stroke="rgba(2, 161, 182, 1)"></path><path d="M494.5 104.015 L494.5 255.985" stroke-width="6.75" stroke="rgba(6, 12, 15, 1)"></path><path d="M503.5 97.515 L503.5 212.265" stroke-width="6.75" stroke="rgba(0, 184, 171, 1)"></path><path d="M503.5 222.39 L503.5 242.64" stroke-width="6.75" stroke="rgba(6, 12, 15, 1)"></path><path d="M503.5 252.765 L503.5 262.485" stroke-width="6.75" stroke="rgba(0, 184, 171, 1)"></path><path d="M512.5 116.655 L512.5 177.405" stroke-width="6.75" stroke="rgba(0, 184, 171, 1)"></path><path d="M512.5 187.53 L512.5 243.345" stroke-width="6.75" stroke="rgba(6, 12, 15, 1)"></path><path d="M521.5 136.505 L521.5 223.495" stroke-width="6.75" stroke="rgba(0, 184, 171, 1)"></path><path d="M530.5 6.595000000000001 L530.5 353.405" stroke-width="6.75" stroke="rgba(2, 161, 182, 1)"></path><path d="M539.5 152.345 L539.5 179.345" stroke-width="6.75" stroke="rgba(6, 12, 15, 1)"></path><path d="M539.5 189.47 L539.5 207.655" stroke-width="6.75" stroke="rgba(0, 184, 171, 1)"></path><path d="M548.5 66.805 L548.5 293.195" stroke-width="6.75" stroke="rgba(6, 12, 15, 1)"></path><path d="M557.5 78.265 L557.5 281.735" stroke-width="6.75" stroke="rgba(6, 12, 15, 1)"></path><path d="M566.5 39.425 L566.5 86.675" stroke-width="6.75" stroke="rgba(6, 12, 15, 1)"></path><path d="M566.5 96.8 L566.5 320.575" stroke-width="6.75" stroke="rgba(6, 12, 15, 1)"></path><path d="M575.5 33.065 L575.5 73.565" stroke-width="6.75" stroke="rgba(0, 184, 171, 1)"></path><path d="M575.5 83.69 L575.5 191.69" stroke-width="6.75" stroke="rgba(6, 12, 15, 1)"></path><path d="M575.5 201.815 L575.5 326.935" stroke-width="6.75" stroke="rgba(0, 184, 171, 1)"></path><path d="M584.5 14.365 L584.5 102.115" stroke-width="6.75" stroke="rgba(6, 12, 15, 1)"></path><path d="M584.5 112.24 L584.5 199.99" stroke-width="6.75" stroke="rgba(6, 12, 15, 1)"></path><path d="M584.5 210.115 L584.5 345.635" stroke-width="6.75" stroke="rgba(6, 12, 15, 1)"></path><path d="M593.5 11.285 L593.5 159.785" stroke-width="6.75" stroke="rgba(6, 12, 15, 1)"></path><path d="M593.5 169.91 L593.5 176.66" stroke-width="6.75" stroke="rgba(2, 161, 182, 1)"></path><path d="M593.5 186.785 L593.5 348.715" stroke-width="6.75" stroke="rgba(6, 12, 15, 1)"></path><path d="M602.5 26.575 L602.5 310.075" stroke-width="6.75" stroke="rgba(6, 12, 15, 1)"></path><path d="M602.5 320.2 L602.5 333.425" stroke-width="6.75" stroke="rgba(6, 12, 15, 1)"></path><path d="M611.5 68.235 L611.5 182.985" stroke-width="6.75" stroke="rgba(6, 12, 15, 1)"></path><path d="M611.5 193.11 L611.5 240.36" stroke-width="6.75" stroke="rgba(6, 12, 15, 1)"></path><path d="M611.5 250.485 L611.5 291.755" stroke-width="6.75" stroke="rgba(0, 184, 171, 1)"></path><path d="M620.5 110.185 L620.5 137.185" stroke-width="6.75" stroke="rgba(0, 184, 171, 1)"></path><path d="M620.5 147.31 L620.5 174.31" stroke-width="6.75" stroke="rgba(2, 161, 182, 1)"></path><path d="M620.5 184.435 L620.5 249.815" stroke-width="6.75" stroke="rgba(6, 12, 15, 1)"></path><path d="M629.5 65.36500000000001 L629.5 153.115" stroke-width="6.75" stroke="rgba(6, 12, 15, 1)"></path><path d="M629.5 163.24 L629.5 294.635" stroke-width="6.75" stroke="rgba(6, 12, 15, 1)"></path><path d="M638.5 16.595 L638.5 165.095" stroke-width="6.75" stroke="rgba(6, 12, 15, 1)"></path><path d="M638.5 175.22 L638.5 343.405" stroke-width="6.75" stroke="rgba(2, 161, 182, 1)"></path><path d="M647.5 116.205 L647.5 183.70499999999998" stroke-width="6.75" stroke="rgba(6, 12, 15, 1)"></path><path d="M647.5 193.82999999999998 L647.5 214.07999999999998" stroke-width="6.75" stroke="rgba(2, 161, 182, 1)"></path><path d="M647.5 224.20499999999998 L647.5 243.795" stroke-width="6.75" stroke="rgba(0, 184, 171, 1)"></path><path d="M656.5 54.405 L656.5 88.155" stroke-width="6.75" stroke="rgba(6, 12, 15, 1)"></path><path d="M656.5 98.28 L656.5 305.595" stroke-width="6.75" stroke="rgba(2, 161, 182, 1)"></path><path d="M665.5 4.5649999999999995 L665.5 112.565" stroke-width="6.75" stroke="rgba(6, 12, 15, 1)"></path><path d="M665.5 122.69 L665.5 230.69" stroke-width="6.75" stroke="rgba(6, 12, 15, 1)"></path><path d="M665.5 240.815 L665.5 355.435" stroke-width="6.75" stroke="rgba(6, 12, 15, 1)"></path><path d="M674.5 107.075 L674.5 188.075" stroke-width="6.75" stroke="rgba(2, 161, 182, 1)"></path><path d="M674.5 198.2 L674.5 252.925" stroke-width="6.75" stroke="rgba(0, 184, 171, 1)"></path><path d="M683.5 90.815 L683.5 138.065" stroke-width="6.75" stroke="rgba(6, 12, 15, 1)"></path><path d="M683.5 148.19 L683.5 269.185" stroke-width="6.75" stroke="rgba(0, 184, 171, 1)"></path><path d="M692.5 81.405 L692.5 162.405" stroke-width="6.75" stroke="rgba(6, 12, 15, 1)"></path><path d="M692.5 172.53 L692.5 192.78" stroke-width="6.75" stroke="rgba(6, 12, 15, 1)"></path><path d="M692.5 202.905 L692.5 278.595" stroke-width="6.75" stroke="rgba(2, 161, 182, 1)"></path><path d="M701.5 108.755 L701.5 210.005" stroke-width="6.75" stroke="rgba(6, 12, 15, 1)"></path><path d="M701.5 220.13 L701.5 233.63" stroke-width="6.75" stroke="rgba(6, 12, 15, 1)"></path><path d="M701.5 243.755 L701.5 251.245" stroke-width="6.75" stroke="rgba(0, 184, 171, 1)"></path><path d="M710.5 135.215 L710.5 155.465" stroke-width="6.75" stroke="rgba(2, 161, 182, 1)"></path><path d="M710.5 165.59 L710.5 206.09" stroke-width="6.75" stroke="rgba(6, 12, 15, 1)"></path><path d="M710.5 216.215 L710.5 224.785" stroke-width="6.75" stroke="rgba(2, 161, 182, 1)"></path><path d="M719.5 127.605 L719.5 141.10500000000002" stroke-width="6.75" stroke="rgba(6, 12, 15, 1)"></path><path d="M719.5 151.23000000000002 L719.5 171.48000000000002" stroke-width="6.75" stroke="rgba(0, 184, 171, 1)"></path><path d="M719.5 181.60500000000002 L719.5 232.395" stroke-width="6.75" stroke="rgba(0, 184, 171, 1)"></path><path d="M728.5 91.165 L728.5 185.66500000000002" stroke-width="6.75" stroke="rgba(6, 12, 15, 1)"></path><path d="M728.5 195.79000000000002 L728.5 216.04000000000002" stroke-width="6.75" stroke="rgba(0, 184, 171, 1)"></path><path d="M728.5 226.16500000000002 L728.5 268.835" stroke-width="6.75" stroke="rgba(0, 184, 171, 1)"></path><path d="M737.5 86.845 L737.5 201.595" stroke-width="6.75" stroke="rgba(6, 12, 15, 1)"></path><path d="M737.5 211.72 L737.5 231.97" stroke-width="6.75" stroke="rgba(2, 161, 182, 1)"></path><path d="M737.5 242.095 L737.5 273.145" stroke-width="6.75" stroke="rgba(0, 184, 171, 1)"></path><path d="M746.5 88.645 L746.5 142.64499999999998" stroke-width="6.75" stroke="rgba(2, 161, 182, 1)"></path><path d="M746.5 152.76999999999998 L746.5 271.355" stroke-width="6.75" stroke="rgba(0, 184, 171, 1)"></path><path d="M755.5 13.795 L755.5 250.045" stroke-width="6.75" stroke="rgba(0, 184, 171, 1)"></path><path d="M755.5 260.17 L755.5 273.67" stroke-width="6.75" stroke="rgba(2, 161, 182, 1)"></path><path d="M755.5 283.795 L755.5 346.205" stroke-width="6.75" stroke="rgba(6, 12, 15, 1)"></path><path d="M764.5 45.035 L764.5 58.535" stroke-width="6.75" stroke="rgba(6, 12, 15, 1)"></path><path d="M764.5 68.66 L764.5 314.965" stroke-width="6.75" stroke="rgba(6, 12, 15, 1)"></path><path d="M773.5 19.555 L773.5 60.055" stroke-width="6.75" stroke="rgba(2, 161, 182, 1)"></path><path d="M773.5 70.18 L773.5 130.93" stroke-width="6.75" stroke="rgba(6, 12, 15, 1)"></path><path d="M773.5 141.055 L773.5 340.445" stroke-width="6.75" stroke="rgba(6, 12, 15, 1)"></path><path d="M782.5 143.785 L782.5 170.785" stroke-width="6.75" stroke="rgba(0, 184, 171, 1)"></path><path d="M782.5 180.91 L782.5 216.215" stroke-width="6.75" stroke="rgba(2, 161, 182, 1)"></path><path d="M791.5 100.365 L791.5 154.365" stroke-width="6.75" stroke="rgba(0, 184, 171, 1)"></path><path d="M791.5 164.49 L791.5 259.635" stroke-width="6.75" stroke="rgba(6, 12, 15, 1)"></path><path d="M800.5 43.055 L800.5 63.305" stroke-width="6.75" stroke="rgba(6, 12, 15, 1)"></path><path d="M800.5 73.43 L800.5 316.945" stroke-width="6.75" stroke="rgba(0, 184, 171, 1)"></path><path d="M809.5 83.755 L809.5 97.255" stroke-width="6.75" stroke="rgba(6, 12, 15, 1)"></path><path d="M809.5 107.38 L809.5 276.245" stroke-width="6.75" stroke="rgba(0, 184, 171, 1)"></path><path d="M818.5 85.185 L818.5 274.815" stroke-width="6.75" stroke="rgba(0, 184, 171, 1)"></path><path d="M827.5 28.155 L827.5 291.405" stroke-width="6.75" stroke="rgba(2, 161, 182, 1)"></path><path d="M827.5 301.53 L827.5 308.28" stroke-width="6.75" stroke="rgba(6, 12, 15, 1)"></path><path d="M827.5 318.405 L827.5 331.855" stroke-width="6.75" stroke="rgba(6, 12, 15, 1)"></path><path d="M836.5 133.855 L836.5 160.855" stroke-width="6.75" stroke="rgba(0, 184, 171, 1)"></path><path d="M836.5 170.98 L836.5 184.48" stroke-width="6.75" stroke="rgba(6, 12, 15, 1)"></path><path d="M836.5 194.605 L836.5 226.145" stroke-width="6.75" stroke="rgba(2, 161, 182, 1)"></path><path d="M845.5 124.285 L845.5 164.785" stroke-width="6.75" stroke="rgba(0, 184, 171, 1)"></path><path d="M845.5 174.91 L845.5 215.41" stroke-width="6.75" stroke="rgba(0, 184, 171, 1)"></path><path d="M845.5 225.535 L845.5 235.715" stroke-width="6.75" stroke="rgba(6, 12, 15, 1)"></path><path d="M854.5 89.515 L854.5 157.015" stroke-width="6.75" stroke="rgba(6, 12, 15, 1)"></path><path d="M854.5 167.14 L854.5 241.39" stroke-width="6.75" stroke="rgba(6, 12, 15, 1)"></path><path d="M854.5 251.515 L854.5 270.485" stroke-width="6.75" stroke="rgba(6, 12, 15, 1)"></path><path d="M863.5 42.535 L863.5 317.465" stroke-width="6.75" stroke="rgba(0, 184, 171, 1)"></path><path d="M872.5 80.905 L872.5 101.155" stroke-width="6.75" stroke="rgba(0, 184, 171, 1)"></path><path d="M872.5 111.28 L872.5 199.03" stroke-width="6.75" stroke="rgba(0, 184, 171, 1)"></path><path d="M872.5 209.155 L872.5 279.095" stroke-width="6.75" stroke="rgba(0, 184, 171, 1)"></path><path d="M881.5 14.915 L881.5 109.41499999999999" stroke-width="6.75" stroke="rgba(2, 161, 182, 1)"></path><path d="M881.5 119.53999999999999 L881.5 187.04" stroke-width="6.75" stroke="rgba(2, 161, 182, 1)"></path><path d="M881.5 197.165 L881.5 345.085" stroke-width="6.75" stroke="rgba(2, 161, 182, 1)"></path><path d="M890.5 96.185 L890.5 177.185" stroke-width="6.75" stroke="rgba(2, 161, 182, 1)"></path><path d="M890.5 187.31 L890.5 221.06" stroke-width="6.75" stroke="rgba(6, 12, 15, 1)"></path><path d="M890.5 231.185 L890.5 263.815" stroke-width="6.75" stroke="rgba(0, 184, 171, 1)"></path><path d="M899.5 130.985 L899.5 178.235" stroke-width="6.75" stroke="rgba(6, 12, 15, 1)"></path><path d="M899.5 188.36 L899.5 229.015" stroke-width="6.75" stroke="rgba(2, 161, 182, 1)"></path><path d="M908.5 124.305 L908.5 171.555" stroke-width="6.75" stroke="rgba(0, 184, 171, 1)"></path><path d="M908.5 181.68 L908.5 235.695" stroke-width="6.75" stroke="rgba(2, 161, 182, 1)"></path><path d="M917.5 69.205 L917.5 197.45499999999998" stroke-width="6.75" stroke="rgba(0, 184, 171, 1)"></path><path d="M917.5 207.57999999999998 L917.5 254.82999999999998" stroke-width="6.75" stroke="rgba(6, 12, 15, 1)"></path><path d="M917.5 264.955 L917.5 290.795" stroke-width="6.75" stroke="rgba(6, 12, 15, 1)"></path><path d="M926.5 33.155 L926.5 147.905" stroke-width="6.75" stroke="rgba(6, 12, 15, 1)"></path><path d="M926.5 158.03 L926.5 326.845" stroke-width="6.75" stroke="rgba(6, 12, 15, 1)"></path><path d="M935.5 62.365 L935.5 136.615" stroke-width="6.75" stroke="rgba(6, 12, 15, 1)"></path><path d="M935.5 146.74 L935.5 261.49" stroke-width="6.75" stroke="rgba(0, 184, 171, 1)"></path><path d="M935.5 271.615 L935.5 297.635" stroke-width="6.75" stroke="rgba(6, 12, 15, 1)"></path><path d="M944.5 152.035 L944.5 207.965" stroke-width="6.75" stroke="rgba(6, 12, 15, 1)"></path><path d="M953.5 3.595 L953.5 192.595" stroke-width="6.75" stroke="rgba(6, 12, 15, 1)"></path><path d="M953.5 202.72 L953.5 222.97" stroke-width="6.75" stroke="rgba(0, 184, 171, 1)"></path><path d="M953.5 233.095 L953.5 356.405" stroke-width="6.75" stroke="rgba(0, 184, 171, 1)"></path><path d="M962.5 108.095 L962.5 141.845" stroke-width="6.75" stroke="rgba(2, 161, 182, 1)"></path><path d="M962.5 151.97 L962.5 251.905" stroke-width="6.75" stroke="rgba(0, 184, 171, 1)"></path><path d="M971.5 154.975 L971.5 161.725" stroke-width="6.75" stroke="rgba(6, 12, 15, 1)"></path><path d="M971.5 171.85 L971.5 205.025" stroke-width="6.75" stroke="rgba(6, 12, 15, 1)"></path><path d="M980.5 54.705 L980.5 263.955" stroke-width="6.75" stroke="rgba(2, 161, 182, 1)"></path><path d="M980.5 274.08 L980.5 305.295" stroke-width="6.75" stroke="rgba(0, 184, 171, 1)"></path><path d="M989.5 40.185 L989.5 60.435" stroke-width="6.75" stroke="rgba(6, 12, 15, 1)"></path><path d="M989.5 70.56 L989.5 138.06" stroke-width="6.75" stroke="rgba(6, 12, 15, 1)"></path><path d="M989.5 148.185 L989.5 319.815" stroke-width="6.75" stroke="rgba(6, 12, 15, 1)"></path><path d="M998.5 146.115 L998.5 213.885" stroke-width="6.75" stroke="rgba(2, 161, 182, 1)"></path><path d="M1007.5 48.745 L1007.5 311.255" stroke-width="6.75" stroke="rgba(6, 12, 15, 1)"></path><path d="M1016.5 18.634999999999998 L1016.5 180.635" stroke-width="6.75" stroke="rgba(6, 12, 15, 1)"></path><path d="M1016.5 190.76 L1016.5 305.51" stroke-width="6.75" stroke="rgba(6, 12, 15, 1)"></path><path d="M1016.5 315.635 L1016.5 341.365" stroke-width="6.75" stroke="rgba(6, 12, 15, 1)"></path><path d="M1025.5 79.675 L1025.5 147.175" stroke-width="6.75" stroke="rgba(6, 12, 15, 1)"></path><path d="M1025.5 157.3 L1025.5 218.05" stroke-width="6.75" stroke="rgba(6, 12, 15, 1)"></path><path d="M1025.5 228.175 L1025.5 280.325" stroke-width="6.75" stroke="rgba(0, 184, 171, 1)"></path><path d="M1034.5 32.695 L1034.5 208.195" stroke-width="6.75" stroke="rgba(0, 184, 171, 1)"></path><path d="M1034.5 218.32 L1034.5 327.305" stroke-width="6.75" stroke="rgba(6, 12, 15, 1)"></path><path d="M1043.5 36.815 L1043.5 286.565" stroke-width="6.75" stroke="rgba(2, 161, 182, 1)"></path><path d="M1043.5 296.69 L1043.5 303.44" stroke-width="6.75" stroke="rgba(6, 12, 15, 1)"></path><path d="M1043.5 313.565 L1043.5 323.185" stroke-width="6.75" stroke="rgba(6, 12, 15, 1)"></path><path d="M1052.5 49.525 L1052.5 150.775" stroke-width="6.75" stroke="rgba(6, 12, 15, 1)"></path><path d="M1052.5 160.9 L1052.5 282.4" stroke-width="6.75" stroke="rgba(2, 161, 182, 1)"></path><path d="M1052.5 292.525 L1052.5 310.475" stroke-width="6.75" stroke="rgba(0, 184, 171, 1)"></path><path d="M1061.5 125.585 L1061.5 159.33499999999998" stroke-width="6.75" stroke="rgba(6, 12, 15, 1)"></path><path d="M1061.5 169.45999999999998 L1061.5 189.70999999999998" stroke-width="6.75" stroke="rgba(2, 161, 182, 1)"></path><path d="M1061.5 199.83499999999998 L1061.5 234.415" stroke-width="6.75" stroke="rgba(6, 12, 15, 1)"></path><path d="M1070.5 38.755 L1070.5 321.245" stroke-width="6.75" stroke="rgba(6, 12, 15, 1)"></path><path d="M1079.5 40.405 L1079.5 53.905" stroke-width="6.75" stroke="rgba(6, 12, 15, 1)"></path><path d="M1079.5 64.03 L1079.5 145.03" stroke-width="6.75" stroke="rgba(6, 12, 15, 1)"></path><path d="M1079.5 155.155 L1079.5 319.605" stroke-width="6.75" stroke="rgba(2, 161, 182, 1)"></path><path d="M1088.5 140.125 L1088.5 167.125" stroke-width="6.75" stroke="rgba(0, 184, 171, 1)"></path><path d="M1088.5 177.25 L1088.5 184" stroke-width="6.75" stroke="rgba(6, 12, 15, 1)"></path><path d="M1088.5 194.125 L1088.5 219.875" stroke-width="6.75" stroke="rgba(6, 12, 15, 1)"></path><path d="M1097.5 142.435 L1097.5 169.435" stroke-width="6.75" stroke="rgba(6, 12, 15, 1)"></path><path d="M1097.5 179.56 L1097.5 217.565" stroke-width="6.75" stroke="rgba(0, 184, 171, 1)"></path><path d="M1106.5 134.665 L1106.5 161.665" stroke-width="6.75" stroke="rgba(6, 12, 15, 1)"></path><path d="M1106.5 171.79 L1106.5 225.335" stroke-width="6.75" stroke="rgba(2, 161, 182, 1)"></path><path d="M1115.5 50.655 L1115.5 64.155" stroke-width="6.75" stroke="rgba(6, 12, 15, 1)"></path><path d="M1115.5 74.28 L1115.5 309.355" stroke-width="6.75" stroke="rgba(6, 12, 15, 1)"></path><path d="M1124.5 101.545 L1124.5 135.29500000000002" stroke-width="6.75" stroke="rgba(2, 161, 182, 1)"></path><path d="M1124.5 145.42000000000002 L1124.5 258.455" stroke-width="6.75" stroke="rgba(2, 161, 182, 1)"></path><path d="M1133.5 122.715 L1133.5 163.215" stroke-width="6.75" stroke="rgba(2, 161, 182, 1)"></path><path d="M1133.5 173.34 L1133.5 213.84" stroke-width="6.75" stroke="rgba(0, 184, 171, 1)"></path><path d="M1133.5 223.965 L1133.5 237.285" stroke-width="6.75" stroke="rgba(6, 12, 15, 1)"></path><path d="M1142.5 162.845 L1142.5 197.155" stroke-width="6.75" stroke="rgba(6, 12, 15, 1)"></path><path d="M1151.5 143.865 L1151.5 157.365" stroke-width="6.75" stroke="rgba(2, 161, 182, 1)"></path><path d="M1151.5 167.49 L1151.5 187.74" stroke-width="6.75" stroke="rgba(0, 184, 171, 1)"></path><path d="M1151.5 197.865 L1151.5 216.135" stroke-width="6.75" stroke="rgba(0, 184, 171, 1)"></path><path d="M1160.5 18.314999999999998 L1160.5 139.815" stroke-width="6.75" stroke="rgba(6, 12, 15, 1)"></path><path d="M1160.5 149.94 L1160.5 341.685" stroke-width="6.75" stroke="rgba(6, 12, 15, 1)"></path><path d="M1169.5 54.285 L1169.5 189.285" stroke-width="6.75" stroke="rgba(0, 184, 171, 1)"></path><path d="M1169.5 199.41 L1169.5 246.66" stroke-width="6.75" stroke="rgba(2, 161, 182, 1)"></path><path d="M1169.5 256.78499999999997 L1169.5 305.725" stroke-width="6.75" stroke="rgba(6, 12, 15, 1)"></path><path d="M1178.5 120.685 L1178.5 147.685" stroke-width="6.75" stroke="rgba(6, 12, 15, 1)"></path><path d="M1178.5 157.81 L1178.5 239.315" stroke-width="6.75" stroke="rgba(0, 184, 171, 1)"></path><path d="M1187.5 38.755 L1187.5 72.505" stroke-width="6.75" stroke="rgba(0, 184, 171, 1)"></path><path d="M1187.5 82.63 L1187.5 183.88" stroke-width="6.75" stroke="rgba(2, 161, 182, 1)"></path><path d="M1187.5 194.005 L1187.5 321.255" stroke-width="6.75" stroke="rgba(0, 184, 171, 1)"></path><path d="M1196.5 47.485 L1196.5 236.485" stroke-width="6.75" stroke="rgba(6, 12, 15, 1)"></path><path d="M1196.5 246.61 L1196.5 280.36" stroke-width="6.75" stroke="rgba(6, 12, 15, 1)"></path><path d="M1196.5 290.485 L1196.5 312.515" stroke-width="6.75" stroke="rgba(6, 12, 15, 1)"></path><path d="M1205.5 7.245 L1205.5 155.745" stroke-width="6.75" stroke="rgba(0, 184, 171, 1)"></path><path d="M1205.5 165.87 L1205.5 307.62" stroke-width="6.75" stroke="rgba(2, 161, 182, 1)"></path><path d="M1205.5 317.745 L1205.5 352.755" stroke-width="6.75" stroke="rgba(6, 12, 15, 1)"></path><path d="M1214.5 11.815 L1214.5 221.065" stroke-width="6.75" stroke="rgba(6, 12, 15, 1)"></path><path d="M1214.5 231.19 L1214.5 325.69" stroke-width="6.75" stroke="rgba(6, 12, 15, 1)"></path><path d="M1214.5 335.815 L1214.5 348.185" stroke-width="6.75" stroke="rgba(6, 12, 15, 1)"></path><path d="M1223.5 110.345 L1223.5 123.845" stroke-width="6.75" stroke="rgba(6, 12, 15, 1)"></path><path d="M1223.5 133.97 L1223.5 228.47" stroke-width="6.75" stroke="rgba(0, 184, 171, 1)"></path><path d="M1223.5 238.595 L1223.5 249.655" stroke-width="6.75" stroke="rgba(6, 12, 15, 1)"></path><path d="M1232.5 42.195 L1232.5 190.695" stroke-width="6.75" stroke="rgba(2, 161, 182, 1)"></path><path d="M1232.5 200.82 L1232.5 281.82" stroke-width="6.75" stroke="rgba(2, 161, 182, 1)"></path><path d="M1232.5 291.945 L1232.5 317.805" stroke-width="6.75" stroke="rgba(0, 184, 171, 1)"></path><path d="M1241.5 5.165 L1241.5 92.915" stroke-width="6.75" stroke="rgba(2, 161, 182, 1)"></path><path d="M1241.5 103.04 L1241.5 354.835" stroke-width="6.75" stroke="rgba(2, 161, 182, 1)"></path><path d="M1250.5 140.865 L1250.5 181.365" stroke-width="6.75" stroke="rgba(6, 12, 15, 1)"></path><path d="M1250.5 191.49 L1250.5 219.135" stroke-width="6.75" stroke="rgba(2, 161, 182, 1)"></path><path d="M1259.5 140.505 L1259.5 219.495" stroke-width="6.75" stroke="rgba(6, 12, 15, 1)"></path><path d="M1268.5 125.345 L1268.5 179.345" stroke-width="6.75" stroke="rgba(0, 184, 171, 1)"></path><path d="M1268.5 189.47 L1268.5 209.72" stroke-width="6.75" stroke="rgba(2, 161, 182, 1)"></path><path d="M1268.5 219.845 L1268.5 234.655" stroke-width="6.75" stroke="rgba(6, 12, 15, 1)"></path><path d="M1277.5 89.825 L1277.5 177.575" stroke-width="6.75" stroke="rgba(0, 184, 171, 1)"></path><path d="M1277.5 187.7 L1277.5 214.7" stroke-width="6.75" stroke="rgba(6, 12, 15, 1)"></path><path d="M1277.5 224.825 L1277.5 270.175" stroke-width="6.75" stroke="rgba(2, 161, 182, 1)"></path><path d="M1286.5 153.225 L1286.5 206.775" stroke-width="6.75" stroke="rgba(0, 184, 171, 1)"></path><path d="M1295.5 31.095 L1295.5 280.845" stroke-width="6.75" stroke="rgba(2, 161, 182, 1)"></path><path d="M1295.5 290.97 L1295.5 328.905" stroke-width="6.75" stroke="rgba(2, 161, 182, 1)"></path><path d="M1304.5 25.435 L1304.5 200.935" stroke-width="6.75" stroke="rgba(2, 161, 182, 1)"></path><path d="M1304.5 211.06 L1304.5 224.56" stroke-width="6.75" stroke="rgba(6, 12, 15, 1)"></path><path d="M1304.5 234.685 L1304.5 334.565" stroke-width="6.75" stroke="rgba(6, 12, 15, 1)"></path><path d="M1313.5 9.655000000000001 L1313.5 266.155" stroke-width="6.75" stroke="rgba(6, 12, 15, 1)"></path><path d="M1313.5 276.28 L1313.5 350.345" stroke-width="6.75" stroke="rgba(6, 12, 15, 1)"></path><path d="M1322.5 35.575 L1322.5 324.425" stroke-width="6.75" stroke="rgba(2, 161, 182, 1)"></path><path d="M1331.5 83.375 L1331.5 171.125" stroke-width="6.75" stroke="rgba(6, 12, 15, 1)"></path><path d="M1331.5 181.25 L1331.5 235.25" stroke-width="6.75" stroke="rgba(2, 161, 182, 1)"></path><path d="M1331.5 245.375 L1331.5 276.625" stroke-width="6.75" stroke="rgba(2, 161, 182, 1)"></path></g></g><defs><mask id="SvgjsMask1559"><rect width="1340" height="360" fill="#ffffff"></rect></mask></defs></svg>