<?xml version="1.0" ?><svg xmlns="http://www.w3.org/2000/svg" xmlns:xlink="http://www.w3.org/1999/xlink" version="1.1" id="Layer_1" viewBox="0 0 100 100" style="enable-background:new 0 0 100 100;" xml:space="preserve"><style type="text/css">
	.st0{fill:#C3E7FC;}
	.st1{fill:#005EB8;}
	.st2{fill:#FFFFFF;}
	.st3{fill:#70BEF2;}
	.st4{fill:#0F7BDC;}
	.st5{fill:#FBB040;}
	.st6{fill:#0F89DB;}
	.st7{fill:#ED8B00;}
</style><g><g><rect x="49.4" y="22.6" transform="matrix(0.8702 -0.4928 0.4928 0.8702 -18.1391 31.1607)" class="st0" width="1.4" height="54.7"/></g><g><rect x="22.6" y="49.3" class="st0" width="54.8" height="1.4"/></g><g><rect x="22.6" y="49.3" transform="matrix(0.497 -0.8678 0.8678 0.497 -18.2071 68.4597)" class="st0" width="54.7" height="1.4"/></g><g><g><g><path class="st1" d="M62.8,40.8H37.4c-0.4,0-0.8,0.4-0.8,0.8v16.5h27V41.6C63.5,41.2,63.2,40.8,62.8,40.8z"/></g></g><g><g><rect x="37.7" y="41.7" class="st2" width="24.7" height="16.4"/></g></g><g><g><rect x="37.7" y="41.7" class="st3" width="24.7" height="16.4"/></g><g><rect x="38.4" y="42.4" class="st0" width="23.4" height="15"/></g><g><g><circle class="st3" cx="61" cy="43" r="0.3"/></g><g><circle class="st3" cx="60" cy="43" r="0.3"/></g><g><circle class="st3" cx="59" cy="43" r="0.3"/></g><g><rect x="39.4" y="44.5" class="st4" width="21.4" height="5.5"/></g><g><g><circle class="st5" cx="50.1" cy="52.8" r="1.9"/></g></g><g><rect x="46.8" y="55.4" class="st3" width="6.5" height="1"/></g><g><g><circle class="st5" cx="42.6" cy="52.8" r="1.9"/></g></g><g><rect x="39.4" y="55.4" class="st3" width="6.5" height="1"/></g><g><g><circle class="st5" cx="57.5" cy="52.8" r="1.9"/></g></g><g><rect x="54.3" y="55.4" class="st3" width="6.5" height="1"/></g></g><g><rect x="38.4" y="42.4" class="st1" width="23.4" height="1.1"/></g></g><g><g><path class="st4" d="M66.1,58.1H34l0,0c0,0.6,0.5,1,1,1h30C65.7,59.2,66.1,58.7,66.1,58.1L66.1,58.1z"/></g></g><g><g><path class="st0" d="M54.6,58.1h-9.1c0,0-0.1,0-0.1,0.1v0c0,0.3,0.2,0.5,0.5,0.5h8.3C54.4,58.6,54.7,58.4,54.6,58.1L54.6,58.1      C54.7,58.1,54.6,58.1,54.6,58.1z"/></g></g></g><g><path class="st0" d="M64.2,74.4H36L21.9,49.9L36,25.5h28.2l14.1,24.4L64.2,74.4z M36.7,73h26.6l13.3-23.1L63.4,26.9H36.7    L23.4,49.9L36.7,73z"/></g><g><circle class="st3" cx="22.6" cy="49.9" r="6.4"/></g><g><circle class="st4" cx="77.5" cy="49.9" r="6.4"/></g><g><circle class="st3" cx="63.5" cy="26.2" r="6.4"/></g><g><circle class="st1" cx="63.5" cy="73.8" r="6.4"/></g><g><circle class="st4" cx="36.6" cy="26.2" r="6.4"/></g><g><circle class="st6" cx="36.6" cy="73.8" r="6.4"/></g><g><g><circle class="st1" cx="36.6" cy="26.2" r="6.4"/></g><g><path class="st7" d="M36.6,32.6c1.5,0,2.9-0.5,4-1.4c-0.3-0.3-0.6-0.6-1.1-0.8c-1.1-0.4-1.7-1-1.7-2.4c0.3-0.3,0.9-0.8,0.9-1.5     c0.4-0.2,0.3-0.9,0.3-1.3c0-0.4-0.3,0-0.3-1.2c0-1.2-0.3-2.3-2.1-2.3c-1.7,0-2.1,1-2.1,2.3c0,1.2-0.3,0.8-0.3,1.2     c0,0.4-0.1,1.1,0.3,1.3c0,0.7,0.6,1.2,0.9,1.5c0,1.3-0.7,2-1.7,2.4c-0.5,0.2-0.8,0.5-1.1,0.8C33.6,32.1,35,32.6,36.6,32.6z"/></g></g><g><g><circle class="st6" cx="22.6" cy="50" r="6.5"/></g><g><path class="st5" d="M22.6,56.5c1.5,0,3-0.5,4.1-1.4c-0.3-0.3-0.7-0.6-1.1-0.8c-1.1-0.4-1.7-1.1-1.7-2.4c0.4-0.3,0.9-0.8,0.9-1.5     c0.4-0.2,0.3-0.9,0.3-1.3s-0.3,0-0.3-1.2c0-1.2-0.3-2.3-2.1-2.3c-1.8,0-2.1,1-2.1,2.3c0,1.2-0.4,0.8-0.3,1.2     c0,0.4-0.1,1.1,0.3,1.3c0,0.7,0.6,1.2,0.9,1.5c0,1.3-0.7,2-1.7,2.4c-0.5,0.2-0.9,0.5-1.1,0.8C19.7,55.9,21.1,56.5,22.6,56.5z"/></g></g><g><g><circle class="st1" cx="77.5" cy="49.9" r="6.4"/></g><g><path class="st5" d="M77.5,56.3c1.5,0,2.9-0.5,4-1.4c-0.3-0.3-0.6-0.6-1.1-0.8c-1.1-0.4-1.7-1-1.7-2.4c0.3-0.3,0.9-0.8,0.9-1.5     c0.4-0.2,0.3-0.9,0.3-1.3c0-0.4-0.3,0-0.3-1.2c0-1.2-0.3-2.3-2.1-2.3c-1.7,0-2.1,1-2.1,2.3c0,1.2-0.3,0.8-0.3,1.2     c0,0.4-0.1,1.1,0.3,1.3c0,0.7,0.6,1.2,0.9,1.5c0,1.3-0.7,2-1.7,2.4c-0.5,0.2-0.8,0.5-1.1,0.8C74.5,55.8,76,56.3,77.5,56.3z"/></g></g><g><g><circle class="st4" cx="63.5" cy="26.2" r="6.4"/></g><g><path class="st7" d="M60.9,29.9C60,30,59.6,30.5,59.3,31c1.1,1,2.6,1.6,4.2,1.6c1.6,0,3.1-0.6,4.2-1.6c-0.3-0.5-0.7-1-1.6-1.1     c-1.8-0.3-1.5-1.1-1.5-1.1s0.4,0.1,1.8,0.1s1.2-0.9,0.8-1.3s-1-1.9-1-2.7c0-0.7-0.2-3.1-2.7-3.1c-2.5,0-2.7,2.4-2.7,3.1     c0,0.7-0.6,2.3-1,2.7c-0.4,0.4-0.6,1.3,0.8,1.3s1.8-0.1,1.8-0.1S62.7,29.7,60.9,29.9z"/></g></g><g><g><circle class="st1" cx="36.6" cy="73.8" r="6.4"/></g><g><path class="st7" d="M33.9,77.5c-0.9,0.1-1.3,0.6-1.6,1.1c1.1,1,2.6,1.6,4.2,1.6c1.6,0,3.1-0.6,4.2-1.6c-0.3-0.5-0.7-1-1.6-1.1     c-1.8-0.3-1.5-1.1-1.5-1.1s0.4,0.1,1.8,0.1c1.3,0,1.2-0.9,0.8-1.3c-0.4-0.4-1-1.9-1-2.7s-0.2-3.1-2.7-3.1c-2.5,0-2.7,2.4-2.7,3.1     s-0.6,2.3-1,2.7c-0.4,0.4-0.6,1.3,0.8,1.3s1.8-0.1,1.8-0.1S35.7,77.3,33.9,77.5z"/></g></g><g><g><circle class="st3" cx="63.5" cy="73.8" r="6.4"/></g><g><path class="st5" d="M60.9,77.5c-0.9,0.1-1.3,0.6-1.6,1.1c1.1,1,2.6,1.6,4.2,1.6c1.6,0,3.1-0.6,4.2-1.6c-0.3-0.5-0.7-1-1.6-1.1     c-1.8-0.3-1.5-1.1-1.5-1.1s0.4,0.1,1.8,0.1s1.2-0.9,0.8-1.3s-1-1.9-1-2.7s-0.2-3.1-2.7-3.1c-2.5,0-2.7,2.4-2.7,3.1     s-0.6,2.3-1,2.7c-0.4,0.4-0.6,1.3,0.8,1.3s1.8-0.1,1.8-0.1S62.7,77.3,60.9,77.5z"/></g></g></g></svg>