<svg xmlns="http://www.w3.org/2000/svg" version="1.1" xmlns:xlink="http://www.w3.org/1999/xlink" xmlns:svgjs="http://svgjs.dev/svgjs" width="700" height="600" preserveAspectRatio="none" viewBox="0 0 700 600"><g mask="url(&quot;#SvgjsMask2672&quot;)" fill="none"><rect width="700" height="600" x="0" y="0" fill="url(&quot;#SvgjsRadialGradient2673&quot;)"></rect><path d="M-33.01 405.6L-33.01 405.6" stroke="rgba(2, 161, 182, 0.73)" stroke-width="1.5"></path><path d="M-33.01 405.6L-29.59 486.43" stroke="rgba(2, 161, 182, 0.73)" stroke-width="1.5"></path><path d="M-33.01 405.6L64.27 473.34" stroke="rgba(2, 161, 182, 0.73)" stroke-width="1.5"></path><path d="M-33.01 405.6L110.68 486.86" stroke="rgba(2, 161, 182, 0.73)" stroke-width="1.5"></path><path d="M-29.59 486.43L-29.59 486.43" stroke="rgba(2, 161, 182, 0.73)" stroke-width="1.5"></path><path d="M-29.59 486.43L-32.22 580.16" stroke="rgba(2, 161, 182, 0.73)" stroke-width="1.5"></path><path d="M-29.59 486.43L64.27 473.34" stroke="rgba(2, 161, 182, 0.73)" stroke-width="1.5"></path><path d="M-29.59 486.43L35.18 568.46" stroke="rgba(2, 161, 182, 0.73)" stroke-width="1.5"></path><path d="M-29.59 486.43L110.68 486.86" stroke="rgba(2, 161, 182, 0.73)" stroke-width="1.5"></path><path d="M-32.22 580.16L-32.22 580.16" stroke="rgba(2, 161, 182, 0.73)" stroke-width="1.5"></path><path d="M-32.22 580.16L35.18 568.46" stroke="rgba(2, 161, 182, 0.73)" stroke-width="1.5"></path><path d="M-32.22 580.16L-40.28 675.24" stroke="rgba(2, 161, 182, 0.73)" stroke-width="1.5"></path><path d="M-32.22 580.16L40.39 657.66" stroke="rgba(2, 161, 182, 0.73)" stroke-width="1.5"></path><path d="M-32.22 580.16L64.27 473.34" stroke="rgba(2, 161, 182, 0.73)" stroke-width="1.5"></path><path d="M-32.22 580.16L128.48 569.28" stroke="rgba(2, 161, 182, 0.73)" stroke-width="1.5"></path><path d="M-40.28 675.24L-40.28 675.24" stroke="rgba(2, 161, 182, 0.73)" stroke-width="1.5"></path><path d="M-40.28 675.24L40.39 657.66" stroke="rgba(2, 161, 182, 0.73)" stroke-width="1.5"></path><path d="M64.27 473.34L64.27 473.34" stroke="rgba(2, 161, 182, 0.73)" stroke-width="1.5"></path><path d="M64.27 473.34L110.68 486.86" stroke="rgba(2, 161, 182, 0.73)" stroke-width="1.5"></path><path d="M35.18 568.46L35.18 568.46" stroke="rgba(2, 161, 182, 0.73)" stroke-width="1.5"></path><path d="M35.18 568.46L40.39 657.66" stroke="rgba(2, 161, 182, 0.73)" stroke-width="1.5"></path><path d="M40.39 657.66L40.39 657.66" stroke="rgba(2, 161, 182, 0.73)" stroke-width="1.5"></path><path d="M40.39 657.66L138.08 654.33" stroke="rgba(2, 161, 182, 0.73)" stroke-width="1.5"></path><path d="M142.68 390.95L142.68 390.95" stroke="rgba(2, 161, 182, 0.73)" stroke-width="1.5"></path><path d="M142.68 390.95L215.42 390.71" stroke="rgba(2, 161, 182, 0.73)" stroke-width="1.5"></path><path d="M142.68 390.95L110.68 486.86" stroke="rgba(2, 161, 182, 0.73)" stroke-width="1.5"></path><path d="M142.68 390.95L64.27 473.34" stroke="rgba(2, 161, 182, 0.73)" stroke-width="1.5"></path><path d="M142.68 390.95L220.04 498.24" stroke="rgba(2, 161, 182, 0.73)" stroke-width="1.5"></path><path d="M142.68 390.95L298.73 405.2" stroke="rgba(2, 161, 182, 0.73)" stroke-width="1.5"></path><path d="M142.68 390.95L288.12 468.83" stroke="rgba(2, 161, 182, 0.73)" stroke-width="1.5"></path><path d="M110.68 486.86L110.68 486.86" stroke="rgba(2, 161, 182, 0.73)" stroke-width="1.5"></path><path d="M110.68 486.86L128.48 569.28" stroke="rgba(2, 161, 182, 0.73)" stroke-width="1.5"></path><path d="M110.68 486.86L220.04 498.24" stroke="rgba(2, 161, 182, 0.73)" stroke-width="1.5"></path><path d="M128.48 569.28L128.48 569.28" stroke="rgba(2, 161, 182, 0.73)" stroke-width="1.5"></path><path d="M128.48 569.28L198.83 581.25" stroke="rgba(2, 161, 182, 0.73)" stroke-width="1.5"></path><path d="M128.48 569.28L138.08 654.33" stroke="rgba(2, 161, 182, 0.73)" stroke-width="1.5"></path><path d="M128.48 569.28L35.18 568.46" stroke="rgba(2, 161, 182, 0.73)" stroke-width="1.5"></path><path d="M138.08 654.33L138.08 654.33" stroke="rgba(2, 161, 182, 0.73)" stroke-width="1.5"></path><path d="M138.08 654.33L209.64 653.93" stroke="rgba(2, 161, 182, 0.73)" stroke-width="1.5"></path><path d="M138.08 654.33L198.83 581.25" stroke="rgba(2, 161, 182, 0.73)" stroke-width="1.5"></path><path d="M138.08 654.33L35.18 568.46" stroke="rgba(2, 161, 182, 0.73)" stroke-width="1.5"></path><path d="M215.42 390.71L215.42 390.71" stroke="rgba(2, 161, 182, 0.73)" stroke-width="1.5"></path><path d="M215.42 390.71L298.73 405.2" stroke="rgba(2, 161, 182, 0.73)" stroke-width="1.5"></path><path d="M215.42 390.71L288.12 468.83" stroke="rgba(2, 161, 182, 0.73)" stroke-width="1.5"></path><path d="M215.42 390.71L220.04 498.24" stroke="rgba(2, 161, 182, 0.73)" stroke-width="1.5"></path><path d="M215.42 390.71L309.61 308.34" stroke="rgba(2, 161, 182, 0.73)" stroke-width="1.5"></path><path d="M215.42 390.71L110.68 486.86" stroke="rgba(2, 161, 182, 0.73)" stroke-width="1.5"></path><path d="M220.04 498.24L220.04 498.24" stroke="rgba(2, 161, 182, 0.73)" stroke-width="1.5"></path><path d="M220.04 498.24L288.12 468.83" stroke="rgba(2, 161, 182, 0.73)" stroke-width="1.5"></path><path d="M220.04 498.24L198.83 581.25" stroke="rgba(2, 161, 182, 0.73)" stroke-width="1.5"></path><path d="M198.83 581.25L198.83 581.25" stroke="rgba(2, 161, 182, 0.73)" stroke-width="1.5"></path><path d="M198.83 581.25L209.64 653.93" stroke="rgba(2, 161, 182, 0.73)" stroke-width="1.5"></path><path d="M209.64 653.93L209.64 653.93" stroke="rgba(2, 161, 182, 0.73)" stroke-width="1.5"></path><path d="M209.64 653.93L301.49 638.96" stroke="rgba(2, 161, 182, 0.73)" stroke-width="1.5"></path><path d="M209.64 653.93L301.06 587.06" stroke="rgba(2, 161, 182, 0.73)" stroke-width="1.5"></path><path d="M209.64 653.93L128.48 569.28" stroke="rgba(2, 161, 182, 0.73)" stroke-width="1.5"></path><path d="M209.64 653.93L220.04 498.24" stroke="rgba(2, 161, 182, 0.73)" stroke-width="1.5"></path><path d="M309.61 308.34L309.61 308.34" stroke="rgba(2, 161, 182, 0.73)" stroke-width="1.5"></path><path d="M309.61 308.34L390.83 318.13" stroke="rgba(2, 161, 182, 0.73)" stroke-width="1.5"></path><path d="M309.61 308.34L298.73 405.2" stroke="rgba(2, 161, 182, 0.73)" stroke-width="1.5"></path><path d="M309.61 308.34L376.83 404.64" stroke="rgba(2, 161, 182, 0.73)" stroke-width="1.5"></path><path d="M309.61 308.34L385.88 205.6" stroke="rgba(2, 161, 182, 0.73)" stroke-width="1.5"></path><path d="M309.61 308.34L462.54 300.62" stroke="rgba(2, 161, 182, 0.73)" stroke-width="1.5"></path><path d="M298.73 405.2L298.73 405.2" stroke="rgba(2, 161, 182, 0.73)" stroke-width="1.5"></path><path d="M298.73 405.2L288.12 468.83" stroke="rgba(2, 161, 182, 0.73)" stroke-width="1.5"></path><path d="M298.73 405.2L376.83 404.64" stroke="rgba(2, 161, 182, 0.73)" stroke-width="1.5"></path><path d="M288.12 468.83L288.12 468.83" stroke="rgba(2, 161, 182, 0.73)" stroke-width="1.5"></path><path d="M301.06 587.06L301.06 587.06" stroke="rgba(2, 161, 182, 0.73)" stroke-width="1.5"></path><path d="M301.06 587.06L301.49 638.96" stroke="rgba(2, 161, 182, 0.73)" stroke-width="1.5"></path><path d="M301.06 587.06L394.47 578.02" stroke="rgba(2, 161, 182, 0.73)" stroke-width="1.5"></path><path d="M301.49 638.96L301.49 638.96" stroke="rgba(2, 161, 182, 0.73)" stroke-width="1.5"></path><path d="M385.88 205.6L385.88 205.6" stroke="rgba(2, 161, 182, 0.73)" stroke-width="1.5"></path><path d="M385.88 205.6L390.83 318.13" stroke="rgba(2, 161, 182, 0.73)" stroke-width="1.5"></path><path d="M385.88 205.6L462.54 300.62" stroke="rgba(2, 161, 182, 0.73)" stroke-width="1.5"></path><path d="M390.83 318.13L390.83 318.13" stroke="rgba(2, 161, 182, 0.73)" stroke-width="1.5"></path><path d="M390.83 318.13L462.54 300.62" stroke="rgba(2, 161, 182, 0.73)" stroke-width="1.5"></path><path d="M390.83 318.13L376.83 404.64" stroke="rgba(2, 161, 182, 0.73)" stroke-width="1.5"></path><path d="M376.83 404.64L376.83 404.64" stroke="rgba(2, 161, 182, 0.73)" stroke-width="1.5"></path><path d="M376.83 404.64L394.61 473.21" stroke="rgba(2, 161, 182, 0.73)" stroke-width="1.5"></path><path d="M376.83 404.64L479.59 393.59" stroke="rgba(2, 161, 182, 0.73)" stroke-width="1.5"></path><path d="M376.83 404.64L288.12 468.83" stroke="rgba(2, 161, 182, 0.73)" stroke-width="1.5"></path><path d="M394.61 473.21L394.61 473.21" stroke="rgba(2, 161, 182, 0.73)" stroke-width="1.5"></path><path d="M394.61 473.21L475.83 478.65" stroke="rgba(2, 161, 182, 0.73)" stroke-width="1.5"></path><path d="M394.61 473.21L394.47 578.02" stroke="rgba(2, 161, 182, 0.73)" stroke-width="1.5"></path><path d="M394.47 578.02L394.47 578.02" stroke="rgba(2, 161, 182, 0.73)" stroke-width="1.5"></path><path d="M394.47 578.02L489.38 586.4" stroke="rgba(2, 161, 182, 0.73)" stroke-width="1.5"></path><path d="M394.47 578.02L411.61 677.47" stroke="rgba(2, 161, 182, 0.73)" stroke-width="1.5"></path><path d="M394.47 578.02L301.49 638.96" stroke="rgba(2, 161, 182, 0.73)" stroke-width="1.5"></path><path d="M394.47 578.02L475.83 478.65" stroke="rgba(2, 161, 182, 0.73)" stroke-width="1.5"></path><path d="M411.61 677.47L411.61 677.47" stroke="rgba(2, 161, 182, 0.73)" stroke-width="1.5"></path><path d="M411.61 677.47L494.11 670.52" stroke="rgba(2, 161, 182, 0.73)" stroke-width="1.5"></path><path d="M501.79 -34.55L501.79 -34.55" stroke="rgba(2, 161, 182, 0.73)" stroke-width="1.5"></path><path d="M501.79 -34.55L580.58 -61.96" stroke="rgba(2, 161, 182, 0.73)" stroke-width="1.5"></path><path d="M501.79 -34.55L467.6 43.48" stroke="rgba(2, 161, 182, 0.73)" stroke-width="1.5"></path><path d="M467.6 43.48L467.6 43.48" stroke="rgba(2, 161, 182, 0.73)" stroke-width="1.5"></path><path d="M467.6 43.48L486.36 120.88" stroke="rgba(2, 161, 182, 0.73)" stroke-width="1.5"></path><path d="M467.6 43.48L584.68 24.69" stroke="rgba(2, 161, 182, 0.73)" stroke-width="1.5"></path><path d="M467.6 43.48L580.46 147.5" stroke="rgba(2, 161, 182, 0.73)" stroke-width="1.5"></path><path d="M486.36 120.88L486.36 120.88" stroke="rgba(2, 161, 182, 0.73)" stroke-width="1.5"></path><path d="M486.36 120.88L580.46 147.5" stroke="rgba(2, 161, 182, 0.73)" stroke-width="1.5"></path><path d="M486.36 120.88L561.65 212.9" stroke="rgba(2, 161, 182, 0.73)" stroke-width="1.5"></path><path d="M486.36 120.88L385.88 205.6" stroke="rgba(2, 161, 182, 0.73)" stroke-width="1.5"></path><path d="M486.36 120.88L584.68 24.69" stroke="rgba(2, 161, 182, 0.73)" stroke-width="1.5"></path><path d="M462.54 300.62L462.54 300.62" stroke="rgba(2, 161, 182, 0.73)" stroke-width="1.5"></path><path d="M462.54 300.62L479.59 393.59" stroke="rgba(2, 161, 182, 0.73)" stroke-width="1.5"></path><path d="M462.54 300.62L573.28 302.94" stroke="rgba(2, 161, 182, 0.73)" stroke-width="1.5"></path><path d="M479.59 393.59L479.59 393.59" stroke="rgba(2, 161, 182, 0.73)" stroke-width="1.5"></path><path d="M479.59 393.59L555.13 389.66" stroke="rgba(2, 161, 182, 0.73)" stroke-width="1.5"></path><path d="M479.59 393.59L475.83 478.65" stroke="rgba(2, 161, 182, 0.73)" stroke-width="1.5"></path><path d="M475.83 478.65L475.83 478.65" stroke="rgba(2, 161, 182, 0.73)" stroke-width="1.5"></path><path d="M489.38 586.4L489.38 586.4" stroke="rgba(2, 161, 182, 0.73)" stroke-width="1.5"></path><path d="M489.38 586.4L494.11 670.52" stroke="rgba(2, 161, 182, 0.73)" stroke-width="1.5"></path><path d="M489.38 586.4L575.75 581.87" stroke="rgba(2, 161, 182, 0.73)" stroke-width="1.5"></path><path d="M494.11 670.52L494.11 670.52" stroke="rgba(2, 161, 182, 0.73)" stroke-width="1.5"></path><path d="M494.11 670.52L558.51 660.28" stroke="rgba(2, 161, 182, 0.73)" stroke-width="1.5"></path><path d="M580.58 -61.96L580.58 -61.96" stroke="rgba(2, 161, 182, 0.73)" stroke-width="1.5"></path><path d="M580.58 -61.96L654.39 -36.5" stroke="rgba(2, 161, 182, 0.73)" stroke-width="1.5"></path><path d="M580.58 -61.96L584.68 24.69" stroke="rgba(2, 161, 182, 0.73)" stroke-width="1.5"></path><path d="M580.58 -61.96L672.16 47.63" stroke="rgba(2, 161, 182, 0.73)" stroke-width="1.5"></path><path d="M584.68 24.69L584.68 24.69" stroke="rgba(2, 161, 182, 0.73)" stroke-width="1.5"></path><path d="M584.68 24.69L672.16 47.63" stroke="rgba(2, 161, 182, 0.73)" stroke-width="1.5"></path><path d="M580.46 147.5L580.46 147.5" stroke="rgba(2, 161, 182, 0.73)" stroke-width="1.5"></path><path d="M580.46 147.5L561.65 212.9" stroke="rgba(2, 161, 182, 0.73)" stroke-width="1.5"></path><path d="M580.46 147.5L584.68 24.69" stroke="rgba(2, 161, 182, 0.73)" stroke-width="1.5"></path><path d="M580.46 147.5L672.16 47.63" stroke="rgba(2, 161, 182, 0.73)" stroke-width="1.5"></path><path d="M580.46 147.5L730.59 143.97" stroke="rgba(2, 161, 182, 0.73)" stroke-width="1.5"></path><path d="M561.65 212.9L561.65 212.9" stroke="rgba(2, 161, 182, 0.73)" stroke-width="1.5"></path><path d="M561.65 212.9L573.28 302.94" stroke="rgba(2, 161, 182, 0.73)" stroke-width="1.5"></path><path d="M561.65 212.9L462.54 300.62" stroke="rgba(2, 161, 182, 0.73)" stroke-width="1.5"></path><path d="M561.65 212.9L637.47 322.38" stroke="rgba(2, 161, 182, 0.73)" stroke-width="1.5"></path><path d="M561.65 212.9L735.2 235.51" stroke="rgba(2, 161, 182, 0.73)" stroke-width="1.5"></path><path d="M573.28 302.94L573.28 302.94" stroke="rgba(2, 161, 182, 0.73)" stroke-width="1.5"></path><path d="M573.28 302.94L637.47 322.38" stroke="rgba(2, 161, 182, 0.73)" stroke-width="1.5"></path><path d="M573.28 302.94L555.13 389.66" stroke="rgba(2, 161, 182, 0.73)" stroke-width="1.5"></path><path d="M573.28 302.94L672.74 376.17" stroke="rgba(2, 161, 182, 0.73)" stroke-width="1.5"></path><path d="M573.28 302.94L479.59 393.59" stroke="rgba(2, 161, 182, 0.73)" stroke-width="1.5"></path><path d="M555.13 389.66L555.13 389.66" stroke="rgba(2, 161, 182, 0.73)" stroke-width="1.5"></path><path d="M555.13 389.66L578.37 470.43" stroke="rgba(2, 161, 182, 0.73)" stroke-width="1.5"></path><path d="M555.13 389.66L637.47 322.38" stroke="rgba(2, 161, 182, 0.73)" stroke-width="1.5"></path><path d="M555.13 389.66L672.74 376.17" stroke="rgba(2, 161, 182, 0.73)" stroke-width="1.5"></path><path d="M578.37 470.43L578.37 470.43" stroke="rgba(2, 161, 182, 0.73)" stroke-width="1.5"></path><path d="M578.37 470.43L661.14 500.76" stroke="rgba(2, 161, 182, 0.73)" stroke-width="1.5"></path><path d="M575.75 581.87L575.75 581.87" stroke="rgba(2, 161, 182, 0.73)" stroke-width="1.5"></path><path d="M575.75 581.87L654.44 582.72" stroke="rgba(2, 161, 182, 0.73)" stroke-width="1.5"></path><path d="M575.75 581.87L558.51 660.28" stroke="rgba(2, 161, 182, 0.73)" stroke-width="1.5"></path><path d="M575.75 581.87L578.37 470.43" stroke="rgba(2, 161, 182, 0.73)" stroke-width="1.5"></path><path d="M558.51 660.28L558.51 660.28" stroke="rgba(2, 161, 182, 0.73)" stroke-width="1.5"></path><path d="M558.51 660.28L489.38 586.4" stroke="rgba(2, 161, 182, 0.73)" stroke-width="1.5"></path><path d="M558.51 660.28L678.12 648.76" stroke="rgba(2, 161, 182, 0.73)" stroke-width="1.5"></path><path d="M558.51 660.28L654.44 582.72" stroke="rgba(2, 161, 182, 0.73)" stroke-width="1.5"></path><path d="M654.39 -36.5L654.39 -36.5" stroke="rgba(2, 161, 182, 0.73)" stroke-width="1.5"></path><path d="M654.39 -36.5L672.16 47.63" stroke="rgba(2, 161, 182, 0.73)" stroke-width="1.5"></path><path d="M654.39 -36.5L584.68 24.69" stroke="rgba(2, 161, 182, 0.73)" stroke-width="1.5"></path><path d="M654.39 -36.5L764.53 -60.81" stroke="rgba(2, 161, 182, 0.73)" stroke-width="1.5"></path><path d="M654.39 -36.5L732.5 46.08" stroke="rgba(2, 161, 182, 0.73)" stroke-width="1.5"></path><path d="M654.39 -36.5L501.79 -34.55" stroke="rgba(2, 161, 182, 0.73)" stroke-width="1.5"></path><path d="M672.16 47.63L672.16 47.63" stroke="rgba(2, 161, 182, 0.73)" stroke-width="1.5"></path><path d="M672.16 47.63L732.5 46.08" stroke="rgba(2, 161, 182, 0.73)" stroke-width="1.5"></path><path d="M672.16 47.63L730.59 143.97" stroke="rgba(2, 161, 182, 0.73)" stroke-width="1.5"></path><path d="M672.16 47.63L764.53 -60.81" stroke="rgba(2, 161, 182, 0.73)" stroke-width="1.5"></path><path d="M637.47 322.38L637.47 322.38" stroke="rgba(2, 161, 182, 0.73)" stroke-width="1.5"></path><path d="M637.47 322.38L672.74 376.17" stroke="rgba(2, 161, 182, 0.73)" stroke-width="1.5"></path><path d="M672.74 376.17L672.74 376.17" stroke="rgba(2, 161, 182, 0.73)" stroke-width="1.5"></path><path d="M672.74 376.17L727.15 397.81" stroke="rgba(2, 161, 182, 0.73)" stroke-width="1.5"></path><path d="M672.74 376.17L725.7 312.54" stroke="rgba(2, 161, 182, 0.73)" stroke-width="1.5"></path><path d="M672.74 376.17L661.14 500.76" stroke="rgba(2, 161, 182, 0.73)" stroke-width="1.5"></path><path d="M661.14 500.76L661.14 500.76" stroke="rgba(2, 161, 182, 0.73)" stroke-width="1.5"></path><path d="M661.14 500.76L654.44 582.72" stroke="rgba(2, 161, 182, 0.73)" stroke-width="1.5"></path><path d="M654.44 582.72L654.44 582.72" stroke="rgba(2, 161, 182, 0.73)" stroke-width="1.5"></path><path d="M654.44 582.72L678.12 648.76" stroke="rgba(2, 161, 182, 0.73)" stroke-width="1.5"></path><path d="M654.44 582.72L754.38 584.63" stroke="rgba(2, 161, 182, 0.73)" stroke-width="1.5"></path><path d="M654.44 582.72L731.11 661.54" stroke="rgba(2, 161, 182, 0.73)" stroke-width="1.5"></path><path d="M678.12 648.76L678.12 648.76" stroke="rgba(2, 161, 182, 0.73)" stroke-width="1.5"></path><path d="M678.12 648.76L731.11 661.54" stroke="rgba(2, 161, 182, 0.73)" stroke-width="1.5"></path><path d="M678.12 648.76L754.38 584.63" stroke="rgba(2, 161, 182, 0.73)" stroke-width="1.5"></path><path d="M678.12 648.76L575.75 581.87" stroke="rgba(2, 161, 182, 0.73)" stroke-width="1.5"></path><path d="M678.12 648.76L661.14 500.76" stroke="rgba(2, 161, 182, 0.73)" stroke-width="1.5"></path><path d="M764.53 -60.81L764.53 -60.81" stroke="rgba(2, 161, 182, 0.73)" stroke-width="1.5"></path><path d="M764.53 -60.81L732.5 46.08" stroke="rgba(2, 161, 182, 0.73)" stroke-width="1.5"></path><path d="M732.5 46.08L732.5 46.08" stroke="rgba(2, 161, 182, 0.73)" stroke-width="1.5"></path><path d="M732.5 46.08L730.59 143.97" stroke="rgba(2, 161, 182, 0.73)" stroke-width="1.5"></path><path d="M732.5 46.08L584.68 24.69" stroke="rgba(2, 161, 182, 0.73)" stroke-width="1.5"></path><path d="M732.5 46.08L580.46 147.5" stroke="rgba(2, 161, 182, 0.73)" stroke-width="1.5"></path><path d="M730.59 143.97L730.59 143.97" stroke="rgba(2, 161, 182, 0.73)" stroke-width="1.5"></path><path d="M730.59 143.97L735.2 235.51" stroke="rgba(2, 161, 182, 0.73)" stroke-width="1.5"></path><path d="M730.59 143.97L725.7 312.54" stroke="rgba(2, 161, 182, 0.73)" stroke-width="1.5"></path><path d="M730.59 143.97L561.65 212.9" stroke="rgba(2, 161, 182, 0.73)" stroke-width="1.5"></path><path d="M735.2 235.51L735.2 235.51" stroke="rgba(2, 161, 182, 0.73)" stroke-width="1.5"></path><path d="M735.2 235.51L725.7 312.54" stroke="rgba(2, 161, 182, 0.73)" stroke-width="1.5"></path><path d="M735.2 235.51L637.47 322.38" stroke="rgba(2, 161, 182, 0.73)" stroke-width="1.5"></path><path d="M735.2 235.51L672.74 376.17" stroke="rgba(2, 161, 182, 0.73)" stroke-width="1.5"></path><path d="M725.7 312.54L725.7 312.54" stroke="rgba(2, 161, 182, 0.73)" stroke-width="1.5"></path><path d="M727.15 397.81L727.15 397.81" stroke="rgba(2, 161, 182, 0.73)" stroke-width="1.5"></path><path d="M727.15 397.81L765.4 465.66" stroke="rgba(2, 161, 182, 0.73)" stroke-width="1.5"></path><path d="M727.15 397.81L725.7 312.54" stroke="rgba(2, 161, 182, 0.73)" stroke-width="1.5"></path><path d="M727.15 397.81L637.47 322.38" stroke="rgba(2, 161, 182, 0.73)" stroke-width="1.5"></path><path d="M727.15 397.81L661.14 500.76" stroke="rgba(2, 161, 182, 0.73)" stroke-width="1.5"></path><path d="M765.4 465.66L765.4 465.66" stroke="rgba(2, 161, 182, 0.73)" stroke-width="1.5"></path><path d="M765.4 465.66L661.14 500.76" stroke="rgba(2, 161, 182, 0.73)" stroke-width="1.5"></path><path d="M765.4 465.66L754.38 584.63" stroke="rgba(2, 161, 182, 0.73)" stroke-width="1.5"></path><path d="M765.4 465.66L672.74 376.17" stroke="rgba(2, 161, 182, 0.73)" stroke-width="1.5"></path><path d="M765.4 465.66L725.7 312.54" stroke="rgba(2, 161, 182, 0.73)" stroke-width="1.5"></path><path d="M765.4 465.66L654.44 582.72" stroke="rgba(2, 161, 182, 0.73)" stroke-width="1.5"></path><path d="M754.38 584.63L754.38 584.63" stroke="rgba(2, 161, 182, 0.73)" stroke-width="1.5"></path><path d="M754.38 584.63L731.11 661.54" stroke="rgba(2, 161, 182, 0.73)" stroke-width="1.5"></path><path d="M754.38 584.63L661.14 500.76" stroke="rgba(2, 161, 182, 0.73)" stroke-width="1.5"></path><path d="M754.38 584.63L575.75 581.87" stroke="rgba(2, 161, 182, 0.73)" stroke-width="1.5"></path><path d="M731.11 661.54L731.11 661.54" stroke="rgba(2, 161, 182, 0.73)" stroke-width="1.5"></path><path d="M731.11 661.54L558.51 660.28" stroke="rgba(2, 161, 182, 0.73)" stroke-width="1.5"></path><path d="M731.11 661.54L575.75 581.87" stroke="rgba(2, 161, 182, 0.73)" stroke-width="1.5"></path><path d="M731.11 661.54L661.14 500.76" stroke="rgba(2, 161, 182, 0.73)" stroke-width="1.5"></path><circle r="5" cx="-33.01" cy="405.6" fill="rgba(2, 161, 182, 0.73)"></circle><circle r="5" cx="-29.59" cy="486.43" fill="rgba(2, 161, 182, 0.73)"></circle><circle r="5" cx="-32.22" cy="580.16" fill="rgba(2, 161, 182, 0.73)"></circle><circle r="5" cx="-40.28" cy="675.24" fill="rgba(2, 161, 182, 0.73)"></circle><circle r="5" cx="64.27" cy="473.34" fill="rgba(2, 161, 182, 0.73)"></circle><circle r="5" cx="35.18" cy="568.46" fill="rgba(2, 161, 182, 0.73)"></circle><circle r="5" cx="40.39" cy="657.66" fill="rgba(2, 161, 182, 0.73)"></circle><circle r="5" cx="142.68" cy="390.95" fill="rgba(2, 161, 182, 0.73)"></circle><circle r="5" cx="110.68" cy="486.86" fill="rgba(2, 161, 182, 0.73)"></circle><circle r="5" cx="128.48" cy="569.28" fill="rgba(2, 161, 182, 0.73)"></circle><circle r="5" cx="138.08" cy="654.33" fill="rgba(2, 161, 182, 0.73)"></circle><circle r="5" cx="215.42" cy="390.71" fill="rgba(2, 161, 182, 0.73)"></circle><circle r="5" cx="220.04" cy="498.24" fill="rgba(2, 161, 182, 0.73)"></circle><circle r="5" cx="198.83" cy="581.25" fill="rgba(2, 161, 182, 0.73)"></circle><circle r="5" cx="209.64" cy="653.93" fill="rgba(2, 161, 182, 0.73)"></circle><circle r="5" cx="309.61" cy="308.34" fill="rgba(2, 161, 182, 0.73)"></circle><circle r="5" cx="298.73" cy="405.2" fill="rgba(2, 161, 182, 0.73)"></circle><circle r="5" cx="288.12" cy="468.83" fill="rgba(2, 161, 182, 0.73)"></circle><circle r="5" cx="301.06" cy="587.06" fill="rgba(2, 161, 182, 0.73)"></circle><circle r="5" cx="301.49" cy="638.96" fill="rgba(2, 161, 182, 0.73)"></circle><circle r="5" cx="385.88" cy="205.6" fill="rgba(2, 161, 182, 0.73)"></circle><circle r="5" cx="390.83" cy="318.13" fill="rgba(2, 161, 182, 0.73)"></circle><circle r="5" cx="376.83" cy="404.64" fill="rgba(2, 161, 182, 0.73)"></circle><circle r="5" cx="394.61" cy="473.21" fill="rgba(2, 161, 182, 0.73)"></circle><circle r="5" cx="394.47" cy="578.02" fill="rgba(2, 161, 182, 0.73)"></circle><circle r="5" cx="411.61" cy="677.47" fill="rgba(2, 161, 182, 0.73)"></circle><circle r="5" cx="501.79" cy="-34.55" fill="rgba(2, 161, 182, 0.73)"></circle><circle r="5" cx="467.6" cy="43.48" fill="rgba(2, 161, 182, 0.73)"></circle><circle r="5" cx="486.36" cy="120.88" fill="rgba(2, 161, 182, 0.73)"></circle><circle r="5" cx="462.54" cy="300.62" fill="rgba(2, 161, 182, 0.73)"></circle><circle r="5" cx="479.59" cy="393.59" fill="rgba(2, 161, 182, 0.73)"></circle><circle r="5" cx="475.83" cy="478.65" fill="rgba(2, 161, 182, 0.73)"></circle><circle r="5" cx="489.38" cy="586.4" fill="rgba(2, 161, 182, 0.73)"></circle><circle r="5" cx="494.11" cy="670.52" fill="rgba(2, 161, 182, 0.73)"></circle><circle r="5" cx="580.58" cy="-61.96" fill="rgba(2, 161, 182, 0.73)"></circle><circle r="5" cx="584.68" cy="24.69" fill="rgba(2, 161, 182, 0.73)"></circle><circle r="5" cx="580.46" cy="147.5" fill="rgba(2, 161, 182, 0.73)"></circle><circle r="5" cx="561.65" cy="212.9" fill="rgba(2, 161, 182, 0.73)"></circle><circle r="5" cx="573.28" cy="302.94" fill="rgba(2, 161, 182, 0.73)"></circle><circle r="5" cx="555.13" cy="389.66" fill="rgba(2, 161, 182, 0.73)"></circle><circle r="5" cx="578.37" cy="470.43" fill="rgba(2, 161, 182, 0.73)"></circle><circle r="5" cx="575.75" cy="581.87" fill="rgba(2, 161, 182, 0.73)"></circle><circle r="5" cx="558.51" cy="660.28" fill="rgba(2, 161, 182, 0.73)"></circle><circle r="5" cx="654.39" cy="-36.5" fill="rgba(2, 161, 182, 0.73)"></circle><circle r="5" cx="672.16" cy="47.63" fill="rgba(2, 161, 182, 0.73)"></circle><circle r="5" cx="637.47" cy="322.38" fill="rgba(2, 161, 182, 0.73)"></circle><circle r="5" cx="672.74" cy="376.17" fill="rgba(2, 161, 182, 0.73)"></circle><circle r="5" cx="661.14" cy="500.76" fill="rgba(2, 161, 182, 0.73)"></circle><circle r="5" cx="654.44" cy="582.72" fill="rgba(2, 161, 182, 0.73)"></circle><circle r="5" cx="678.12" cy="648.76" fill="rgba(2, 161, 182, 0.73)"></circle><circle r="5" cx="764.53" cy="-60.81" fill="rgba(2, 161, 182, 0.73)"></circle><circle r="5" cx="732.5" cy="46.08" fill="rgba(2, 161, 182, 0.73)"></circle><circle r="5" cx="730.59" cy="143.97" fill="rgba(2, 161, 182, 0.73)"></circle><circle r="5" cx="735.2" cy="235.51" fill="rgba(2, 161, 182, 0.73)"></circle><circle r="5" cx="725.7" cy="312.54" fill="rgba(2, 161, 182, 0.73)"></circle><circle r="5" cx="727.15" cy="397.81" fill="rgba(2, 161, 182, 0.73)"></circle><circle r="5" cx="765.4" cy="465.66" fill="rgba(2, 161, 182, 0.73)"></circle><circle r="5" cx="754.38" cy="584.63" fill="rgba(2, 161, 182, 0.73)"></circle><circle r="5" cx="731.11" cy="661.54" fill="rgba(2, 161, 182, 0.73)"></circle><path d="M199.83 562.65L199.83 562.65" stroke="hsla(175.79999999999995, 100%, 43.3%, 0.77)" stroke-width="1.5"></path><path d="M199.83 562.65L138.83 568.22" stroke="hsla(175.79999999999995, 100%, 43.3%, 0.77)" stroke-width="1.5"></path><path d="M199.83 562.65L237.33 481.06" stroke="hsla(175.79999999999995, 100%, 43.3%, 0.77)" stroke-width="1.5"></path><path d="M199.83 562.65L296.85 553.97" stroke="hsla(175.79999999999995, 100%, 43.3%, 0.77)" stroke-width="1.5"></path><path d="M199.83 562.65L127.69 486.36" stroke="hsla(175.79999999999995, 100%, 43.3%, 0.77)" stroke-width="1.5"></path><path d="M199.83 562.65L199.79 670.2" stroke="hsla(175.79999999999995, 100%, 43.3%, 0.77)" stroke-width="1.5"></path><path d="M199.83 562.65L298.16 501.36" stroke="hsla(175.79999999999995, 100%, 43.3%, 0.77)" stroke-width="1.5"></path><path d="M296.85 553.97L296.85 553.97" stroke="hsla(175.79999999999995, 100%, 43.3%, 0.77)" stroke-width="1.5"></path><path d="M296.85 553.97L298.16 501.36" stroke="hsla(175.79999999999995, 100%, 43.3%, 0.77)" stroke-width="1.5"></path><path d="M296.85 553.97L383.33 562.93" stroke="hsla(175.79999999999995, 100%, 43.3%, 0.77)" stroke-width="1.5"></path><path d="M296.85 553.97L237.33 481.06" stroke="hsla(175.79999999999995, 100%, 43.3%, 0.77)" stroke-width="1.5"></path><path d="M296.85 553.97L390.23 495.85" stroke="hsla(175.79999999999995, 100%, 43.3%, 0.77)" stroke-width="1.5"></path><path d="M497.84 376.18L497.84 376.18" stroke="hsla(175.79999999999995, 100%, 43.3%, 0.77)" stroke-width="1.5"></path><path d="M497.84 376.18L466.99 311.99" stroke="hsla(175.79999999999995, 100%, 43.3%, 0.77)" stroke-width="1.5"></path><path d="M497.84 376.18L406.31 402.46" stroke="hsla(175.79999999999995, 100%, 43.3%, 0.77)" stroke-width="1.5"></path><path d="M497.84 376.18L585.02 415.02" stroke="hsla(175.79999999999995, 100%, 43.3%, 0.77)" stroke-width="1.5"></path><path d="M497.84 376.18L491.09 490.19" stroke="hsla(175.79999999999995, 100%, 43.3%, 0.77)" stroke-width="1.5"></path><path d="M497.84 376.18L590.6 289.49" stroke="hsla(175.79999999999995, 100%, 43.3%, 0.77)" stroke-width="1.5"></path><path d="M497.84 376.18L583.76 491.74" stroke="hsla(175.79999999999995, 100%, 43.3%, 0.77)" stroke-width="1.5"></path><path d="M554.06 112.91L554.06 112.91" stroke="hsla(175.79999999999995, 100%, 43.3%, 0.77)" stroke-width="1.5"></path><path d="M554.06 112.91L643.37 144.53" stroke="hsla(175.79999999999995, 100%, 43.3%, 0.77)" stroke-width="1.5"></path><path d="M554.06 112.91L565.24 221.49" stroke="hsla(175.79999999999995, 100%, 43.3%, 0.77)" stroke-width="1.5"></path><path d="M554.06 112.91L661.27 35.9" stroke="hsla(175.79999999999995, 100%, 43.3%, 0.77)" stroke-width="1.5"></path><path d="M554.06 112.91L677.24 221.94" stroke="hsla(175.79999999999995, 100%, 43.3%, 0.77)" stroke-width="1.5"></path><path d="M554.06 112.91L588.76 -58.35" stroke="hsla(175.79999999999995, 100%, 43.3%, 0.77)" stroke-width="1.5"></path><path d="M677.24 221.94L677.24 221.94" stroke="hsla(175.79999999999995, 100%, 43.3%, 0.77)" stroke-width="1.5"></path><path d="M677.24 221.94L739.61 196.97" stroke="hsla(175.79999999999995, 100%, 43.3%, 0.77)" stroke-width="1.5"></path><path d="M677.24 221.94L664.4 294.52" stroke="hsla(175.79999999999995, 100%, 43.3%, 0.77)" stroke-width="1.5"></path><path d="M672.51 408.06L672.51 408.06" stroke="hsla(175.79999999999995, 100%, 43.3%, 0.77)" stroke-width="1.5"></path><path d="M672.51 408.06L726.23 398.58" stroke="hsla(175.79999999999995, 100%, 43.3%, 0.77)" stroke-width="1.5"></path><path d="M672.51 408.06L660.14 494.7" stroke="hsla(175.79999999999995, 100%, 43.3%, 0.77)" stroke-width="1.5"></path><path d="M672.51 408.06L585.02 415.02" stroke="hsla(175.79999999999995, 100%, 43.3%, 0.77)" stroke-width="1.5"></path><path d="M672.51 408.06L728.87 482.09" stroke="hsla(175.79999999999995, 100%, 43.3%, 0.77)" stroke-width="1.5"></path><path d="M672.51 408.06L664.4 294.52" stroke="hsla(175.79999999999995, 100%, 43.3%, 0.77)" stroke-width="1.5"></path><path d="M660.14 494.7L660.14 494.7" stroke="hsla(175.79999999999995, 100%, 43.3%, 0.77)" stroke-width="1.5"></path><path d="M660.14 494.7L659.94 562.83" stroke="hsla(175.79999999999995, 100%, 43.3%, 0.77)" stroke-width="1.5"></path><path d="M660.14 494.7L728.87 482.09" stroke="hsla(175.79999999999995, 100%, 43.3%, 0.77)" stroke-width="1.5"></path><path d="M660.14 494.7L583.76 491.74" stroke="hsla(175.79999999999995, 100%, 43.3%, 0.77)" stroke-width="1.5"></path><path d="M760.45 126.62L760.45 126.62" stroke="hsla(175.79999999999995, 100%, 43.3%, 0.77)" stroke-width="1.5"></path><path d="M760.45 126.62L739.61 196.97" stroke="hsla(175.79999999999995, 100%, 43.3%, 0.77)" stroke-width="1.5"></path><path d="M760.45 126.62L733.83 41" stroke="hsla(175.79999999999995, 100%, 43.3%, 0.77)" stroke-width="1.5"></path><path d="M726.23 398.58L726.23 398.58" stroke="hsla(175.79999999999995, 100%, 43.3%, 0.77)" stroke-width="1.5"></path><path d="M726.23 398.58L728.87 482.09" stroke="hsla(175.79999999999995, 100%, 43.3%, 0.77)" stroke-width="1.5"></path><path d="M728.87 482.09L728.87 482.09" stroke="hsla(175.79999999999995, 100%, 43.3%, 0.77)" stroke-width="1.5"></path><path d="M728.87 482.09L659.94 562.83" stroke="hsla(175.79999999999995, 100%, 43.3%, 0.77)" stroke-width="1.5"></path><path d="M-64.69 566.05L-64.69 566.05" stroke="hsla(175.79999999999995, 100%, 43.3%, 0.77)" stroke-width="1.5"></path><path d="M-64.69 566.05L-64.78 667.45" stroke="hsla(175.79999999999995, 100%, 43.3%, 0.77)" stroke-width="1.5"></path><path d="M-64.69 566.05L56.94 579.78" stroke="hsla(175.79999999999995, 100%, 43.3%, 0.77)" stroke-width="1.5"></path><path d="M-64.69 566.05L39 675.08" stroke="hsla(175.79999999999995, 100%, 43.3%, 0.77)" stroke-width="1.5"></path><path d="M-64.69 566.05L138.83 568.22" stroke="hsla(175.79999999999995, 100%, 43.3%, 0.77)" stroke-width="1.5"></path><path d="M-64.69 566.05L115.78 661.21" stroke="hsla(175.79999999999995, 100%, 43.3%, 0.77)" stroke-width="1.5"></path><path d="M-64.78 667.45L-64.78 667.45" stroke="hsla(175.79999999999995, 100%, 43.3%, 0.77)" stroke-width="1.5"></path><path d="M-64.78 667.45L39 675.08" stroke="hsla(175.79999999999995, 100%, 43.3%, 0.77)" stroke-width="1.5"></path><path d="M-64.78 667.45L56.94 579.78" stroke="hsla(175.79999999999995, 100%, 43.3%, 0.77)" stroke-width="1.5"></path><path d="M-64.78 667.45L115.78 661.21" stroke="hsla(175.79999999999995, 100%, 43.3%, 0.77)" stroke-width="1.5"></path><path d="M56.94 579.78L56.94 579.78" stroke="hsla(175.79999999999995, 100%, 43.3%, 0.77)" stroke-width="1.5"></path><path d="M56.94 579.78L138.83 568.22" stroke="hsla(175.79999999999995, 100%, 43.3%, 0.77)" stroke-width="1.5"></path><path d="M56.94 579.78L39 675.08" stroke="hsla(175.79999999999995, 100%, 43.3%, 0.77)" stroke-width="1.5"></path><path d="M56.94 579.78L115.78 661.21" stroke="hsla(175.79999999999995, 100%, 43.3%, 0.77)" stroke-width="1.5"></path><path d="M39 675.08L39 675.08" stroke="hsla(175.79999999999995, 100%, 43.3%, 0.77)" stroke-width="1.5"></path><path d="M39 675.08L115.78 661.21" stroke="hsla(175.79999999999995, 100%, 43.3%, 0.77)" stroke-width="1.5"></path><path d="M39 675.08L138.83 568.22" stroke="hsla(175.79999999999995, 100%, 43.3%, 0.77)" stroke-width="1.5"></path><path d="M39 675.08L199.79 670.2" stroke="hsla(175.79999999999995, 100%, 43.3%, 0.77)" stroke-width="1.5"></path><path d="M127.69 486.36L127.69 486.36" stroke="hsla(175.79999999999995, 100%, 43.3%, 0.77)" stroke-width="1.5"></path><path d="M127.69 486.36L138.83 568.22" stroke="hsla(175.79999999999995, 100%, 43.3%, 0.77)" stroke-width="1.5"></path><path d="M127.69 486.36L237.33 481.06" stroke="hsla(175.79999999999995, 100%, 43.3%, 0.77)" stroke-width="1.5"></path><path d="M138.83 568.22L138.83 568.22" stroke="hsla(175.79999999999995, 100%, 43.3%, 0.77)" stroke-width="1.5"></path><path d="M138.83 568.22L115.78 661.21" stroke="hsla(175.79999999999995, 100%, 43.3%, 0.77)" stroke-width="1.5"></path><path d="M115.78 661.21L115.78 661.21" stroke="hsla(175.79999999999995, 100%, 43.3%, 0.77)" stroke-width="1.5"></path><path d="M115.78 661.21L199.79 670.2" stroke="hsla(175.79999999999995, 100%, 43.3%, 0.77)" stroke-width="1.5"></path><path d="M237.33 481.06L237.33 481.06" stroke="hsla(175.79999999999995, 100%, 43.3%, 0.77)" stroke-width="1.5"></path><path d="M237.33 481.06L298.16 501.36" stroke="hsla(175.79999999999995, 100%, 43.3%, 0.77)" stroke-width="1.5"></path><path d="M237.33 481.06L138.83 568.22" stroke="hsla(175.79999999999995, 100%, 43.3%, 0.77)" stroke-width="1.5"></path><path d="M237.33 481.06L390.23 495.85" stroke="hsla(175.79999999999995, 100%, 43.3%, 0.77)" stroke-width="1.5"></path><path d="M199.79 670.2L199.79 670.2" stroke="hsla(175.79999999999995, 100%, 43.3%, 0.77)" stroke-width="1.5"></path><path d="M199.79 670.2L284.72 666.99" stroke="hsla(175.79999999999995, 100%, 43.3%, 0.77)" stroke-width="1.5"></path><path d="M199.79 670.2L138.83 568.22" stroke="hsla(175.79999999999995, 100%, 43.3%, 0.77)" stroke-width="1.5"></path><path d="M298.16 501.36L298.16 501.36" stroke="hsla(175.79999999999995, 100%, 43.3%, 0.77)" stroke-width="1.5"></path><path d="M298.16 501.36L390.23 495.85" stroke="hsla(175.79999999999995, 100%, 43.3%, 0.77)" stroke-width="1.5"></path><path d="M298.16 501.36L383.33 562.93" stroke="hsla(175.79999999999995, 100%, 43.3%, 0.77)" stroke-width="1.5"></path><path d="M284.72 666.99L284.72 666.99" stroke="hsla(175.79999999999995, 100%, 43.3%, 0.77)" stroke-width="1.5"></path><path d="M284.72 666.99L391.61 657.48" stroke="hsla(175.79999999999995, 100%, 43.3%, 0.77)" stroke-width="1.5"></path><path d="M284.72 666.99L296.85 553.97" stroke="hsla(175.79999999999995, 100%, 43.3%, 0.77)" stroke-width="1.5"></path><path d="M284.72 666.99L199.83 562.65" stroke="hsla(175.79999999999995, 100%, 43.3%, 0.77)" stroke-width="1.5"></path><path d="M284.72 666.99L383.33 562.93" stroke="hsla(175.79999999999995, 100%, 43.3%, 0.77)" stroke-width="1.5"></path><path d="M406.31 402.46L406.31 402.46" stroke="hsla(175.79999999999995, 100%, 43.3%, 0.77)" stroke-width="1.5"></path><path d="M406.31 402.46L390.23 495.85" stroke="hsla(175.79999999999995, 100%, 43.3%, 0.77)" stroke-width="1.5"></path><path d="M406.31 402.46L466.99 311.99" stroke="hsla(175.79999999999995, 100%, 43.3%, 0.77)" stroke-width="1.5"></path><path d="M406.31 402.46L491.09 490.19" stroke="hsla(175.79999999999995, 100%, 43.3%, 0.77)" stroke-width="1.5"></path><path d="M390.23 495.85L390.23 495.85" stroke="hsla(175.79999999999995, 100%, 43.3%, 0.77)" stroke-width="1.5"></path><path d="M390.23 495.85L383.33 562.93" stroke="hsla(175.79999999999995, 100%, 43.3%, 0.77)" stroke-width="1.5"></path><path d="M390.23 495.85L491.09 490.19" stroke="hsla(175.79999999999995, 100%, 43.3%, 0.77)" stroke-width="1.5"></path><path d="M390.23 495.85L474.94 557.91" stroke="hsla(175.79999999999995, 100%, 43.3%, 0.77)" stroke-width="1.5"></path><path d="M383.33 562.93L383.33 562.93" stroke="hsla(175.79999999999995, 100%, 43.3%, 0.77)" stroke-width="1.5"></path><path d="M391.61 657.48L391.61 657.48" stroke="hsla(175.79999999999995, 100%, 43.3%, 0.77)" stroke-width="1.5"></path><path d="M391.61 657.48L475.31 649.32" stroke="hsla(175.79999999999995, 100%, 43.3%, 0.77)" stroke-width="1.5"></path><path d="M391.61 657.48L383.33 562.93" stroke="hsla(175.79999999999995, 100%, 43.3%, 0.77)" stroke-width="1.5"></path><path d="M391.61 657.48L474.94 557.91" stroke="hsla(175.79999999999995, 100%, 43.3%, 0.77)" stroke-width="1.5"></path><path d="M391.61 657.48L296.85 553.97" stroke="hsla(175.79999999999995, 100%, 43.3%, 0.77)" stroke-width="1.5"></path><path d="M466.99 311.99L466.99 311.99" stroke="hsla(175.79999999999995, 100%, 43.3%, 0.77)" stroke-width="1.5"></path><path d="M466.99 311.99L590.6 289.49" stroke="hsla(175.79999999999995, 100%, 43.3%, 0.77)" stroke-width="1.5"></path><path d="M491.09 490.19L491.09 490.19" stroke="hsla(175.79999999999995, 100%, 43.3%, 0.77)" stroke-width="1.5"></path><path d="M491.09 490.19L474.94 557.91" stroke="hsla(175.79999999999995, 100%, 43.3%, 0.77)" stroke-width="1.5"></path><path d="M491.09 490.19L583.76 491.74" stroke="hsla(175.79999999999995, 100%, 43.3%, 0.77)" stroke-width="1.5"></path><path d="M474.94 557.91L474.94 557.91" stroke="hsla(175.79999999999995, 100%, 43.3%, 0.77)" stroke-width="1.5"></path><path d="M474.94 557.91L475.31 649.32" stroke="hsla(175.79999999999995, 100%, 43.3%, 0.77)" stroke-width="1.5"></path><path d="M474.94 557.91L383.33 562.93" stroke="hsla(175.79999999999995, 100%, 43.3%, 0.77)" stroke-width="1.5"></path><path d="M475.31 649.32L475.31 649.32" stroke="hsla(175.79999999999995, 100%, 43.3%, 0.77)" stroke-width="1.5"></path><path d="M475.31 649.32L573.59 643.09" stroke="hsla(175.79999999999995, 100%, 43.3%, 0.77)" stroke-width="1.5"></path><path d="M475.31 649.32L383.33 562.93" stroke="hsla(175.79999999999995, 100%, 43.3%, 0.77)" stroke-width="1.5"></path><path d="M475.31 649.32L585.54 575.48" stroke="hsla(175.79999999999995, 100%, 43.3%, 0.77)" stroke-width="1.5"></path><path d="M475.31 649.32L491.09 490.19" stroke="hsla(175.79999999999995, 100%, 43.3%, 0.77)" stroke-width="1.5"></path><path d="M588.76 -58.35L588.76 -58.35" stroke="hsla(175.79999999999995, 100%, 43.3%, 0.77)" stroke-width="1.5"></path><path d="M588.76 -58.35L640.25 -48.3" stroke="hsla(175.79999999999995, 100%, 43.3%, 0.77)" stroke-width="1.5"></path><path d="M588.76 -58.35L661.27 35.9" stroke="hsla(175.79999999999995, 100%, 43.3%, 0.77)" stroke-width="1.5"></path><path d="M565.24 221.49L565.24 221.49" stroke="hsla(175.79999999999995, 100%, 43.3%, 0.77)" stroke-width="1.5"></path><path d="M565.24 221.49L590.6 289.49" stroke="hsla(175.79999999999995, 100%, 43.3%, 0.77)" stroke-width="1.5"></path><path d="M565.24 221.49L643.37 144.53" stroke="hsla(175.79999999999995, 100%, 43.3%, 0.77)" stroke-width="1.5"></path><path d="M565.24 221.49L677.24 221.94" stroke="hsla(175.79999999999995, 100%, 43.3%, 0.77)" stroke-width="1.5"></path><path d="M590.6 289.49L590.6 289.49" stroke="hsla(175.79999999999995, 100%, 43.3%, 0.77)" stroke-width="1.5"></path><path d="M590.6 289.49L664.4 294.52" stroke="hsla(175.79999999999995, 100%, 43.3%, 0.77)" stroke-width="1.5"></path><path d="M590.6 289.49L677.24 221.94" stroke="hsla(175.79999999999995, 100%, 43.3%, 0.77)" stroke-width="1.5"></path><path d="M585.02 415.02L585.02 415.02" stroke="hsla(175.79999999999995, 100%, 43.3%, 0.77)" stroke-width="1.5"></path><path d="M585.02 415.02L583.76 491.74" stroke="hsla(175.79999999999995, 100%, 43.3%, 0.77)" stroke-width="1.5"></path><path d="M583.76 491.74L583.76 491.74" stroke="hsla(175.79999999999995, 100%, 43.3%, 0.77)" stroke-width="1.5"></path><path d="M583.76 491.74L585.54 575.48" stroke="hsla(175.79999999999995, 100%, 43.3%, 0.77)" stroke-width="1.5"></path><path d="M585.54 575.48L585.54 575.48" stroke="hsla(175.79999999999995, 100%, 43.3%, 0.77)" stroke-width="1.5"></path><path d="M585.54 575.48L573.59 643.09" stroke="hsla(175.79999999999995, 100%, 43.3%, 0.77)" stroke-width="1.5"></path><path d="M585.54 575.48L659.94 562.83" stroke="hsla(175.79999999999995, 100%, 43.3%, 0.77)" stroke-width="1.5"></path><path d="M585.54 575.48L660.14 494.7" stroke="hsla(175.79999999999995, 100%, 43.3%, 0.77)" stroke-width="1.5"></path><path d="M585.54 575.48L474.94 557.91" stroke="hsla(175.79999999999995, 100%, 43.3%, 0.77)" stroke-width="1.5"></path><path d="M573.59 643.09L573.59 643.09" stroke="hsla(175.79999999999995, 100%, 43.3%, 0.77)" stroke-width="1.5"></path><path d="M640.25 -48.3L640.25 -48.3" stroke="hsla(175.79999999999995, 100%, 43.3%, 0.77)" stroke-width="1.5"></path><path d="M640.25 -48.3L661.27 35.9" stroke="hsla(175.79999999999995, 100%, 43.3%, 0.77)" stroke-width="1.5"></path><path d="M640.25 -48.3L758.13 -57.12" stroke="hsla(175.79999999999995, 100%, 43.3%, 0.77)" stroke-width="1.5"></path><path d="M640.25 -48.3L733.83 41" stroke="hsla(175.79999999999995, 100%, 43.3%, 0.77)" stroke-width="1.5"></path><path d="M661.27 35.9L661.27 35.9" stroke="hsla(175.79999999999995, 100%, 43.3%, 0.77)" stroke-width="1.5"></path><path d="M661.27 35.9L733.83 41" stroke="hsla(175.79999999999995, 100%, 43.3%, 0.77)" stroke-width="1.5"></path><path d="M661.27 35.9L643.37 144.53" stroke="hsla(175.79999999999995, 100%, 43.3%, 0.77)" stroke-width="1.5"></path><path d="M661.27 35.9L758.13 -57.12" stroke="hsla(175.79999999999995, 100%, 43.3%, 0.77)" stroke-width="1.5"></path><path d="M643.37 144.53L643.37 144.53" stroke="hsla(175.79999999999995, 100%, 43.3%, 0.77)" stroke-width="1.5"></path><path d="M643.37 144.53L677.24 221.94" stroke="hsla(175.79999999999995, 100%, 43.3%, 0.77)" stroke-width="1.5"></path><path d="M643.37 144.53L739.61 196.97" stroke="hsla(175.79999999999995, 100%, 43.3%, 0.77)" stroke-width="1.5"></path><path d="M664.4 294.52L664.4 294.52" stroke="hsla(175.79999999999995, 100%, 43.3%, 0.77)" stroke-width="1.5"></path><path d="M664.4 294.52L745.57 310.02" stroke="hsla(175.79999999999995, 100%, 43.3%, 0.77)" stroke-width="1.5"></path><path d="M659.94 562.83L659.94 562.83" stroke="hsla(175.79999999999995, 100%, 43.3%, 0.77)" stroke-width="1.5"></path><path d="M659.94 562.83L583.76 491.74" stroke="hsla(175.79999999999995, 100%, 43.3%, 0.77)" stroke-width="1.5"></path><path d="M758.13 -57.12L758.13 -57.12" stroke="hsla(175.79999999999995, 100%, 43.3%, 0.77)" stroke-width="1.5"></path><path d="M758.13 -57.12L733.83 41" stroke="hsla(175.79999999999995, 100%, 43.3%, 0.77)" stroke-width="1.5"></path><path d="M758.13 -57.12L588.76 -58.35" stroke="hsla(175.79999999999995, 100%, 43.3%, 0.77)" stroke-width="1.5"></path><path d="M758.13 -57.12L760.45 126.62" stroke="hsla(175.79999999999995, 100%, 43.3%, 0.77)" stroke-width="1.5"></path><path d="M733.83 41L733.83 41" stroke="hsla(175.79999999999995, 100%, 43.3%, 0.77)" stroke-width="1.5"></path><path d="M733.83 41L643.37 144.53" stroke="hsla(175.79999999999995, 100%, 43.3%, 0.77)" stroke-width="1.5"></path><path d="M733.83 41L739.61 196.97" stroke="hsla(175.79999999999995, 100%, 43.3%, 0.77)" stroke-width="1.5"></path><path d="M739.61 196.97L739.61 196.97" stroke="hsla(175.79999999999995, 100%, 43.3%, 0.77)" stroke-width="1.5"></path><path d="M745.57 310.02L745.57 310.02" stroke="hsla(175.79999999999995, 100%, 43.3%, 0.77)" stroke-width="1.5"></path><path d="M745.57 310.02L726.23 398.58" stroke="hsla(175.79999999999995, 100%, 43.3%, 0.77)" stroke-width="1.5"></path><path d="M745.57 310.02L677.24 221.94" stroke="hsla(175.79999999999995, 100%, 43.3%, 0.77)" stroke-width="1.5"></path><path d="M734.83 639.7L734.83 639.7" stroke="hsla(175.79999999999995, 100%, 43.3%, 0.77)" stroke-width="1.5"></path><path d="M734.83 639.7L659.94 562.83" stroke="hsla(175.79999999999995, 100%, 43.3%, 0.77)" stroke-width="1.5"></path><path d="M734.83 639.7L728.87 482.09" stroke="hsla(175.79999999999995, 100%, 43.3%, 0.77)" stroke-width="1.5"></path><path d="M734.83 639.7L573.59 643.09" stroke="hsla(175.79999999999995, 100%, 43.3%, 0.77)" stroke-width="1.5"></path><circle r="25" cx="199.83" cy="562.65" fill="url(&quot;#SvgjsRadialGradient2674&quot;)"></circle><circle r="25" cx="296.85" cy="553.97" fill="url(&quot;#SvgjsRadialGradient2674&quot;)"></circle><circle r="25" cx="497.84" cy="376.18" fill="url(&quot;#SvgjsRadialGradient2674&quot;)"></circle><circle r="25" cx="554.06" cy="112.91" fill="url(&quot;#SvgjsRadialGradient2674&quot;)"></circle><circle r="25" cx="677.24" cy="221.94" fill="url(&quot;#SvgjsRadialGradient2674&quot;)"></circle><circle r="25" cx="672.51" cy="408.06" fill="url(&quot;#SvgjsRadialGradient2674&quot;)"></circle><circle r="25" cx="660.14" cy="494.7" fill="url(&quot;#SvgjsRadialGradient2674&quot;)"></circle><circle r="25" cx="760.45" cy="126.62" fill="url(&quot;#SvgjsRadialGradient2674&quot;)"></circle><circle r="25" cx="726.23" cy="398.58" fill="url(&quot;#SvgjsRadialGradient2674&quot;)"></circle><circle r="25" cx="728.87" cy="482.09" fill="url(&quot;#SvgjsRadialGradient2674&quot;)"></circle><circle r="5" cx="-64.69" cy="566.05" fill="rgba(157, 222, 218, 0.885)"></circle><circle r="5" cx="-64.78" cy="667.45" fill="rgba(157, 222, 218, 0.885)"></circle><circle r="5" cx="56.94" cy="579.78" fill="rgba(157, 222, 218, 0.885)"></circle><circle r="5" cx="39" cy="675.08" fill="rgba(157, 222, 218, 0.885)"></circle><circle r="5" cx="127.69" cy="486.36" fill="rgba(157, 222, 218, 0.885)"></circle><circle r="5" cx="138.83" cy="568.22" fill="rgba(157, 222, 218, 0.885)"></circle><circle r="5" cx="115.78" cy="661.21" fill="rgba(157, 222, 218, 0.885)"></circle><circle r="5" cx="237.33" cy="481.06" fill="rgba(157, 222, 218, 0.885)"></circle><circle r="5" cx="199.79" cy="670.2" fill="rgba(157, 222, 218, 0.885)"></circle><circle r="5" cx="298.16" cy="501.36" fill="rgba(157, 222, 218, 0.885)"></circle><circle r="5" cx="284.72" cy="666.99" fill="rgba(157, 222, 218, 0.885)"></circle><circle r="5" cx="406.31" cy="402.46" fill="rgba(157, 222, 218, 0.885)"></circle><circle r="5" cx="390.23" cy="495.85" fill="rgba(157, 222, 218, 0.885)"></circle><circle r="5" cx="383.33" cy="562.93" fill="rgba(157, 222, 218, 0.885)"></circle><circle r="5" cx="391.61" cy="657.48" fill="rgba(157, 222, 218, 0.885)"></circle><circle r="5" cx="466.99" cy="311.99" fill="rgba(157, 222, 218, 0.885)"></circle><circle r="5" cx="491.09" cy="490.19" fill="rgba(157, 222, 218, 0.885)"></circle><circle r="5" cx="474.94" cy="557.91" fill="rgba(157, 222, 218, 0.885)"></circle><circle r="5" cx="475.31" cy="649.32" fill="rgba(157, 222, 218, 0.885)"></circle><circle r="5" cx="588.76" cy="-58.35" fill="rgba(157, 222, 218, 0.885)"></circle><circle r="5" cx="565.24" cy="221.49" fill="rgba(157, 222, 218, 0.885)"></circle><circle r="5" cx="590.6" cy="289.49" fill="rgba(157, 222, 218, 0.885)"></circle><circle r="5" cx="585.02" cy="415.02" fill="rgba(157, 222, 218, 0.885)"></circle><circle r="5" cx="583.76" cy="491.74" fill="rgba(157, 222, 218, 0.885)"></circle><circle r="5" cx="585.54" cy="575.48" fill="rgba(157, 222, 218, 0.885)"></circle><circle r="5" cx="573.59" cy="643.09" fill="rgba(157, 222, 218, 0.885)"></circle><circle r="5" cx="640.25" cy="-48.3" fill="rgba(157, 222, 218, 0.885)"></circle><circle r="5" cx="661.27" cy="35.9" fill="rgba(157, 222, 218, 0.885)"></circle><circle r="5" cx="643.37" cy="144.53" fill="rgba(157, 222, 218, 0.885)"></circle><circle r="5" cx="664.4" cy="294.52" fill="rgba(157, 222, 218, 0.885)"></circle><circle r="5" cx="659.94" cy="562.83" fill="rgba(157, 222, 218, 0.885)"></circle><circle r="5" cx="758.13" cy="-57.12" fill="rgba(157, 222, 218, 0.885)"></circle><circle r="5" cx="733.83" cy="41" fill="rgba(157, 222, 218, 0.885)"></circle><circle r="5" cx="739.61" cy="196.97" fill="rgba(157, 222, 218, 0.885)"></circle><circle r="5" cx="745.57" cy="310.02" fill="rgba(157, 222, 218, 0.885)"></circle><circle r="5" cx="734.83" cy="639.7" fill="rgba(157, 222, 218, 0.885)"></circle></g><defs><mask id="SvgjsMask2672"><rect width="700" height="600" fill="#ffffff"></rect></mask><radialGradient cx="100%" cy="100%" r="921.95" gradientUnits="userSpaceOnUse" id="SvgjsRadialGradient2673"><stop stop-color="rgba(0, 69, 158, 1)" offset="0"></stop><stop stop-color="rgba(30, 54, 66, 1)" offset="0"></stop><stop stop-color="rgba(6, 12, 15, 1)" offset="0.72"></stop></radialGradient><radialGradient id="SvgjsRadialGradient2674"><stop stop-color="#ffffff" offset="0.1"></stop><stop stop-color="rgba(0, 170, 158, 0.77)" offset="0.2"></stop><stop stop-color="rgba(0, 170, 158, 0)" offset="1"></stop></radialGradient></defs></svg>