<svg xmlns="http://www.w3.org/2000/svg" version="1.1" xmlns:xlink="http://www.w3.org/1999/xlink" xmlns:svgjs="http://svgjs.dev/svgjs" viewBox="0 0 640 800" opacity="0.36"><g stroke-width="2" stroke="#00b8ab" fill="none" stroke-linecap="butt"><line x1="0" y1="0" x2="60" y2="60" opacity="0.05"></line><line x1="60" y1="0" x2="120" y2="60" opacity="0.14"></line><line x1="180" y1="0" x2="120" y2="60" opacity="0.23"></line><line x1="240" y1="0" x2="180" y2="60" opacity="0.32"></line><line x1="240" y1="0" x2="300" y2="60" opacity="0.41"></line><line x1="300" y1="0" x2="360" y2="60" opacity="0.50"></line><line x1="420" y1="0" x2="360" y2="60" opacity="0.58"></line><line x1="420" y1="0" x2="480" y2="60" opacity="0.67"></line><line x1="540" y1="0" x2="480" y2="60" opacity="0.76"></line><line x1="540" y1="0" x2="600" y2="60" opacity="0.85"></line><line x1="660" y1="0" x2="600" y2="60" opacity="0.94"></line><line x1="0" y1="60" x2="60" y2="120" opacity="0.05"></line><line x1="60" y1="60" x2="120" y2="120" opacity="0.14"></line><line x1="120" y1="60" x2="180" y2="120" opacity="0.23"></line><line x1="180" y1="60" x2="240" y2="120" opacity="0.32"></line><line x1="240" y1="60" x2="300" y2="120" opacity="0.41"></line><line x1="360" y1="60" x2="300" y2="120" opacity="0.50"></line><line x1="360" y1="60" x2="420" y2="120" opacity="0.58"></line><line x1="420" y1="60" x2="480" y2="120" opacity="0.67"></line><line x1="480" y1="60" x2="540" y2="120" opacity="0.76"></line><line x1="600" y1="60" x2="540" y2="120" opacity="0.85"></line><line x1="660" y1="60" x2="600" y2="120" opacity="0.94"></line><line x1="60" y1="120" x2="0" y2="180" opacity="0.05"></line><line x1="120" y1="120" x2="60" y2="180" opacity="0.14"></line><line x1="120" y1="120" x2="180" y2="180" opacity="0.23"></line><line x1="240" y1="120" x2="180" y2="180" opacity="0.32"></line><line x1="240" y1="120" x2="300" y2="180" opacity="0.41"></line><line x1="360" y1="120" x2="300" y2="180" opacity="0.50"></line><line x1="420" y1="120" x2="360" y2="180" opacity="0.58"></line><line x1="420" y1="120" x2="480" y2="180" opacity="0.67"></line><line x1="540" y1="120" x2="480" y2="180" opacity="0.76"></line><line x1="600" y1="120" x2="540" y2="180" opacity="0.85"></line><line x1="600" y1="120" x2="660" y2="180" opacity="0.94"></line><line x1="0" y1="180" x2="60" y2="240" opacity="0.05"></line><line x1="120" y1="180" x2="60" y2="240" opacity="0.14"></line><line x1="120" y1="180" x2="180" y2="240" opacity="0.23"></line><line x1="240" y1="180" x2="180" y2="240" opacity="0.32"></line><line x1="240" y1="180" x2="300" y2="240" opacity="0.41"></line><line x1="300" y1="180" x2="360" y2="240" opacity="0.50"></line><line x1="420" y1="180" x2="360" y2="240" opacity="0.58"></line><line x1="480" y1="180" x2="420" y2="240" opacity="0.67"></line><line x1="480" y1="180" x2="540" y2="240" opacity="0.76"></line><line x1="540" y1="180" x2="600" y2="240" opacity="0.85"></line><line x1="600" y1="180" x2="660" y2="240" opacity="0.94"></line><line x1="60" y1="240" x2="0" y2="300" opacity="0.05"></line><line x1="60" y1="240" x2="120" y2="300" opacity="0.14"></line><line x1="180" y1="240" x2="120" y2="300" opacity="0.23"></line><line x1="180" y1="240" x2="240" y2="300" opacity="0.32"></line><line x1="300" y1="240" x2="240" y2="300" opacity="0.41"></line><line x1="360" y1="240" x2="300" y2="300" opacity="0.50"></line><line x1="360" y1="240" x2="420" y2="300" opacity="0.58"></line><line x1="480" y1="240" x2="420" y2="300" opacity="0.67"></line><line x1="480" y1="240" x2="540" y2="300" opacity="0.76"></line><line x1="540" y1="240" x2="600" y2="300" opacity="0.85"></line><line x1="660" y1="240" x2="600" y2="300" opacity="0.94"></line><line x1="0" y1="300" x2="60" y2="360" opacity="0.05"></line><line x1="60" y1="300" x2="120" y2="360" opacity="0.14"></line><line x1="120" y1="300" x2="180" y2="360" opacity="0.23"></line><line x1="180" y1="300" x2="240" y2="360" opacity="0.32"></line><line x1="240" y1="300" x2="300" y2="360" opacity="0.41"></line><line x1="300" y1="300" x2="360" y2="360" opacity="0.50"></line><line x1="420" y1="300" x2="360" y2="360" opacity="0.58"></line><line x1="420" y1="300" x2="480" y2="360" opacity="0.67"></line><line x1="480" y1="300" x2="540" y2="360" opacity="0.76"></line><line x1="540" y1="300" x2="600" y2="360" opacity="0.85"></line><line x1="660" y1="300" x2="600" y2="360" opacity="0.94"></line><line x1="0" y1="360" x2="60" y2="420" opacity="0.05"></line><line x1="120" y1="360" x2="60" y2="420" opacity="0.14"></line><line x1="120" y1="360" x2="180" y2="420" opacity="0.23"></line><line x1="180" y1="360" x2="240" y2="420" opacity="0.32"></line><line x1="240" y1="360" x2="300" y2="420" opacity="0.41"></line><line x1="300" y1="360" x2="360" y2="420" opacity="0.50"></line><line x1="360" y1="360" x2="420" y2="420" opacity="0.58"></line><line x1="480" y1="360" x2="420" y2="420" opacity="0.67"></line><line x1="480" y1="360" x2="540" y2="420" opacity="0.76"></line><line x1="540" y1="360" x2="600" y2="420" opacity="0.85"></line><line x1="600" y1="360" x2="660" y2="420" opacity="0.94"></line><line x1="60" y1="420" x2="0" y2="480" opacity="0.05"></line><line x1="120" y1="420" x2="60" y2="480" opacity="0.14"></line><line x1="120" y1="420" x2="180" y2="480" opacity="0.23"></line><line x1="180" y1="420" x2="240" y2="480" opacity="0.32"></line><line x1="300" y1="420" x2="240" y2="480" opacity="0.41"></line><line x1="360" y1="420" x2="300" y2="480" opacity="0.50"></line><line x1="420" y1="420" x2="360" y2="480" opacity="0.58"></line><line x1="480" y1="420" x2="420" y2="480" opacity="0.67"></line><line x1="480" y1="420" x2="540" y2="480" opacity="0.76"></line><line x1="540" y1="420" x2="600" y2="480" opacity="0.85"></line><line x1="660" y1="420" x2="600" y2="480" opacity="0.94"></line><line x1="0" y1="480" x2="60" y2="540" opacity="0.05"></line><line x1="120" y1="480" x2="60" y2="540" opacity="0.14"></line><line x1="180" y1="480" x2="120" y2="540" opacity="0.23"></line><line x1="240" y1="480" x2="180" y2="540" opacity="0.32"></line><line x1="240" y1="480" x2="300" y2="540" opacity="0.41"></line><line x1="300" y1="480" x2="360" y2="540" opacity="0.50"></line><line x1="360" y1="480" x2="420" y2="540" opacity="0.58"></line><line x1="420" y1="480" x2="480" y2="540" opacity="0.67"></line><line x1="540" y1="480" x2="480" y2="540" opacity="0.76"></line><line x1="540" y1="480" x2="600" y2="540" opacity="0.85"></line><line x1="600" y1="480" x2="660" y2="540" opacity="0.94"></line><line x1="60" y1="540" x2="0" y2="600" opacity="0.05"></line><line x1="120" y1="540" x2="60" y2="600" opacity="0.14"></line><line x1="180" y1="540" x2="120" y2="600" opacity="0.23"></line><line x1="240" y1="540" x2="180" y2="600" opacity="0.32"></line><line x1="240" y1="540" x2="300" y2="600" opacity="0.41"></line><line x1="360" y1="540" x2="300" y2="600" opacity="0.50"></line><line x1="420" y1="540" x2="360" y2="600" opacity="0.58"></line><line x1="420" y1="540" x2="480" y2="600" opacity="0.67"></line><line x1="480" y1="540" x2="540" y2="600" opacity="0.76"></line><line x1="600" y1="540" x2="540" y2="600" opacity="0.85"></line><line x1="660" y1="540" x2="600" y2="600" opacity="0.94"></line><line x1="60" y1="600" x2="0" y2="660" opacity="0.05"></line><line x1="120" y1="600" x2="60" y2="660" opacity="0.14"></line><line x1="120" y1="600" x2="180" y2="660" opacity="0.23"></line><line x1="180" y1="600" x2="240" y2="660" opacity="0.32"></line><line x1="240" y1="600" x2="300" y2="660" opacity="0.41"></line><line x1="300" y1="600" x2="360" y2="660" opacity="0.50"></line><line x1="420" y1="600" x2="360" y2="660" opacity="0.58"></line><line x1="420" y1="600" x2="480" y2="660" opacity="0.67"></line><line x1="480" y1="600" x2="540" y2="660" opacity="0.76"></line><line x1="540" y1="600" x2="600" y2="660" opacity="0.85"></line><line x1="660" y1="600" x2="600" y2="660" opacity="0.94"></line><line x1="0" y1="660" x2="60" y2="720" opacity="0.05"></line><line x1="60" y1="660" x2="120" y2="720" opacity="0.14"></line><line x1="180" y1="660" x2="120" y2="720" opacity="0.23"></line><line x1="180" y1="660" x2="240" y2="720" opacity="0.32"></line><line x1="300" y1="660" x2="240" y2="720" opacity="0.41"></line><line x1="300" y1="660" x2="360" y2="720" opacity="0.50"></line><line x1="420" y1="660" x2="360" y2="720" opacity="0.58"></line><line x1="420" y1="660" x2="480" y2="720" opacity="0.67"></line><line x1="480" y1="660" x2="540" y2="720" opacity="0.76"></line><line x1="540" y1="660" x2="600" y2="720" opacity="0.85"></line><line x1="660" y1="660" x2="600" y2="720" opacity="0.94"></line><line x1="60" y1="720" x2="0" y2="780" opacity="0.05"></line><line x1="60" y1="720" x2="120" y2="780" opacity="0.14"></line><line x1="120" y1="720" x2="180" y2="780" opacity="0.23"></line><line x1="240" y1="720" x2="180" y2="780" opacity="0.32"></line><line x1="240" y1="720" x2="300" y2="780" opacity="0.41"></line><line x1="300" y1="720" x2="360" y2="780" opacity="0.50"></line><line x1="360" y1="720" x2="420" y2="780" opacity="0.58"></line><line x1="420" y1="720" x2="480" y2="780" opacity="0.67"></line><line x1="480" y1="720" x2="540" y2="780" opacity="0.76"></line><line x1="600" y1="720" x2="540" y2="780" opacity="0.85"></line><line x1="600" y1="720" x2="660" y2="780" opacity="0.94"></line><line x1="60" y1="780" x2="0" y2="840" opacity="0.05"></line><line x1="60" y1="780" x2="120" y2="840" opacity="0.14"></line><line x1="120" y1="780" x2="180" y2="840" opacity="0.23"></line><line x1="180" y1="780" x2="240" y2="840" opacity="0.32"></line><line x1="240" y1="780" x2="300" y2="840" opacity="0.41"></line><line x1="360" y1="780" x2="300" y2="840" opacity="0.50"></line><line x1="360" y1="780" x2="420" y2="840" opacity="0.58"></line><line x1="480" y1="780" x2="420" y2="840" opacity="0.67"></line><line x1="480" y1="780" x2="540" y2="840" opacity="0.76"></line><line x1="600" y1="780" x2="540" y2="840" opacity="0.85"></line><line x1="660" y1="780" x2="600" y2="840" opacity="0.94"></line></g></svg>